<svg xmlns="http://www.w3.org/2000/svg" xmlns:xlink="http://www.w3.org/1999/xlink" width="40" zoomAndPan="magnify" viewBox="0 0 30 30.000001" height="40" preserveAspectRatio="xMidYMid meet" version="1.0"><defs><clipPath id="1a46d09cf2"><path d="M 15 4.804688 L 26 4.804688 L 26 24.398438 L 15 24.398438 Z M 15 4.804688 " clip-rule="nonzero"/></clipPath><clipPath id="d62cc7dbbe"><path d="M 4 4.804688 L 14 4.804688 L 14 24.398438 L 4 24.398438 Z M 4 4.804688 " clip-rule="nonzero"/></clipPath></defs><path fill="#000000" d="M 13.710938 14.628906 C 13.710938 14.917969 13.65625 15.195312 13.546875 15.460938 C 13.4375 15.726562 13.28125 15.960938 13.078125 16.164062 C 12.878906 16.367188 12.644531 16.523438 12.382812 16.636719 C 12.117188 16.746094 11.84375 16.800781 11.558594 16.800781 C 11.273438 16.800781 11 16.746094 10.734375 16.636719 C 10.472656 16.523438 10.238281 16.367188 10.035156 16.164062 C 9.835938 15.960938 9.679688 15.726562 9.570312 15.460938 C 9.460938 15.195312 9.40625 14.917969 9.40625 14.628906 C 9.40625 14.339844 9.460938 14.0625 9.570312 13.796875 C 9.679688 13.53125 9.835938 13.296875 10.035156 13.09375 C 10.238281 12.890625 10.472656 12.734375 10.734375 12.621094 C 11 12.511719 11.273438 12.457031 11.558594 12.457031 C 11.84375 12.457031 12.117188 12.511719 12.382812 12.621094 C 12.644531 12.734375 12.878906 12.890625 13.078125 13.09375 C 13.28125 13.296875 13.4375 13.53125 13.546875 13.796875 C 13.65625 14.0625 13.710938 14.339844 13.710938 14.628906 Z M 13.710938 14.628906 " fill-opacity="1" fill-rule="nonzero"/><path fill="#000000" d="M 20.164062 14.628906 C 20.164062 14.917969 20.109375 15.195312 20 15.460938 C 19.890625 15.726562 19.734375 15.960938 19.53125 16.164062 C 19.332031 16.367188 19.097656 16.523438 18.835938 16.636719 C 18.570312 16.746094 18.296875 16.800781 18.011719 16.800781 C 17.726562 16.800781 17.453125 16.746094 17.1875 16.636719 C 16.925781 16.523438 16.691406 16.367188 16.492188 16.164062 C 16.289062 15.960938 16.132812 15.726562 16.023438 15.460938 C 15.914062 15.195312 15.859375 14.917969 15.859375 14.628906 C 15.859375 14.339844 15.914062 14.0625 16.023438 13.796875 C 16.132812 13.53125 16.289062 13.296875 16.492188 13.09375 C 16.691406 12.890625 16.925781 12.734375 17.1875 12.621094 C 17.453125 12.511719 17.726562 12.457031 18.011719 12.457031 C 18.296875 12.457031 18.570312 12.511719 18.835938 12.621094 C 19.097656 12.734375 19.332031 12.890625 19.53125 13.09375 C 19.734375 13.296875 19.890625 13.53125 20 13.796875 C 20.109375 14.0625 20.164062 14.339844 20.164062 14.628906 Z M 20.164062 14.628906 " fill-opacity="1" fill-rule="nonzero"/><path fill="#000000" d="M 19.625 10.828125 C 19.523438 10.828125 19.425781 10.816406 19.328125 10.789062 C 15.761719 9.757812 13.808594 9.757812 10.242188 10.789062 C 10.101562 10.828125 9.964844 10.839844 9.820312 10.820312 C 9.679688 10.804688 9.546875 10.761719 9.421875 10.691406 C 9.296875 10.621094 9.191406 10.53125 9.101562 10.417969 C 9.011719 10.304688 8.949219 10.179688 8.910156 10.042969 C 8.871094 9.902344 8.859375 9.761719 8.875 9.621094 C 8.890625 9.476562 8.933594 9.34375 9.003906 9.214844 C 9.074219 9.089844 9.164062 8.984375 9.277344 8.894531 C 9.386719 8.804688 9.511719 8.738281 9.648438 8.699219 C 13.585938 7.5625 15.984375 7.5625 19.921875 8.699219 C 20.179688 8.773438 20.382812 8.925781 20.527344 9.152344 C 20.671875 9.378906 20.726562 9.625 20.691406 9.894531 C 20.652344 10.164062 20.535156 10.386719 20.332031 10.5625 C 20.128906 10.742188 19.894531 10.828125 19.625 10.828125 Z M 19.625 10.828125 " fill-opacity="1" fill-rule="nonzero"/><path fill="#000000" d="M 14.785156 21.417969 C 12.851562 21.402344 10.960938 21.117188 9.113281 20.558594 C 8.972656 20.519531 8.851562 20.453125 8.738281 20.363281 C 8.625 20.273438 8.535156 20.167969 8.464844 20.042969 C 8.398438 19.914062 8.355469 19.78125 8.339844 19.636719 C 8.320312 19.496094 8.332031 19.355469 8.371094 19.214844 C 8.414062 19.078125 8.476562 18.953125 8.566406 18.839844 C 8.652344 18.726562 8.761719 18.636719 8.886719 18.566406 C 9.011719 18.496094 9.144531 18.453125 9.285156 18.4375 C 9.425781 18.417969 9.566406 18.429688 9.703125 18.472656 C 11.359375 18.984375 13.054688 19.242188 14.785156 19.242188 C 16.519531 19.242188 18.210938 18.984375 19.867188 18.472656 C 20.003906 18.429688 20.144531 18.417969 20.285156 18.4375 C 20.425781 18.453125 20.5625 18.496094 20.6875 18.566406 C 20.808594 18.636719 20.917969 18.726562 21.003906 18.839844 C 21.09375 18.953125 21.160156 19.078125 21.199219 19.214844 C 21.238281 19.355469 21.25 19.496094 21.230469 19.636719 C 21.214844 19.78125 21.171875 19.914062 21.105469 20.042969 C 21.035156 20.167969 20.945312 20.273438 20.832031 20.363281 C 20.722656 20.453125 20.597656 20.519531 20.460938 20.558594 C 18.609375 21.117188 16.714844 21.402344 14.785156 21.417969 Z M 14.785156 21.417969 " fill-opacity="1" fill-rule="nonzero"/><g clip-path="url(#1a46d09cf2)"><path fill="#000000" d="M 20.699219 24.398438 C 19.316406 24.398438 17.472656 21.421875 17.472656 20.058594 C 17.472656 19.914062 17.5 19.773438 17.554688 19.640625 C 17.609375 19.507812 17.6875 19.390625 17.789062 19.289062 C 17.890625 19.1875 18.007812 19.109375 18.136719 19.054688 C 18.269531 19 18.40625 18.972656 18.550781 18.972656 C 18.691406 18.972656 18.828125 19 18.960938 19.054688 C 19.09375 19.109375 19.210938 19.1875 19.308594 19.289062 C 19.410156 19.390625 19.488281 19.507812 19.542969 19.640625 C 19.597656 19.773438 19.625 19.914062 19.625 20.058594 C 19.625 20.511719 20.4375 21.785156 20.910156 22.210938 C 21.828125 22.042969 22.871094 20.828125 23.484375 19.613281 C 24.082031 18.019531 23.851562 13.835938 21.957031 8.273438 C 20.949219 7.664062 19.867188 7.28125 18.703125 7.128906 L 17.933594 9.0625 C 17.882812 9.195312 17.804688 9.3125 17.707031 9.417969 C 17.605469 9.519531 17.492188 9.597656 17.359375 9.65625 C 17.230469 9.710938 17.09375 9.742188 16.949219 9.742188 C 16.804688 9.746094 16.667969 9.71875 16.535156 9.664062 C 16.402344 9.613281 16.285156 9.535156 16.183594 9.433594 C 16.082031 9.335938 16.003906 9.21875 15.949219 9.085938 C 15.890625 8.953125 15.863281 8.816406 15.859375 8.671875 C 15.859375 8.527344 15.882812 8.386719 15.9375 8.253906 L 17.011719 5.539062 C 17.101562 5.3125 17.25 5.140625 17.457031 5.011719 C 17.664062 4.886719 17.886719 4.839844 18.125 4.863281 C 20.066406 4.992188 21.847656 5.597656 23.46875 6.679688 C 23.65625 6.8125 23.789062 6.992188 23.867188 7.210938 C 25.816406 12.789062 26.445312 17.988281 25.464844 20.460938 C 25.453125 20.488281 25.441406 20.515625 25.429688 20.542969 C 24.503906 22.40625 22.777344 24.398438 20.699219 24.398438 Z M 21.03125 22.304688 Z M 21.03125 22.304688 " fill-opacity="1" fill-rule="nonzero"/></g><g clip-path="url(#d62cc7dbbe)"><path fill="#000000" d="M 9.050781 24.398438 C 7.039062 24.398438 5.378906 22.398438 4.492188 20.523438 C 4.480469 20.5 4.46875 20.46875 4.460938 20.445312 C 3.53125 17.980469 4.128906 12.792969 5.980469 7.226562 C 6.054688 7.007812 6.179688 6.832031 6.367188 6.695312 C 7.886719 5.605469 9.578125 4.996094 11.441406 4.863281 C 11.679688 4.835938 11.90625 4.886719 12.113281 5.011719 C 12.320312 5.136719 12.46875 5.3125 12.558594 5.539062 L 13.632812 8.253906 C 13.683594 8.386719 13.710938 8.527344 13.710938 8.671875 C 13.707031 8.816406 13.679688 8.953125 13.621094 9.085938 C 13.566406 9.21875 13.488281 9.335938 13.386719 9.433594 C 13.28125 9.535156 13.164062 9.613281 13.03125 9.664062 C 12.902344 9.71875 12.761719 9.746094 12.621094 9.742188 C 12.476562 9.742188 12.339844 9.710938 12.210938 9.65625 C 12.078125 9.597656 11.964844 9.519531 11.863281 9.417969 C 11.765625 9.3125 11.6875 9.195312 11.636719 9.0625 L 10.871094 7.132812 C 9.800781 7.289062 8.816406 7.664062 7.910156 8.257812 C 6.097656 13.832031 5.878906 18.03125 6.457031 19.632812 C 7.023438 20.816406 7.976562 22 8.8125 22.199219 C 9.363281 21.578125 9.742188 20.863281 9.945312 20.058594 C 9.945312 19.914062 9.972656 19.773438 10.027344 19.640625 C 10.082031 19.507812 10.160156 19.390625 10.257812 19.289062 C 10.359375 19.1875 10.476562 19.109375 10.609375 19.054688 C 10.742188 19 10.878906 18.972656 11.019531 18.972656 C 11.164062 18.972656 11.300781 19 11.433594 19.054688 C 11.5625 19.109375 11.679688 19.1875 11.78125 19.289062 C 11.882812 19.390625 11.960938 19.507812 12.015625 19.640625 C 12.070312 19.773438 12.097656 19.914062 12.097656 20.058594 C 12 21.015625 11.679688 21.886719 11.132812 22.675781 C 10.046875 24.398438 9.320312 24.398438 9.050781 24.398438 Z M 9.050781 24.398438 " fill-opacity="1" fill-rule="nonzero"/></g></svg>