<?xml version="1.0" encoding="UTF-8"?>
<svg version="1.1" xmlns="http://www.w3.org/2000/svg" width="1920" height="1920">
<path d="M0 0 C7.35257154 0.0065548 14.70512453 0.00111132 22.05769521 -0.00440762 C36.45632148 -0.01483652 50.85492979 -0.01406773 65.25355769 -0.0082498 C77.8572589 -0.00318326 90.46095359 -0.00192158 103.06465562 -0.00429508 C103.90645486 -0.00444785 104.74825411 -0.00460062 105.61556242 -0.00475802 C109.03424703 -0.00538088 112.45293164 -0.0060177 115.87161625 -0.00667755 C147.82955064 -0.01277193 179.78747372 -0.00728666 211.74540636 0.00351624 C240.02212519 0.01300219 268.298826 0.01215763 296.57554467 0.00259426 C328.47710927 -0.00815946 360.3786639 -0.01233682 392.28023006 -0.00618121 C395.69298088 -0.00553995 399.1057317 -0.00491426 402.51848252 -0.00429508 C403.35854986 -0.00413693 404.19861721 -0.00397877 405.06414114 -0.00381583 C417.64539171 -0.00155887 430.22663498 -0.0041675 442.80788453 -0.00925419 C457.14277628 -0.01502163 471.47764756 -0.01344056 485.81253683 -0.0026927 C493.1032991 0.00259617 500.39402813 0.00493674 507.68478997 -0.00199101 C680.4463804 -0.15555872 680.4463804 -0.15555872 750.99229272 57.26333645 C752.4212185 58.34614895 752.4212185 58.34614895 753.87901147 59.45083645 C754.57639428 60.04896145 755.27377709 60.64708645 755.99229272 61.26333645 C755.99229272 61.92333645 755.99229272 62.58333645 755.99229272 63.26333645 C756.55432397 63.50052395 757.11635522 63.73771145 757.69541772 63.98208645 C760.51123313 65.55281342 762.47184688 67.47805109 764.74229272 69.76333645 C765.54151147 70.55739895 766.34073022 71.35146145 767.16416772 72.16958645 C768.99229272 74.26333645 768.99229272 74.26333645 768.99229272 76.26333645 C769.65229272 76.26333645 770.31229272 76.26333645 770.99229272 76.26333645 C774.24923349 79.70638813 777.09029013 83.51930203 779.99229272 87.26333645 C780.63762963 88.09043117 780.63762963 88.09043117 781.29600365 88.93423489 C833.87881584 156.84229791 832.34204588 240.72436025 832.24157206 322.49595732 C832.23292771 329.88088656 832.23636037 337.26580035 832.23991221 344.65073207 C832.24612678 358.27646217 832.24308603 371.90217478 832.23431809 385.52790287 C832.2256485 399.00484214 832.22079922 412.48177353 832.22098572 425.95871571 C832.22099337 426.80283695 832.22100102 427.64695819 832.22100889 428.51665886 C832.22104981 431.94448328 832.22111544 435.37230771 832.2212147 438.80013213 C832.22211707 470.83399216 832.21223148 502.86784028 832.19678504 534.90169618 C832.18314898 563.2856724 832.17692463 591.66964018 832.17759545 620.05361965 C832.17763586 621.87845218 832.17767622 623.70328471 832.17771653 625.52811725 C832.17773688 626.43033725 832.17775723 627.33255726 832.1777782 628.26211727 C832.17787901 632.80496503 832.17796959 637.34781279 832.17804845 641.89066055 C832.17806516 642.78714542 832.17808187 643.68363028 832.17809909 644.60728136 C832.17846508 668.42375145 832.17391719 692.24022049 832.16772188 716.05668971 C832.16750161 716.90490438 832.16728134 717.75311905 832.16705439 718.6270372 C832.16616632 722.03685472 832.16527788 725.44667224 832.16436343 728.85648975 C832.16121841 740.66056809 832.15969613 752.4646456 832.15925194 764.26872433 C832.15865221 779.47902037 832.15460507 794.6893095 832.14482049 809.8996026 C832.13974783 817.92103181 832.13728179 825.9424509 832.13881667 833.96388163 C832.13964902 839.98482884 832.13516687 846.00576067 832.12876617 852.02670502 C832.12697784 854.43779283 832.12679754 856.84888258 832.12853346 859.25997043 C832.14342522 882.54959761 831.64568319 905.84643808 829.7999099 929.06997707 C829.61416541 931.42803817 829.44350884 933.78690332 829.27354272 936.14614895 C828.13268755 951.29507089 826.07642283 966.34142271 822.30479272 981.07583645 C821.92242455 982.57594265 821.92242455 982.57594265 821.53233178 984.10635403 C813.41060898 1014.93154269 799.32758817 1043.66041874 778.99229272 1068.26333645 C778.51260033 1068.8445425 778.03290795 1069.42574856 777.53867943 1070.02456692 C764.42309591 1085.81301446 764.42309591 1085.81301446 757.99229272 1091.26333645 C757.33229272 1091.26333645 756.67229272 1091.26333645 755.99229272 1091.26333645 C755.99229272 1091.92333645 755.99229272 1092.58333645 755.99229272 1093.26333645 C752.54924104 1096.52027722 748.73632714 1099.36133386 744.99229272 1102.26333645 C744.44089623 1102.69356106 743.88949975 1103.12378567 743.32139428 1103.56704739 C675.41333125 1156.14985958 591.53126892 1154.61308961 509.75967184 1154.5126158 C502.37474261 1154.50397144 494.98982881 1154.5074041 487.6048971 1154.51095595 C473.979167 1154.51717051 460.35345439 1154.51412976 446.72772629 1154.50536182 C433.25078703 1154.49669223 419.77385564 1154.49184296 406.29691346 1154.49202946 C405.45279222 1154.4920371 404.60867098 1154.49204475 403.7389703 1154.49205262 C400.31114588 1154.49209354 396.88332146 1154.49215917 393.45549703 1154.49225844 C361.42163701 1154.4931608 329.38778889 1154.48327521 297.35393298 1154.46782877 C268.96995676 1154.45419271 240.58598898 1154.44796836 212.20200951 1154.44863918 C210.37717698 1154.44867959 208.55234445 1154.44871995 206.72751192 1154.44876026 C205.37418191 1154.44879079 205.37418191 1154.44879079 203.99351189 1154.44882193 C199.45066413 1154.44892275 194.90781637 1154.44901332 190.36496861 1154.44909218 C189.46848375 1154.44910889 188.57199888 1154.4491256 187.64834781 1154.44914282 C163.83187772 1154.44950881 140.01540867 1154.44496093 116.19893946 1154.43876561 C114.92661745 1154.43843521 114.92661745 1154.43843521 113.62859197 1154.43809812 C110.21877445 1154.43721005 106.80895692 1154.43632161 103.39913941 1154.43540717 C91.59506107 1154.43226214 79.79098356 1154.43073987 67.98690483 1154.43029568 C52.77660879 1154.42969594 37.56631966 1154.4256488 22.35602657 1154.41586422 C14.33459736 1154.41079156 6.31317826 1154.40832552 -1.70825247 1154.4098604 C-7.72919968 1154.41069275 -13.75013151 1154.4062106 -19.77107585 1154.3998099 C-22.18216366 1154.39802158 -24.59325342 1154.39784127 -27.00434127 1154.39957719 C-50.29396845 1154.41446896 -73.59080891 1153.91672692 -96.81434791 1152.07095364 C-99.17240901 1151.88520914 -101.53127416 1151.71455257 -103.89051978 1151.54458645 C-119.03944173 1150.40373128 -134.08579354 1148.34746657 -148.82020728 1144.57583645 C-150.32031349 1144.19346828 -150.32031349 1144.19346828 -151.85072486 1143.80337551 C-182.89587295 1135.6236985 -211.03280412 1121.37825846 -236.00770728 1101.26333645 C-237.50044166 1100.11091457 -237.50044166 1100.11091457 -239.02333228 1098.93521145 C-239.94630103 1098.2184927 -240.86926978 1097.50177395 -241.82020728 1096.76333645 C-242.6310276 1096.13427395 -243.44184791 1095.50521145 -244.27723853 1094.85708645 C-244.84829322 1094.33114895 -245.41934791 1093.80521145 -246.00770728 1093.26333645 C-246.00770728 1092.60333645 -246.00770728 1091.94333645 -246.00770728 1091.26333645 C-246.56973853 1091.02614895 -247.13176978 1090.78896145 -247.71083228 1090.54458645 C-250.5266477 1088.97385948 -252.48726144 1087.0486218 -254.75770728 1084.76333645 C-255.55692603 1083.96927395 -256.35614478 1083.17521145 -257.17958228 1082.35708645 C-259.00770728 1080.26333645 -259.00770728 1080.26333645 -259.00770728 1078.26333645 C-259.66770728 1078.26333645 -260.32770728 1078.26333645 -261.00770728 1078.26333645 C-264.26464806 1074.82028477 -267.1057047 1071.00737087 -270.00770728 1067.26333645 C-270.43793189 1066.71193996 -270.8681565 1066.16054348 -271.31141822 1065.59243801 C-323.89423041 997.68437498 -322.35746044 913.80231265 -322.25698663 832.03071557 C-322.24834228 824.64578634 -322.25177494 817.26087254 -322.25532678 809.87594083 C-322.26154135 796.25021073 -322.2585006 782.62449812 -322.24973266 768.99877003 C-322.24106307 755.52183076 -322.23621379 742.04489937 -322.23640029 728.56795719 C-322.23640794 727.72383595 -322.23641558 726.87971471 -322.23642346 726.01001404 C-322.23646438 722.58218961 -322.23653001 719.15436519 -322.23662927 715.72654077 C-322.23753163 683.69268074 -322.22764605 651.65883262 -322.21219961 619.62497672 C-322.19856354 591.24100049 -322.1923392 562.85703271 -322.19301002 534.47305324 C-322.19305043 532.64822071 -322.19309079 530.82338818 -322.1931311 528.99855565 C-322.19315145 528.09633564 -322.1931718 527.19411563 -322.19319277 526.26455562 C-322.19329358 521.72170786 -322.19338416 517.1788601 -322.19346301 512.63601234 C-322.19347973 511.73952748 -322.19349644 510.84304261 -322.19351366 509.91939154 C-322.19387965 486.10292145 -322.18933176 462.2864524 -322.18313645 438.46998319 C-322.18291618 437.62176852 -322.18269591 436.77355385 -322.18246896 435.8996357 C-322.18158089 432.48981818 -322.18069244 429.08000066 -322.179778 425.67018314 C-322.17663297 413.8661048 -322.1751107 402.06202729 -322.17466651 390.25794856 C-322.17406678 375.04765252 -322.17001963 359.8373634 -322.16023506 344.6270703 C-322.1551624 336.60564109 -322.15269635 328.584222 -322.15423124 320.56279127 C-322.15506359 314.54184405 -322.15058143 308.52091222 -322.14418074 302.49996788 C-322.14239241 300.08888007 -322.14221211 297.67779031 -322.14394803 295.26670246 C-322.15883979 271.97707528 -321.66109776 248.68023482 -319.81532447 225.45669582 C-319.62957998 223.09863472 -319.4589234 220.73976958 -319.28895728 218.38052395 C-318.14810212 203.231602 -316.0918374 188.18525019 -312.32020728 173.45083645 C-312.06529517 172.45076565 -311.81038307 171.45069485 -311.54774635 170.42031887 C-303.36806934 139.37517078 -289.12262929 111.23823961 -269.00770728 86.26333645 C-268.23942603 85.2681802 -267.47114478 84.27302395 -266.67958228 83.24771145 C-265.96286353 82.3247427 -265.24614478 81.40177395 -264.50770728 80.45083645 C-263.87864478 79.64001614 -263.24958228 78.82919582 -262.60145728 77.9938052 C-262.07551978 77.42275051 -261.54958228 76.85169582 -261.00770728 76.26333645 C-260.34770728 76.26333645 -259.68770728 76.26333645 -259.00770728 76.26333645 C-258.77051978 75.7013052 -258.53333228 75.13927395 -258.28895728 74.56021145 C-256.71823032 71.74439603 -254.79299264 69.78378229 -252.50770728 67.51333645 C-251.31661353 66.31450832 -251.31661353 66.31450832 -250.10145728 65.09146145 C-248.00770728 63.26333645 -248.00770728 63.26333645 -246.00770728 63.26333645 C-246.00770728 62.60333645 -246.00770728 61.94333645 -246.00770728 61.26333645 C-242.56465561 58.00639567 -238.75174171 55.16533903 -235.00770728 52.26333645 C-234.4563108 51.83311184 -233.90491432 51.40288723 -233.33680885 50.95962551 C-165.48963004 -1.5760426 -81.70314944 -0.0775292 0 0 Z " fill="#5765EC" transform="translate(705.0077072842978,382.7366635520011)"/>
<path d="M0 0 C3.00943397 0.70155615 3.27161885 1.39025252 4.90234375 3.93359375 C5.76518626 5.46656267 6.60643045 7.0118199 7.4296875 8.56640625 C7.86780762 9.35950195 8.30592773 10.15259766 8.75732422 10.96972656 C10.15689746 13.528975 11.51747166 16.10553753 12.8671875 18.69140625 C13.34583252 19.60559326 13.82447754 20.51978027 14.31762695 21.46166992 C18.06216095 28.6911152 21.41699245 36.00288915 24.4296875 43.56640625 C29.37710555 43.02187911 34.32231501 42.46347827 39.265625 41.8828125 C41.44530123 41.63141265 43.62498897 41.38011264 45.8046875 41.12890625 C46.825625 41.00708984 47.8465625 40.88527344 48.8984375 40.75976562 C71.69170122 38.15982479 94.43418053 37.16242129 117.3671875 37.19140625 C118.71458948 37.19069516 120.06199142 37.18990075 121.40939331 37.18902588 C148.94218672 37.19285164 176.4906283 38.52144784 203.66577148 43.20361328 C206.61599984 43.5908617 209.45753305 43.62732567 212.4296875 43.56640625 C212.71054199 42.9336377 212.99139648 42.30086914 213.28076172 41.64892578 C229.31741596 5.67867779 229.31741596 5.67867779 234.4296875 0.56640625 C240.36637131 1.09396308 246.07028124 2.27744334 251.8671875 3.62890625 C253.24958618 3.94782837 253.24958618 3.94782837 254.65991211 4.27319336 C257.91835819 5.02989661 261.17425824 5.79682673 264.4296875 6.56640625 C265.40548767 6.79674561 265.40548767 6.79674561 266.40100098 7.03173828 C270.70995243 8.04968508 275.0169943 9.07533722 279.32229614 10.10861206 C280.74784636 10.45042894 282.17368099 10.79106229 283.599823 11.13040161 C291.62603095 13.0434679 299.54684351 15.14138909 307.41821289 17.63061523 C311.12062476 18.78110933 314.85279067 19.78775279 318.59667969 20.79296875 C371.88235873 35.34045507 371.88235873 35.34045507 394.6796875 45.94140625 C395.32204346 46.23861572 395.96439941 46.5358252 396.6262207 46.84204102 C403.16104057 50.08901544 407.03603867 55.06960081 410.9296875 61.06640625 C411.35491699 61.71456299 411.78014648 62.36271973 412.21826172 63.03051758 C413.63342729 65.20204722 415.03395668 67.38233726 416.4296875 69.56640625 C416.91469727 70.3248584 417.39970703 71.08331055 417.89941406 71.86474609 C446.00030763 116.05581429 472.29370007 164.02809036 488.53417969 213.92749023 C489.44392955 216.72122189 489.44392955 216.72122189 490.8828125 219.953125 C493.31823236 225.64192138 495.2246482 231.51094418 497.1796875 237.37890625 C497.40000641 238.03912781 497.62032532 238.69934937 497.84732056 239.37957764 C502.25446278 252.63943812 505.98562834 266.02444573 509.4296875 279.56640625 C510.04399108 281.93496841 510.6585812 284.30345626 511.2734375 286.671875 C514.84511539 300.55839329 517.97745793 314.43957561 520.4296875 328.56640625 C520.71585938 330.14228516 520.71585938 330.14228516 521.0078125 331.75 C521.52383551 334.68384053 521.98658008 337.62062811 522.4296875 340.56640625 C522.53104004 341.23397949 522.63239258 341.90155273 522.73681641 342.58935547 C524.55839118 354.76042747 525.97267161 366.97719485 527.28790283 379.21173096 C527.4622248 380.83199605 527.63821891 382.45208235 527.81610107 384.07196045 C530.00292198 404.08327715 530.59620793 423.96513051 530.56005859 444.09057617 C530.55473116 447.60014234 530.5600221 451.10957847 530.56640625 454.61914062 C530.56985232 467.5546085 530.34019425 480.45800856 529.78457642 493.38221741 C529.52687712 499.40761313 529.38316673 505.4103949 529.41873169 511.44172668 C529.3005179 517.31794593 528.88748855 522.56257316 524.65234375 526.9296875 C521.38437253 529.67856677 517.80862233 531.83434029 514.12011719 533.97021484 C511.07986652 535.77394977 508.15472228 537.71087484 505.21875 539.6796875 C492.83353009 547.97350079 480.26705859 555.98914374 467.4296875 563.56640625 C466.64948242 564.02789063 465.86927734 564.489375 465.06542969 564.96484375 C428.57321293 586.4393888 390.27319389 604.28872026 350.4296875 618.56640625 C348.59614164 619.23248819 346.76278549 619.89909276 344.9296875 620.56640625 C344.02347656 620.89382813 343.11726563 621.22125 342.18359375 621.55859375 C340.33168538 622.23631341 338.48530834 622.92932335 336.64453125 623.63671875 C330.62635711 625.92210133 324.77018319 627.47817047 318.4296875 628.56640625 C313.02745952 622.76050436 308.58306896 616.60810515 304.3046875 609.94140625 C303.33571533 608.44275024 303.33571533 608.44275024 302.34716797 606.91381836 C296.27625299 597.45540115 290.50860745 587.83053335 284.89453125 578.09521484 C283.47489305 575.6444461 282.03303435 573.20806648 280.5859375 570.7734375 C279.74134463 569.32991991 278.89754179 567.88593967 278.0546875 566.44140625 C277.66684082 565.79631104 277.27899414 565.15121582 276.87939453 564.48657227 C275.48363939 562.05666851 274.44355027 560.13973087 274.375 557.3046875 C275.97344569 554.67021219 277.86014249 554.08263508 280.6796875 552.87890625 C281.85917969 552.36457031 283.03867188 551.85023438 284.25390625 551.3203125 C285.64503264 550.7337744 287.03701934 550.14927413 288.4296875 549.56640625 C306.63645909 541.90617096 324.56304497 533.91950796 341.4296875 523.56640625 C339.91876762 519.78910656 337.71692388 517.87960653 334.5546875 515.37890625 C333.69101563 514.68410156 332.82734375 513.98929688 331.9375 513.2734375 C329.49018917 511.60758885 328.3147253 510.90822016 325.4296875 510.56640625 C322.69631594 511.35903603 322.69631594 511.35903603 319.80859375 512.69921875 C318.70708984 513.17617187 317.60558594 513.653125 316.47070312 514.14453125 C314.74883789 514.91023438 314.74883789 514.91023438 312.9921875 515.69140625 C290.28717752 525.63059996 267.2591558 533.97080081 243.18017578 539.88720703 C240.51819172 540.54455122 237.86214119 541.22172554 235.20703125 541.90625 C233.53134402 542.33500304 231.85556697 542.76340524 230.1796875 543.19140625 C229.47368408 543.37340576 228.76768066 543.55540527 228.0402832 543.74291992 C213.35899124 547.43248498 198.65064766 550.16728418 183.62060547 551.94946289 C181.03368942 552.25639765 178.44848369 552.57546366 175.86328125 552.89648438 C174.16935583 553.10356105 172.47534804 553.30996528 170.78125 553.515625 C170.03299957 553.60728439 169.28474915 553.69894379 168.51382446 553.79338074 C156.88968081 555.16458681 145.33915385 555.73112695 133.63671875 555.76953125 C132.95294348 555.77235863 132.26916821 555.775186 131.56467247 555.77809906 C127.93609633 555.79296671 124.30755857 555.80227074 120.67895508 555.80664062 C117.74425618 555.81099466 114.80985634 555.82478423 111.87524414 555.84765625 C93.17551321 555.99037701 74.98340325 555.20248687 56.4296875 552.56640625 C55.06555283 552.38859792 53.70109346 552.21324476 52.33618164 552.04150391 C24.29872866 548.44357077 -3.11004167 542.13431542 -29.96069336 533.35742188 C-32.39585519 532.56214677 -34.83349486 531.77483966 -37.27148438 530.98828125 C-45.15356349 528.43263148 -52.92932531 525.78426368 -60.5703125 522.56640625 C-62.42897102 521.8133334 -64.28838172 521.06211503 -66.1484375 520.3125 C-68.03923202 519.54338538 -69.92985615 518.77385173 -71.8203125 518.00390625 C-72.77421875 517.61783203 -73.728125 517.23175781 -74.7109375 516.83398438 C-78.57574775 515.25853742 -82.31232675 513.70511777 -85.9921875 511.7265625 C-88.40072391 510.43161396 -88.40072391 510.43161396 -90.5546875 510.5625 C-93.67939517 512.1187982 -96.2043856 514.35405116 -98.8203125 516.62890625 C-99.37460937 517.10134766 -99.92890625 517.57378906 -100.5 518.06054688 C-101.8620615 519.22299592 -103.21691206 520.3938848 -104.5703125 521.56640625 C-103.21895229 525.62048687 -101.56067631 525.90416205 -97.796875 527.82421875 C-97.20569382 528.12880508 -96.61451263 528.43339142 -96.00541687 528.74720764 C-94.0737005 529.73873164 -92.1349353 530.71545144 -90.1953125 531.69140625 C-88.86587875 532.3684042 -87.53669657 533.04589638 -86.20776367 533.72387695 C-72.8885568 540.49652568 -59.53954703 547.22681467 -45.5703125 552.56640625 C-43.22759755 553.54608705 -40.8990954 554.55389194 -38.5703125 555.56640625 C-38.96838105 562.20691344 -41.58229441 566.9610031 -44.8203125 572.69140625 C-45.35390381 573.65062988 -45.88749512 574.60985352 -46.43725586 575.59814453 C-54.29230678 589.58276688 -62.70842141 603.2317158 -71.96899414 616.33154297 C-74.76040663 620.2914914 -77.22267041 624.32655379 -79.5703125 628.56640625 C-86.54410792 628.04142063 -92.54795507 626.49920567 -99.1328125 624.19140625 C-100.47375977 623.73507812 -100.47375977 623.73507812 -101.84179688 623.26953125 C-107.12038441 621.46237765 -112.36139247 619.565595 -117.5703125 617.56640625 C-118.66802979 617.14568848 -119.76574707 616.7249707 -120.89672852 616.29150391 C-138.19904563 609.63833134 -155.28602266 602.72280947 -172.03808594 594.76269531 C-174.36544158 593.66319255 -176.70226298 592.58943295 -179.046875 591.52734375 C-190.87934955 586.13781937 -202.22776589 579.91205307 -213.5703125 573.56640625 C-214.46862793 573.06560547 -215.36694336 572.56480469 -216.29248047 572.04882812 C-228.98204786 564.9561714 -241.37447999 557.47737692 -253.5703125 549.56640625 C-254.60929688 548.89351562 -255.64828125 548.220625 -256.71875 547.52734375 C-263.22927354 543.24170501 -269.61548988 538.77563372 -276.0078125 534.31640625 C-276.8733374 533.71328613 -277.7388623 533.11016602 -278.63061523 532.48876953 C-280.25456828 531.35090738 -281.87179422 530.20336182 -283.48095703 529.04467773 C-285.14094076 527.87019754 -286.85734048 526.77554171 -288.58984375 525.7109375 C-291.69993532 522.3432052 -291.52518816 518.94045279 -291.8203125 514.50390625 C-291.8798259 513.62562668 -291.93933929 512.74734711 -292.00065613 511.842453 C-293.37133976 490.66455385 -293.7728853 469.47175111 -293.7578125 448.25390625 C-293.75820526 447.06282257 -293.75859802 445.87173889 -293.75900269 444.64456177 C-293.75228685 427.57189933 -293.40003771 410.64299323 -291.83642578 393.63623047 C-291.42798092 388.9245005 -291.14274427 384.20475448 -290.84936523 379.48461914 C-290.5703125 376.56640625 -290.5703125 376.56640625 -289.5703125 373.56640625 C-289.39220437 372.11714287 -289.25324482 370.66284842 -289.140625 369.20703125 C-289.0691626 368.3464209 -288.9977002 367.48581055 -288.92407227 366.59912109 C-288.84858154 365.6808252 -288.77309082 364.7625293 -288.6953125 363.81640625 C-288.01877567 356.16978537 -286.98316181 348.84201353 -285.34765625 341.33984375 C-284.47381751 337.09799338 -283.82905126 332.84911816 -283.1953125 328.56640625 C-281.50854883 317.45121138 -279.07152609 306.52239982 -276.5703125 295.56640625 C-276.37179687 294.68194824 -276.17328125 293.79749023 -275.96875 292.88623047 C-271.40929578 272.61565693 -265.41157623 252.84132811 -258.8828125 233.12890625 C-258.64874695 232.4186731 -258.4146814 231.70843994 -258.17352295 230.97668457 C-255.87077198 224.00841261 -253.52842327 217.13838444 -250.42651367 210.4753418 C-249.07371611 207.45922428 -248.09707786 204.3309388 -247.0703125 201.19140625 C-230.85573727 153.94788449 -204.5841003 108.7114897 -177.8828125 66.81640625 C-177.21137207 65.76251709 -176.53993164 64.70862793 -175.84814453 63.62280273 C-175.21634277 62.63997314 -174.58454102 61.65714355 -173.93359375 60.64453125 C-173.37969971 59.7824707 -172.82580566 58.92041016 -172.25512695 58.03222656 C-168.69725708 52.82508475 -165.57783894 49.55703356 -159.8828125 46.81640625 C-159.20001221 46.48205566 -158.51721191 46.14770508 -157.8137207 45.80322266 C-134.61467203 34.83326735 -109.14976185 28.16698997 -84.48681641 21.37158203 C-81.87102873 20.64942669 -79.2572521 19.92065871 -76.64453125 19.1875 C-66.90775045 16.45737479 -57.14422225 13.84150395 -47.35791016 11.29492188 C-44.20170638 10.47007408 -41.04818538 9.63532239 -37.89453125 8.80078125 C-25.29772957 5.48105282 -12.69480864 2.79748823 0 0 Z " fill="#FEFEFE" transform="translate(841.5703125,645.43359375)"/>
<path d="M0 0 C2.48730204 1.93083356 4.86617329 3.93634077 7.2265625 6.01953125 C7.82726562 6.51453125 8.42796875 7.00953125 9.046875 7.51953125 C23.3161503 20.26232593 31.28001757 41.18067934 32.39501953 59.83837891 C33.40859808 86.00906189 28.06142539 108.98113318 10.2265625 129.01953125 C9.60007812 129.72851562 8.97359375 130.4375 8.328125 131.16796875 C-3.05192519 143.29120589 -19.91509765 151.52640623 -36.55859375 152.3046875 C-55.69193905 152.81529632 -72.31121295 148.00386424 -86.7734375 135.01953125 C-87.58296875 134.3028125 -88.3925 133.58609375 -89.2265625 132.84765625 C-96.15369195 126.34550407 -100.99936379 119.14623988 -105.7734375 111.01953125 C-106.20527344 110.31183594 -106.63710938 109.60414062 -107.08203125 108.875 C-116.87346371 91.38757782 -118.09603776 64.24922845 -113.2734375 45.20703125 C-105.98179995 21.38083531 -90.96917917 3.61558065 -69.33203125 -8.328125 C-46.37838874 -19.44563509 -20.13196647 -14.37592536 0 0 Z " fill="#5765EC" transform="translate(864.7734375,921.98046875)"/>
<path d="M0 0 C3.52028229 2.47914463 6.78430755 5.13918023 10 8 C11.03060547 8.88945313 11.03060547 8.88945313 12.08203125 9.796875 C25.36678842 22.05972777 35.14411203 42.06150843 36.17700195 60.08935547 C36.71331094 88.77654432 36.71331094 88.77654432 32 102 C31.71125 102.8971875 31.4225 103.794375 31.125 104.71875 C27.00863186 116.33278867 19.62577382 126.34443076 11 135 C9.98873047 136.04607422 9.98873047 136.04607422 8.95703125 137.11328125 C-4.56629703 150.17991177 -22.31567892 155.66196801 -40.79418945 155.40063477 C-57.50285915 154.82037216 -71.65436113 148.13485818 -84 137 C-84.68449219 136.40832031 -85.36898438 135.81664062 -86.07421875 135.20703125 C-92.36532251 129.41031679 -96.64972991 122.28870028 -101 115 C-101.53439697 114.12287354 -101.53439697 114.12287354 -102.07958984 113.22802734 C-104.29947071 109.49529303 -105.88259575 105.90526799 -107.125 101.75 C-107.59292969 100.22632813 -107.59292969 100.22632813 -108.0703125 98.671875 C-110.30514292 89.84523386 -111.36364944 81.41858273 -111.3125 72.3125 C-111.30758545 71.26739258 -111.3026709 70.22228516 -111.29760742 69.14550781 C-110.93957165 45.28380074 -102.12886624 24.69190537 -85 8 C-61.45027957 -13.98774917 -27.20956216 -17.13194655 0 0 Z " fill="#5765EC" transform="translate(1134,919)"/>
</svg>
