<svg xmlns="http://www.w3.org/2000/svg" xmlns:xlink="http://www.w3.org/1999/xlink" width="40" zoomAndPan="magnify" viewBox="0 0 30 30.000001" height="40" preserveAspectRatio="xMidYMid meet" version="1.0"><defs><clipPath id="13054f7407"><path d="M 3.386719 2.902344 L 26.613281 2.902344 L 26.613281 26.128906 L 3.386719 26.128906 Z M 3.386719 2.902344 " clip-rule="nonzero"/></clipPath></defs><g clip-path="url(#13054f7407)"><path fill="#000000" d="M 20.976562 26.128906 L 9.085938 26.128906 C 5.945312 26.128906 3.417969 23.601562 3.417969 20.460938 L 3.417969 8.570312 C 3.417969 5.429688 5.945312 2.902344 9.085938 2.902344 L 20.914062 2.902344 C 24.054688 2.902344 26.582031 5.429688 26.582031 8.570312 L 26.582031 20.398438 C 26.582031 23.542969 24.054688 26.066406 20.914062 26.066406 Z M 9.085938 4.75 C 6.992188 4.75 5.265625 6.476562 5.265625 8.570312 L 5.265625 20.398438 C 5.265625 22.496094 6.992188 24.21875 9.085938 24.21875 L 20.914062 24.21875 C 23.007812 24.21875 24.734375 22.496094 24.734375 20.398438 L 24.734375 8.570312 C 24.734375 6.476562 23.007812 4.75 20.914062 4.75 Z M 9.085938 4.75 " fill-opacity="1" fill-rule="nonzero"/></g><path fill="#000000" d="M 15.0625 22 C 10.996094 22 7.730469 18.734375 7.730469 14.671875 C 7.730469 10.605469 10.996094 7.339844 15.0625 7.339844 C 19.128906 7.339844 22.394531 10.605469 22.394531 14.671875 C 22.394531 18.734375 19.128906 22 15.0625 22 Z M 15.0625 9.125 C 11.980469 9.125 9.515625 11.589844 9.515625 14.671875 C 9.515625 17.75 11.980469 20.214844 15.0625 20.214844 C 18.140625 20.214844 20.605469 17.75 20.605469 14.671875 C 20.605469 11.589844 18.140625 9.125 15.0625 9.125 Z M 15.0625 9.125 " fill-opacity="1" fill-rule="nonzero"/><path fill="#000000" d="M 15.0625 17.996094 C 13.214844 17.996094 11.734375 16.519531 11.734375 14.671875 C 11.734375 12.820312 13.214844 11.34375 15.0625 11.34375 C 16.910156 11.34375 18.386719 12.820312 18.386719 14.671875 C 18.386719 16.519531 16.910156 17.996094 15.0625 17.996094 Z M 15.0625 13.191406 C 14.261719 13.191406 13.582031 13.871094 13.582031 14.671875 C 13.582031 15.472656 14.261719 16.148438 15.0625 16.148438 C 15.863281 16.148438 16.539062 15.472656 16.539062 14.671875 C 16.539062 13.871094 15.863281 13.191406 15.0625 13.191406 Z M 15.0625 13.191406 " fill-opacity="1" fill-rule="nonzero"/><path fill="#000000" d="M 23.007812 7.769531 C 23.007812 7.933594 22.976562 8.089844 22.914062 8.242188 C 22.851562 8.394531 22.761719 8.527344 22.648438 8.640625 C 22.53125 8.757812 22.398438 8.847656 22.25 8.910156 C 22.097656 8.972656 21.941406 9.003906 21.777344 9.003906 C 21.613281 9.003906 21.457031 8.972656 21.304688 8.910156 C 21.152344 8.847656 21.019531 8.757812 20.90625 8.640625 C 20.789062 8.527344 20.699219 8.394531 20.636719 8.242188 C 20.574219 8.089844 20.542969 7.933594 20.542969 7.769531 C 20.542969 7.605469 20.574219 7.449219 20.636719 7.296875 C 20.699219 7.148438 20.789062 7.015625 20.90625 6.898438 C 21.019531 6.785156 21.152344 6.695312 21.304688 6.632812 C 21.457031 6.570312 21.613281 6.539062 21.777344 6.539062 C 21.941406 6.539062 22.097656 6.570312 22.25 6.632812 C 22.398438 6.695312 22.53125 6.785156 22.648438 6.898438 C 22.761719 7.015625 22.851562 7.148438 22.914062 7.296875 C 22.976562 7.449219 23.007812 7.605469 23.007812 7.769531 Z M 23.007812 7.769531 " fill-opacity="1" fill-rule="nonzero"/></svg>