<?xml version="1.0" encoding="UTF-8"?>
<svg version="1.1" xmlns="http://www.w3.org/2000/svg" width="5000" height="5000">
<path d="M0 0 C4.78297391 0.00460717 9.56569197 -0.00222384 14.34863281 -0.02050781 C118.11507402 -0.41292677 222.06238234 10.49314817 620.15209961 129.31567383 C621.61993896 129.97744629 621.61993896 129.97744629 623.11743164 130.65258789 C658.79139981 146.76640173 694.44716484 163.66947884 728.57641602 182.87182617 C731.38870689 184.44830847 734.21301022 186.00184075 737.03881836 187.55395508 C751.92777558 195.76579667 766.46426244 204.48187215 780.95629883 213.3659668 C784.65507029 215.62252821 788.37338902 217.84438488 792.09790039 220.05810547 C810.10989564 230.77297983 827.5989962 242.21561555 844.96459961 253.94067383 C845.7397995 254.46366058 846.51499939 254.98664734 847.31369019 255.52548218 C858.35895512 262.98438853 869.29299469 270.58848202 880.15209961 278.31567383 C881.03679932 278.9436084 881.92149902 279.57154297 882.83300781 280.21850586 C895.14594521 288.98093469 907.16840165 298.11022084 919.15209961 307.31567383 C920.39409232 308.26644917 921.63625712 309.21699979 922.87866211 310.16723633 C925.97762098 312.53999865 929.06694458 314.92497802 932.15209961 317.31567383 C932.68786621 317.73059082 933.22363281 318.14550781 933.77563477 318.57299805 C946.64759626 328.55954168 959.21219102 338.9211337 971.61669922 349.48144531 C974.96589572 352.32876316 978.35776874 355.11566358 981.77709961 357.87817383 C986.53730014 361.75146655 991.08014745 365.82327375 995.59741211 369.97583008 C997.77907775 371.97402231 999.9822127 373.93716272 1002.21459961 375.87817383 C1006.0498933 379.21355144 1009.82880979 382.60875814 1013.60131836 386.01489258 C1015.22537298 387.47977492 1016.85263746 388.94111214 1018.48413086 390.39770508 C1028.29752823 399.16954783 1038.04019243 408.05709048 1047.2592926 417.45530701 C1049.08656776 419.25126511 1050.97128528 420.92387946 1052.91748047 422.58935547 C1056.92735483 426.07691131 1060.71797496 429.7363888 1064.46850586 433.49926758 C1065.12866196 434.15846695 1065.78881805 434.81766632 1066.46897888 435.49684143 C1067.85245467 436.87964218 1069.23469044 438.26368458 1070.61572266 439.64892578 C1072.7094163 441.74797726 1074.80839835 443.84163323 1076.90795898 445.93481445 C1078.26179532 447.28931169 1079.61532136 448.64411914 1080.96850586 449.99926758 C1081.58536758 450.61410507 1082.20222931 451.22894257 1082.83778381 451.8624115 C1086.5827161 455.6272071 1090.13632116 459.50998351 1093.59568787 463.53907776 C1095.83375527 466.09376278 1098.22181829 468.4425756 1100.65209961 470.81567383 C1104.28983532 474.40489002 1107.76079945 478.06896856 1111.07788086 481.95629883 C1114.02844267 485.31249343 1117.09410707 488.55749578 1120.15209961 491.81567383 C1124.91754959 496.90265411 1129.62796392 502.01151475 1134.15209961 507.31567383 C1135.02687233 508.33670193 1135.9018966 509.35751454 1136.77709961 510.37817383 C1138.2928865 512.14613002 1139.80816988 513.9145035 1141.32177734 515.68432617 C1144.58825715 519.50171143 1147.87453677 523.30100706 1151.17407227 527.08984375 C1156.95839651 533.73477912 1162.61169036 540.46496295 1168.15209961 547.31567383 C1169.58892485 549.06622788 1171.02644134 550.81621476 1172.46459961 552.56567383 C1181.02328047 563.0329107 1189.4530293 573.59495401 1197.65014648 584.34838867 C1199.42269372 586.67010285 1201.20165102 588.98685444 1202.98022461 591.30395508 C1209.69432025 600.06523447 1216.35823117 608.84276614 1222.71069336 617.87036133 C1224.40283408 620.27313223 1226.1269417 622.64841532 1227.87475586 625.01098633 C1237.81036506 638.48939868 1247.00196312 652.45866298 1256.24137878 666.41790771 C1258.86353815 670.37826871 1261.49836037 674.32948259 1264.15209961 678.26879883 C1289.71149315 716.2184801 1312.6180379 755.96649759 1334.15209961 796.31567383 C1334.61874023 797.1896582 1335.08538086 798.06364258 1335.56616211 798.96411133 C1351.83375015 829.54717685 1367.22369017 860.59755106 1381.15209961 892.31567383 C1381.60815582 893.35153625 1381.60815582 893.35153625 1382.07342529 894.4083252 C1421.70598181 984.47405631 1452.98272072 1078.53763603 1481.15209961 1210.31567383 C1481.33301147 1211.24534973 1481.51392334 1212.17502563 1481.70031738 1213.13287354 C1501.27078864 1314.08053689 1509.97898368 1416.61376293 1469.15209961 1846.31567383 C1468.81145477 1847.75656372 1468.81145477 1847.75656372 1468.46392822 1849.2265625 C1445.28482106 1946.93672376 1412.29731581 2042.32821292 1368.15209961 2136.31567383 C1367.70108887 2137.27554199 1367.25007813 2138.23541016 1366.78540039 2139.22436523 C1353.82458993 2166.72794672 1340.50799582 2194.23609246 1325.59594727 2220.73999023 C1324.01946497 2223.55228111 1322.46593268 2226.37658444 1320.91381836 2229.20239258 C1312.70197676 2244.09134979 1303.98590129 2258.62783665 1295.10180664 2273.11987305 C1292.84524523 2276.8186445 1290.62338856 2280.53696324 1288.40966797 2284.26147461 C1277.69479361 2302.27346986 1266.25215789 2319.76257041 1254.52709961 2337.12817383 C1254.00411285 2337.90337372 1253.4811261 2338.67857361 1252.94229126 2339.4772644 C1245.48338491 2350.52252934 1237.87929142 2361.45656891 1230.15209961 2372.31567383 C1229.52416504 2373.20037354 1228.89623047 2374.08507324 1228.24926758 2374.99658203 C1219.48683875 2387.30951943 1210.3575526 2399.33197587 1201.15209961 2411.31567383 C1200.20132427 2412.55766654 1199.25077365 2413.79983134 1198.30053711 2415.04223633 C1195.92777479 2418.1411952 1193.54279542 2421.2305188 1191.15209961 2424.31567383 C1190.73718262 2424.85144043 1190.32226562 2425.38720703 1189.89477539 2425.93920898 C1179.90823175 2438.81117048 1169.54663974 2451.37576524 1158.98632812 2463.78027344 C1156.13901027 2467.12946994 1153.35210986 2470.52134296 1150.58959961 2473.94067383 C1146.71630689 2478.70087436 1142.64449969 2483.24372166 1138.49194336 2487.76098633 C1136.49375112 2489.94265197 1134.53061072 2492.14578691 1132.58959961 2494.37817383 C1129.254222 2498.21346752 1125.8590153 2501.99238401 1122.45288086 2505.76489258 C1120.98799851 2507.3889472 1119.5266613 2509.01621168 1118.07006836 2510.64770508 C1109.2982256 2520.46110245 1100.41068296 2530.20376665 1091.01246643 2539.42286682 C1089.21650833 2541.25014198 1087.54389398 2543.1348595 1085.87841797 2545.08105469 C1082.39086212 2549.09092905 1078.73138464 2552.88154918 1074.96850586 2556.63208008 C1074.30930649 2557.29223618 1073.65010712 2557.95239227 1072.97093201 2558.6325531 C1071.58813126 2560.01602889 1070.20408885 2561.39826466 1068.81884766 2562.77929688 C1066.71979618 2564.87299052 1064.62614021 2566.97197257 1062.53295898 2569.0715332 C1061.17846175 2570.42536954 1059.8236543 2571.77889558 1058.46850586 2573.13208008 C1057.85366837 2573.7489418 1057.23883087 2574.36580353 1056.60536194 2575.00135803 C1052.84056634 2578.74629032 1048.95778993 2582.29989538 1044.92869568 2585.75926208 C1042.37401066 2587.99732949 1040.02519784 2590.38539251 1037.65209961 2592.81567383 C1034.06288342 2596.45340954 1030.39880488 2599.92437367 1026.51147461 2603.24145508 C1023.15528001 2606.19201689 1019.91027766 2609.25768129 1016.65209961 2612.31567383 C1011.56511933 2617.08112381 1006.45625869 2621.79153814 1001.15209961 2626.31567383 C1000.13107151 2627.19044655 999.1102589 2628.06547082 998.08959961 2628.94067383 C996.32164342 2630.45646072 994.55326993 2631.9717441 992.78344727 2633.48535156 C988.96606201 2636.75183137 985.16676638 2640.03811099 981.37792969 2643.33764648 C974.73299432 2649.12197073 968.00281049 2654.77526458 961.15209961 2660.31567383 C959.40154556 2661.75249907 957.65155868 2663.19001556 955.90209961 2664.62817383 C945.43486274 2673.18685469 934.87281943 2681.61660352 924.11938477 2689.8137207 C921.79767059 2691.58626794 919.480919 2693.36522524 917.16381836 2695.14379883 C908.40253897 2701.85789447 899.6250073 2708.52180539 890.59741211 2714.87426758 C888.19464121 2716.5664083 885.81935812 2718.29051592 883.45678711 2720.03833008 C869.97837476 2729.97393928 856.00911046 2739.16553734 842.04986572 2748.404953 C838.08950473 2751.02711237 834.13829085 2753.66193459 830.19897461 2756.31567383 C792.24929334 2781.87506737 752.50127585 2804.78161212 712.15209961 2826.31567383 C711.27811523 2826.78231445 710.40413086 2827.24895508 709.50366211 2827.72973633 C678.92059659 2843.99732437 647.87022237 2859.38726439 616.15209961 2873.31567383 C615.11623718 2873.77173004 615.11623718 2873.77173004 614.05944824 2874.23699951 C525.77400015 2913.08615965 433.72921245 2943.73050325 308.15209961 2971.31567383 C307.29505432 2971.48927429 306.43800903 2971.66287476 305.55499268 2971.84173584 C218.25552615 2989.47241415 128.57600002 3000.36614658 39.43725586 3000.51879883 C38.29043272 3000.52162621 37.14360958 3000.52445358 35.96203423 3000.52736664 C29.86205709 3000.54224769 23.76210281 3000.55154024 17.66210938 3000.5559082 C12.756107 3000.56023894 7.85028585 3000.57393429 2.94433594 3000.59692383 C-98.60538134 3001.06266496 -199.40069193 2990.17238023 -324.84790039 2964.31567383 C-325.64701843 2964.13796448 -326.44613647 2963.96025513 -327.26947021 2963.77716064 C-372.73948588 2953.62635509 -417.63351181 2940.98387197 -461.84790039 2926.31567383 C-462.6890741 2926.03743774 -463.5302478 2925.75920166 -464.39691162 2925.47253418 C-514.97592937 2908.73037142 -564.37376794 2889.2196371 -612.887146 2867.20391846 C-614.70858393 2866.37878581 -616.53230121 2865.5586898 -618.35620117 2864.73901367 C-634.84792454 2857.3200727 -651.04086491 2849.32025273 -667.22290039 2841.25317383 C-668.23066528 2840.75197021 -669.23843018 2840.2507666 -670.2767334 2839.734375 C-683.84922382 2832.97552157 -697.23914737 2825.94271391 -710.50872803 2818.60714722 C-712.55292613 2817.47853117 -714.60043244 2816.35650663 -716.65112305 2815.23974609 C-732.95600068 2806.35869296 -748.86867762 2796.96502091 -764.68432617 2787.24926758 C-768.36970202 2784.99674584 -772.07622923 2782.78188655 -775.78930664 2780.57543945 C-793.80398893 2769.86205296 -811.29356455 2758.41656423 -828.66040039 2746.69067383 C-829.43560028 2746.16768707 -830.21080017 2745.64470032 -831.00949097 2745.10586548 C-842.0547559 2737.64695913 -852.98879547 2730.04286564 -863.84790039 2722.31567383 C-864.7326001 2721.68773926 -865.6172998 2721.05980469 -866.52880859 2720.4128418 C-878.84174599 2711.65041296 -890.86420243 2702.52112682 -902.84790039 2693.31567383 C-904.0898931 2692.36489849 -905.3320579 2691.41434787 -906.57446289 2690.46411133 C-909.67342176 2688.09134901 -912.76274537 2685.70636964 -915.84790039 2683.31567383 C-916.38366699 2682.90075684 -916.91943359 2682.48583984 -917.47143555 2682.05834961 C-930.34339704 2672.07180597 -942.9079918 2661.71021396 -955.3125 2651.14990234 C-958.6616965 2648.30258449 -962.05356952 2645.51568408 -965.47290039 2642.75317383 C-970.23310092 2638.87988111 -974.77594823 2634.80807391 -979.29321289 2630.65551758 C-981.47487854 2628.65732534 -983.67801348 2626.69418494 -985.91040039 2624.75317383 C-989.74569408 2621.41779622 -993.52461058 2618.02258952 -997.29711914 2614.61645508 C-998.92117376 2613.15157273 -1000.54843824 2611.69023551 -1002.17993164 2610.23364258 C-1011.99332901 2601.46179982 -1021.73599321 2592.57425717 -1030.95509338 2583.17604065 C-1032.78236854 2581.38008255 -1034.66708606 2579.7074682 -1036.61328125 2578.04199219 C-1040.62315561 2574.55443634 -1044.41377574 2570.89495886 -1048.16430664 2567.13208008 C-1048.82446274 2566.47288071 -1049.48461884 2565.81368134 -1050.16477966 2565.13450623 C-1051.54825545 2563.75170548 -1052.93049122 2562.36766307 -1054.31152344 2560.98242188 C-1056.40521708 2558.8833704 -1058.50419913 2556.78971443 -1060.60375977 2554.6965332 C-1061.9575961 2553.34203597 -1063.31112214 2551.98722851 -1064.66430664 2550.63208008 C-1065.28116837 2550.01724258 -1065.89803009 2549.40240509 -1066.53358459 2548.76893616 C-1070.27851688 2545.00414056 -1073.83212194 2541.12136415 -1077.29148865 2537.0922699 C-1079.52955606 2534.53758488 -1081.91761907 2532.18877206 -1084.34790039 2529.81567383 C-1087.9856361 2526.22645764 -1091.45660023 2522.5623791 -1094.77368164 2518.67504883 C-1097.72424345 2515.31885423 -1100.78990785 2512.07385188 -1103.84790039 2508.81567383 C-1108.61335037 2503.72869355 -1113.32376471 2498.61983291 -1117.84790039 2493.31567383 C-1118.72267311 2492.29464573 -1119.59769738 2491.27383312 -1120.47290039 2490.25317383 C-1121.98868728 2488.48521763 -1123.50397066 2486.71684415 -1125.01757812 2484.94702148 C-1128.28405793 2481.12963623 -1131.57033755 2477.3303406 -1134.86987305 2473.54150391 C-1140.65423031 2466.89653061 -1146.30628686 2460.16543777 -1151.84790039 2453.31567383 C-1153.30586471 2451.54453667 -1154.76420575 2449.77370955 -1156.22290039 2448.00317383 C-1161.05555128 2442.09660051 -1165.76239363 2436.09516558 -1170.46264648 2430.08325195 C-1171.78042036 2428.40177806 -1173.10385855 2426.72498192 -1174.42993164 2425.05004883 C-1185.39290185 2411.1906532 -1196.23608597 2397.21521138 -1206.40649414 2382.76098633 C-1208.09863486 2380.35821543 -1209.82274248 2377.98293234 -1211.57055664 2375.62036133 C-1221.50616584 2362.14194898 -1230.6977639 2348.17268468 -1239.93717957 2334.21343994 C-1242.55933893 2330.25307895 -1245.19416115 2326.30186507 -1247.84790039 2322.36254883 C-1278.65877304 2276.61565759 -1305.78113102 2228.3423135 -1330.85772705 2179.25311279 C-1331.53401176 2177.92984918 -1332.21109001 2176.60699091 -1332.88885498 2175.28448486 C-1343.64318241 2154.29970078 -1353.73298617 2133.11914022 -1363.14219666 2111.49740601 C-1365.02801883 2107.16877011 -1366.95122551 2102.86003491 -1368.91430664 2098.56567383 C-1410.6092776 2007.168834 -1440.39232561 1908.98498246 -1462.84790039 1800.31567383 C-1463.02150085 1799.45862854 -1463.19510132 1798.60158325 -1463.3739624 1797.71856689 C-1476.51049217 1732.67217332 -1485.09761211 1666.83023877 -1489.53540039 1600.62817383 C-1489.62680801 1599.26628937 -1489.62680801 1599.26628937 -1489.72006226 1597.87689209 C-1491.18625037 1575.75215633 -1492.01295931 1553.67730494 -1492.05102539 1531.50317383 C-1492.05385277 1530.35726776 -1492.05668015 1529.21136169 -1492.0595932 1528.0307312 C-1492.07446474 1521.93723333 -1492.08376358 1515.8437583 -1492.08813477 1509.75024414 C-1492.09246733 1504.85107767 -1492.10617159 1499.9520925 -1492.12915039 1495.05297852 C-1492.3341507 1450.37195548 -1490.83511491 1405.80630987 -1486.53540039 1361.31567383 C-1486.38007843 1359.65958099 -1486.38007843 1359.65958099 -1486.22161865 1357.97003174 C-1484.00140979 1334.34402755 -1481.17774313 1310.81001839 -1477.84790039 1287.31567383 C-1477.65290955 1285.93590363 -1477.65290955 1285.93590363 -1477.45397949 1284.52825928 C-1471.16244554 1240.22545555 -1462.75974695 1196.22522284 -1452.41247559 1152.69116211 C-1452.03616163 1151.10779569 -1451.66107956 1149.52413599 -1451.28723145 1147.94018555 C-1430.4208454 1059.5382143 -1400.82284853 973.19143227 -1363.73419189 890.30114746 C-1362.85179266 888.32439331 -1361.97482851 886.34531312 -1361.09936523 884.36547852 C-1352.4470519 864.8216043 -1343.14599227 845.62456842 -1333.59790039 826.50317383 C-1333.05435913 825.4125061 -1332.51081787 824.32183838 -1331.95080566 823.19812012 C-1324.95550373 809.18267461 -1317.70879123 795.33633426 -1310.12628174 781.62966919 C-1309.00279609 779.5960502 -1307.88627526 777.55894277 -1306.77514648 775.51855469 C-1297.89357511 759.21134742 -1288.49844063 743.29683887 -1278.78149414 727.47924805 C-1276.5289724 723.7938722 -1274.31411311 720.08734499 -1272.10766602 716.37426758 C-1261.39427952 698.35958529 -1249.94879079 680.87000967 -1238.22290039 663.50317383 C-1237.69991364 662.72797394 -1237.17692688 661.95277405 -1236.63809204 661.15408325 C-1229.17918569 650.10881832 -1221.5750922 639.17477874 -1213.84790039 628.31567383 C-1212.90599854 626.98862427 -1212.90599854 626.98862427 -1211.94506836 625.63476562 C-1203.18263953 613.32182823 -1194.05335338 601.29937179 -1184.84790039 589.31567383 C-1183.89712505 588.07368112 -1182.94657443 586.83151632 -1181.99633789 585.58911133 C-1179.62357557 582.49015246 -1177.2385962 579.40082885 -1174.84790039 576.31567383 C-1174.4329834 575.77990723 -1174.01806641 575.24414062 -1173.59057617 574.69213867 C-1163.60403254 561.82017717 -1153.24244052 549.25558241 -1142.68212891 536.85107422 C-1139.83481105 533.50187772 -1137.04791064 530.1100047 -1134.28540039 526.69067383 C-1130.41210767 521.9304733 -1126.34030047 517.38762599 -1122.18774414 512.87036133 C-1120.18955191 510.68869568 -1118.2264115 508.48556074 -1116.28540039 506.25317383 C-1112.95002278 502.41788013 -1109.55481608 498.63896364 -1106.14868164 494.86645508 C-1104.68379929 493.24240046 -1103.22246208 491.61513598 -1101.76586914 489.98364258 C-1092.99402639 480.17024521 -1084.10648374 470.42758101 -1074.70826721 461.20848083 C-1072.91230911 459.38120567 -1071.23969476 457.49648816 -1069.57421875 455.55029297 C-1066.0866629 451.54041861 -1062.42718542 447.74979848 -1058.66430664 443.99926758 C-1058.00510727 443.33911148 -1057.3459079 442.67895538 -1056.66673279 441.99879456 C-1055.28393204 440.61531877 -1053.89988964 439.233083 -1052.51464844 437.85205078 C-1050.41559696 435.75835714 -1048.32194099 433.65937508 -1046.22875977 431.55981445 C-1044.87426253 430.20597812 -1043.51945508 428.85245208 -1042.16430664 427.49926758 C-1041.54946915 426.88240585 -1040.93463165 426.26554413 -1040.30116272 425.62998962 C-1036.53636712 421.88505734 -1032.65359071 418.33145228 -1028.62449646 414.87208557 C-1026.06981144 412.63401816 -1023.72099862 410.24595515 -1021.34790039 407.81567383 C-1017.7586842 404.17793812 -1014.09460566 400.70697399 -1010.20727539 397.38989258 C-1006.85108079 394.43933077 -1003.60607844 391.37366637 -1000.34790039 388.31567383 C-995.26092011 383.55022385 -990.15205947 378.83980951 -984.84790039 374.31567383 C-983.82687229 373.44090111 -982.80605968 372.56587684 -981.78540039 371.69067383 C-980.0174442 370.17488693 -978.24907072 368.65960356 -976.47924805 367.14599609 C-972.66186279 363.87951629 -968.86256716 360.59323667 -965.07373047 357.29370117 C-958.42875717 351.50934391 -951.69766433 345.85728736 -944.84790039 340.31567383 C-943.07676323 338.85770951 -941.30593611 337.39936847 -939.53540039 335.94067383 C-933.62882708 331.10802293 -927.62739214 326.40118059 -921.61547852 321.70092773 C-919.93400462 320.38315386 -918.25720848 319.05971567 -916.58227539 317.73364258 C-902.72287977 306.77067237 -888.74743795 295.92748825 -874.29321289 285.75708008 C-871.89044199 284.06493936 -869.5151589 282.34083174 -867.15258789 280.59301758 C-853.67417554 270.65740838 -839.70491124 261.46581032 -825.7456665 252.22639465 C-821.78530551 249.60423529 -817.83409163 246.96941307 -813.89477539 244.31567383 C-768.14788415 213.50480118 -719.87454006 186.38244319 -670.78533936 161.30584717 C-669.46207575 160.62956246 -668.13921747 159.95248421 -666.81671143 159.27471924 C-645.83192734 148.52039181 -624.65136679 138.43058805 -603.02963257 129.02137756 C-598.70099667 127.13555539 -594.39226147 125.21234871 -590.09790039 123.24926758 C-497.81475771 81.14996785 -398.77635947 51.51936049 -112.53540039 4.12817383 C-111.58506927 4.04917847 -110.63473816 3.97018311 -109.65560913 3.88879395 C-102.3908079 3.29221319 -95.12205928 2.78372677 -87.84790039 2.31567383 C-87.18736538 2.27241848 -86.52683037 2.22916313 -85.84627914 2.18459702 C-57.23415844 0.32157353 -28.66701054 -0.02986411 0 0 Z " fill="#BF556B" transform="translate(2491.847900390625,999.684326171875)"/>
<path d="M0 0 C4.45233666 0.00776925 8.90464497 -0.00223101 13.35697731 -0.00973 C21.12252888 -0.02045579 28.88801765 -0.02030473 36.65357193 -0.01258852 C48.20207467 -0.0011451 59.75052534 -0.00709154 71.29902783 -0.01621344 C91.93594602 -0.03193969 112.5728362 -0.03066995 133.209757 -0.0219767 C151.27031884 -0.01440682 169.33087046 -0.01247071 187.39143357 -0.01604463 C188.59305657 -0.01627379 189.79467957 -0.01650294 191.0327154 -0.01673904 C195.91144657 -0.01767318 200.79017775 -0.01862839 205.66890892 -0.01961833 C251.36263179 -0.02877933 297.05633691 -0.0205004 342.75005704 -0.00432764 C383.27703012 0.00990738 423.8039749 0.00863343 464.33094773 -0.00571062 C509.94525382 -0.0218016 555.55954424 -0.02812943 601.17385277 -0.01887383 C606.04329539 -0.01791179 610.91273801 -0.01697326 615.78218064 -0.01604463 C617.58043137 -0.01568879 617.58043137 -0.01568879 619.41501041 -0.01532575 C637.45679771 -0.0119245 655.49857363 -0.01588324 673.54035935 -0.02348329 C694.07067393 -0.03208892 714.60095632 -0.02985749 735.13126692 -0.01364106 C746.59761336 -0.0048809 758.06388994 -0.00418609 769.53023445 -0.01557958 C777.2155758 -0.02236887 784.90086183 -0.01800956 792.58619506 -0.00506528 C796.94726086 0.00198454 801.30818924 0.00469655 805.6692501 -0.00628323 C892.89437772 -0.20926411 977.5530917 20.2587543 1055.5868071 59.38540266 C1056.41793015 59.79967512 1057.2490532 60.21394758 1058.10536179 60.64077376 C1093.40943169 78.35075548 1126.40159656 100.966278 1156.5868071 126.38540266 C1157.61522556 127.23984308 1158.64388505 128.09399344 1159.6727446 128.94790266 C1172.49918036 139.64241783 1184.51457887 151.12643683 1196.31776413 162.93105696 C1198.34345466 164.95454298 1200.37706046 166.969848 1202.41102585 168.98501204 C1208.88183825 175.42863697 1215.10271748 181.87269901 1220.73915085 189.07021712 C1222.67103048 191.49093785 1224.72067611 193.75001898 1226.8368071 196.01040266 C1232.65562235 202.40603959 1237.77644819 209.32557396 1242.96229538 216.23452376 C1244.45499622 218.210883 1245.96702682 220.16995176 1247.48915085 222.12368391 C1272.54399205 254.50503102 1293.38457987 291.26350047 1309.49501023 328.83950423 C1310.25306891 330.60717773 1311.01788033 332.37196456 1311.78797898 334.1344261 C1318.2802887 349.0079937 1323.69768606 364.08265081 1328.65858445 379.53042219 C1329.41506701 381.85717314 1330.1959645 384.16916776 1331.01258835 386.47524641 C1342.19737146 418.28083487 1348.68803905 452.72687028 1352.34449876 486.20200224 C1352.50379372 487.63738284 1352.66890706 489.07213183 1352.84034263 490.50611307 C1354.92737625 508.17036606 1354.87549175 525.82071561 1354.84994357 543.5759757 C1354.84572786 548.06192919 1354.85320064 552.54786703 1354.85909608 557.03381656 C1354.86781507 564.87699509 1354.8691856 572.72014751 1354.86559281 580.56332968 C1354.86026396 592.22746508 1354.86640305 603.89157539 1354.87467574 615.55570807 C1354.88988607 637.60645883 1354.89162377 659.65719808 1354.88915271 681.70795299 C1354.88731707 698.74422882 1354.88908535 715.7805009 1354.89337716 732.81677626 C1354.89397957 735.26803401 1354.89458077 737.71929176 1354.89518076 740.17054951 C1354.89608806 743.86482364 1354.89699673 747.55909777 1354.89791311 751.25337189 C1354.90633854 785.58650967 1354.91068127 819.91964604 1354.90650639 854.25278471 C1354.90635001 855.5461091 1354.90619364 856.83943349 1354.90603252 858.17194953 C1354.90522679 864.72636744 1354.90438102 871.28078534 1354.90351922 877.83520324 C1354.90334813 879.13682502 1354.90317705 880.4384468 1354.90300077 881.77951167 C1354.90265412 884.41170691 1354.90230559 887.04390214 1354.90195519 889.67609738 C1354.89660092 930.61062043 1354.90452171 971.54512192 1354.92298874 1012.47964094 C1354.94373518 1058.52015464 1354.95442625 1104.56065499 1354.95041326 1150.60117362 C1354.95001794 1155.51686237 1354.94965639 1160.43255113 1354.94931588 1165.34823988 C1354.94917978 1167.16365071 1354.94917978 1167.16365071 1354.94904093 1169.01573649 C1354.94787804 1187.23576341 1354.95449986 1205.45577678 1354.9651278 1223.67580031 C1354.97721428 1244.41684083 1354.97869935 1265.15785166 1354.96633763 1285.89889265 C1354.95974003 1297.48515574 1354.96126791 1309.07134768 1354.97492614 1320.65760498 C1354.98323576 1328.42330144 1354.98038964 1336.18894521 1354.96895088 1343.95463747 C1354.96275807 1348.36181255 1354.9609249 1352.76884997 1354.97281421 1357.17601652 C1355.16448778 1433.58185228 1340.02331152 1509.59593919 1308.5868071 1579.38540266 C1308.07504929 1580.53089583 1307.56329148 1581.67638899 1307.03602585 1582.85659407 C1299.90338874 1598.75968491 1292.28219881 1614.27712359 1283.5868071 1629.38540266 C1283.10389206 1630.22474348 1282.62097702 1631.0640843 1282.1234282 1631.92885969 C1264.69307389 1661.99985825 1244.4074329 1690.19384196 1221.5868071 1716.38540266 C1220.92809616 1717.14594954 1220.26938523 1717.90649641 1219.59071335 1718.69009016 C1217.93242813 1720.59730965 1216.26022583 1722.49145412 1214.5868071 1724.38540266 C1214.00511765 1725.05192854 1213.4234282 1725.71845442 1212.82411179 1726.40517805 C1206.33785528 1733.74135237 1199.46313545 1740.66153382 1192.52992234 1747.57265852 C1190.52102846 1749.57617253 1188.51756321 1751.58500418 1186.51454148 1753.59438704 C1180.3779313 1759.73451799 1174.2597972 1765.82175609 1167.5868071 1771.38540266 C1166.54174921 1772.28553136 1165.49744955 1773.18654128 1164.4539946 1774.08852766 C1128.54696554 1804.65169078 1089.12206198 1830.78595523 1046.67420945 1851.36831282 C1044.41566925 1852.46878983 1042.16771321 1853.58953605 1039.91883835 1854.70962141 C993.80867387 1877.4397299 943.23674442 1892.1550832 892.5868071 1900.38540266 C891.49771042 1900.56796614 890.40861374 1900.75052962 889.28651413 1900.93862532 C874.43397053 1903.42017922 859.61051761 1905.34294525 844.5868071 1906.38540266 C843.50229523 1906.46875327 842.41778336 1906.55210388 841.3004075 1906.63798027 C825.84062789 1907.67604194 810.3599451 1907.5299108 794.8737304 1907.52007158 C790.53385449 1907.51842422 786.19398327 1907.52259111 781.8541089 1907.52598075 C774.26132297 1907.53111337 766.66854341 1907.53255569 759.07575592 1907.53152464 C747.78409762 1907.52999509 736.49244634 1907.5341717 725.2007894 1907.53939927 C703.85522408 1907.54905566 682.50966116 1907.55188288 661.16409391 1907.55245632 C644.67355105 1907.55291644 628.18300914 1907.55497774 611.69246659 1907.55815695 C606.94008185 1907.55905454 602.1876971 1907.55994436 597.43531236 1907.56083183 C595.66295027 1907.5611634 595.66295027 1907.5611634 593.85478288 1907.56150167 C560.63121979 1907.56765355 527.40765702 1907.57160248 494.18409333 1907.57115839 C492.93220695 1907.57114281 491.68032057 1907.57112723 490.39049824 1907.57111118 C484.0459051 1907.57102808 477.70131197 1907.57092904 471.35671884 1907.57082648 C470.09673816 1907.57080653 468.83675748 1907.57078659 467.53859557 1907.57076604 C464.99060752 1907.5707256 462.44261948 1907.5706838 459.89463143 1907.57064064 C420.26988424 1907.57002817 380.6451456 1907.57753038 341.02040085 1907.59121321 C296.46540223 1907.60659229 251.91040924 1907.61517832 207.3554078 1907.61424999 C202.5992508 1907.61417536 197.8430938 1907.61412665 193.0869368 1907.61409567 C191.33040948 1907.61407819 191.33040948 1907.61407819 189.53839677 1907.61406035 C170.73850271 1907.61402965 151.93861612 1907.62040059 133.13872429 1907.62902794 C114.22457564 1907.63752783 95.31043784 1907.63847615 76.39628834 1907.63191861 C65.17803438 1907.62823839 53.95981354 1907.63000936 42.74156313 1907.63986095 C35.22613671 1907.6458998 27.71073404 1907.64452257 20.19530866 1907.63739046 C15.9277449 1907.63354155 11.66024477 1907.63263722 7.39268571 1907.64084781 C-44.84282194 1907.73463902 -97.04165337 1902.79662302 -147.3375093 1887.98550032 C-149.47490293 1887.36756177 -151.61920492 1886.78411518 -153.76866165 1886.20962141 C-162.06673956 1883.98513118 -170.25905264 1881.53057795 -178.4131929 1878.82290266 C-179.26115432 1878.54204817 -180.10911575 1878.26119368 -180.98277298 1877.97182844 C-186.05505072 1876.26202725 -191.03019239 1874.37987664 -195.98887649 1872.36513899 C-198.27350661 1871.44185393 -200.56733661 1870.55105974 -202.87022415 1869.67446516 C-211.19330108 1866.50072148 -219.38755726 1863.19955236 -227.42149368 1859.33852766 C-229.82878944 1858.18651949 -232.24417013 1857.05217213 -234.65928665 1855.91665266 C-277.41004837 1835.74595106 -317.20617752 1810.87552088 -353.4131929 1780.38540266 C-354.44161135 1779.53096225 -355.47027084 1778.67681188 -356.4991304 1777.82290266 C-369.37932012 1767.0837374 -381.41963768 1755.54650802 -393.25401321 1743.67495344 C-395.30332801 1741.62022759 -397.35800553 1739.57097163 -399.4131929 1737.52212141 C-400.74424315 1736.19041101 -402.07498351 1734.85839079 -403.4053804 1733.52602766 C-404.00655685 1732.92687544 -404.6077333 1732.32772322 -405.22712722 1731.71041487 C-409.48427851 1727.43005314 -413.47957218 1722.96342936 -417.4131929 1718.38540266 C-417.86275344 1717.86871519 -418.31231399 1717.35202772 -418.77549759 1716.81968306 C-426.16425142 1708.3194748 -433.0491238 1699.4835064 -439.82090774 1690.48794173 C-441.30159202 1688.53276648 -442.80054115 1686.59361847 -444.30772415 1684.65884016 C-469.54394579 1652.03049597 -490.15323863 1615.12788961 -506.54502884 1577.35952376 C-507.67898453 1574.7810182 -508.89147728 1572.24181854 -510.1006929 1569.69790266 C-512.03943151 1565.42812544 -513.6432396 1561.06755961 -515.1866304 1556.64321516 C-515.44710662 1555.90018645 -515.70758285 1555.15715773 -515.9759523 1554.39161299 C-538.63975104 1489.57140242 -551.97135811 1424.88843895 -551.79859556 1356.01839618 C-551.79083331 1351.55509733 -551.80082394 1347.09182694 -551.80832556 1342.62853239 C-551.81905621 1334.84221303 -551.8188972 1327.0559563 -551.81118408 1319.26963423 C-551.79974527 1307.69028757 -551.80568477 1296.11099288 -551.814809 1284.53164647 C-551.83053874 1263.8401512 -551.8292641 1243.14868385 -551.82057226 1222.45718597 C-551.81300358 1204.34890463 -551.81106571 1186.2406335 -551.81464019 1168.1323509 C-551.81486935 1166.92774134 -551.8150985 1165.72313178 -551.8153346 1164.4820189 C-551.81626873 1159.59121127 -551.81722394 1154.70040365 -551.8182139 1149.80959603 C-551.82737572 1103.99900895 -551.81909464 1058.18843957 -551.8029232 1012.37785522 C-551.78868808 971.7436428 -551.78996204 931.10945859 -551.80430618 890.47524641 C-551.82039576 844.74449479 -551.82672577 799.0137588 -551.81746939 753.28300474 C-551.81650734 748.40148797 -551.81556881 743.5199712 -551.81464019 738.63845442 C-551.81440296 737.43664037 -551.81416573 736.23482632 -551.81392131 734.99659367 C-551.81051948 716.90675062 -551.81447989 698.81691894 -551.82207885 680.72707747 C-551.83068288 660.14291131 -551.82845642 639.55877727 -551.81223662 618.97461508 C-551.8034738 607.47695857 -551.80278559 595.97937173 -551.81417515 584.48171714 C-551.82096116 576.77674631 -551.81661084 569.07183068 -551.80366084 561.36686796 C-551.79660662 556.99375294 -551.79390871 552.62077504 -551.80487879 548.24766491 C-551.86903844 520.64866333 -550.40441112 493.36109191 -545.9756929 466.07290266 C-545.7585561 464.69364298 -545.54176781 463.3143284 -545.32530227 461.93496321 C-543.77404055 452.15865233 -542.04703553 442.42782702 -539.9312593 432.75747298 C-539.37411535 430.20647831 -538.83766704 427.65148745 -538.29991165 425.09634016 C-535.63094947 412.66183011 -532.2356029 400.54878256 -528.38096634 388.43276594 C-527.35118199 385.19014025 -526.33877336 381.94236331 -525.3272554 378.69399641 C-524.62757503 376.46586773 -523.92707314 374.23799684 -523.2256929 372.01040266 C-522.90495803 370.98261702 -522.58422317 369.95483137 -522.25376907 368.89590071 C-520.55747951 363.56801937 -518.66884238 358.4639941 -516.32603469 353.38686751 C-515.05563628 350.60143659 -513.98467228 347.75233397 -512.9131929 344.88540266 C-510.94470453 339.61836621 -508.72928331 334.50584563 -506.4131929 329.38540266 C-505.97974563 328.42070051 -505.54629837 327.45599837 -505.09971634 326.46206282 C-478.70849697 267.97024546 -443.10324635 212.12543122 -397.01866165 167.02602766 C-395.24631353 165.214869 -393.61587574 163.31676403 -391.9756929 161.38540266 C-389.0536037 157.99473791 -385.91489049 155.11320715 -382.50303665 152.22524641 C-380.25687934 150.2477883 -378.18658943 148.15579 -376.1006929 146.01040266 C-372.02333246 141.87699603 -367.67409054 138.24412078 -363.14366165 134.61977766 C-360.60019121 132.5384256 -358.19362037 130.37338951 -355.7881929 128.13540266 C-349.43831025 122.36550929 -342.59513053 117.25969161 -335.73252884 112.12221907 C-334.18901359 110.96636986 -332.64798196 109.80719643 -331.10948196 108.64468001 C-300.25035127 85.3342476 -266.65990533 65.62422178 -231.6006929 49.32290266 C-230.4751802 48.79889876 -229.34966751 48.27489485 -228.19004837 47.73501204 C-221.64222415 44.73606781 -215.03499906 42.00644439 -208.29380813 39.47182844 C-205.60882466 38.4591853 -202.94642671 37.40349453 -200.2881929 36.32290266 C-196.13287049 34.65548029 -191.95411856 33.07844934 -187.73741165 31.57290266 C-185.21288321 30.67107347 -182.69717776 29.75200022 -180.18272415 28.82290266 C-122.80290542 7.87405248 -60.81091675 -0.15310274 0 0 Z " fill="#E23853" transform="translate(2098.413192898035,1546.6145973373204)"/>
<path d="M0 0 C4.45233666 0.00776925 8.90464497 -0.00223101 13.35697731 -0.00973 C21.12252888 -0.02045579 28.88801765 -0.02030473 36.65357193 -0.01258852 C48.20207467 -0.0011451 59.75052534 -0.00709154 71.29902783 -0.01621344 C91.93594602 -0.03193969 112.5728362 -0.03066995 133.209757 -0.0219767 C151.27031884 -0.01440682 169.33087046 -0.01247071 187.39143357 -0.01604463 C188.59305657 -0.01627379 189.79467957 -0.01650294 191.0327154 -0.01673904 C195.91144657 -0.01767318 200.79017775 -0.01862839 205.66890892 -0.01961833 C251.36263179 -0.02877933 297.05633691 -0.0205004 342.75005704 -0.00432764 C383.27703012 0.00990738 423.8039749 0.00863343 464.33094773 -0.00571062 C509.94525382 -0.0218016 555.55954424 -0.02812943 601.17385277 -0.01887383 C606.04329539 -0.01791179 610.91273801 -0.01697326 615.78218064 -0.01604463 C617.58043137 -0.01568879 617.58043137 -0.01568879 619.41501041 -0.01532575 C637.45679771 -0.0119245 655.49857363 -0.01588324 673.54035935 -0.02348329 C694.07067393 -0.03208892 714.60095632 -0.02985749 735.13126692 -0.01364106 C746.59761336 -0.0048809 758.06388994 -0.00418609 769.53023445 -0.01557958 C777.2155758 -0.02236887 784.90086183 -0.01800956 792.58619506 -0.00506528 C796.94726086 0.00198454 801.30818924 0.00469655 805.6692501 -0.00628323 C892.89437772 -0.20926411 977.5530917 20.2587543 1055.5868071 59.38540266 C1056.41793015 59.79967512 1057.2490532 60.21394758 1058.10536179 60.64077376 C1093.40943169 78.35075548 1126.40159656 100.966278 1156.5868071 126.38540266 C1157.61522556 127.23984308 1158.64388505 128.09399344 1159.6727446 128.94790266 C1172.49918036 139.64241783 1184.51457887 151.12643683 1196.31776413 162.93105696 C1198.34345466 164.95454298 1200.37706046 166.969848 1202.41102585 168.98501204 C1208.88183825 175.42863697 1215.10271748 181.87269901 1220.73915085 189.07021712 C1222.67103048 191.49093785 1224.72067611 193.75001898 1226.8368071 196.01040266 C1232.65562235 202.40603959 1237.77644819 209.32557396 1242.96229538 216.23452376 C1244.45499622 218.210883 1245.96702682 220.16995176 1247.48915085 222.12368391 C1272.54399205 254.50503102 1293.38457987 291.26350047 1309.49501023 328.83950423 C1310.25306891 330.60717773 1311.01788033 332.37196456 1311.78797898 334.1344261 C1318.2802887 349.0079937 1323.69768606 364.08265081 1328.65858445 379.53042219 C1329.41506701 381.85717314 1330.1959645 384.16916776 1331.01258835 386.47524641 C1342.19737146 418.28083487 1348.68803905 452.72687028 1352.34449876 486.20200224 C1352.50379372 487.63738284 1352.66890706 489.07213183 1352.84034263 490.50611307 C1354.92737625 508.17036606 1354.87549175 525.82071561 1354.84994357 543.5759757 C1354.84572786 548.06192919 1354.85320064 552.54786703 1354.85909608 557.03381656 C1354.86781507 564.87699509 1354.8691856 572.72014751 1354.86559281 580.56332968 C1354.86026396 592.22746508 1354.86640305 603.89157539 1354.87467574 615.55570807 C1354.88988607 637.60645883 1354.89162377 659.65719808 1354.88915271 681.70795299 C1354.88731707 698.74422882 1354.88908535 715.7805009 1354.89337716 732.81677626 C1354.89397957 735.26803401 1354.89458077 737.71929176 1354.89518076 740.17054951 C1354.89608806 743.86482364 1354.89699673 747.55909777 1354.89791311 751.25337189 C1354.90633854 785.58650967 1354.91068127 819.91964604 1354.90650639 854.25278471 C1354.90635001 855.5461091 1354.90619364 856.83943349 1354.90603252 858.17194953 C1354.90522679 864.72636744 1354.90438102 871.28078534 1354.90351922 877.83520324 C1354.90334813 879.13682502 1354.90317705 880.4384468 1354.90300077 881.77951167 C1354.90265412 884.41170691 1354.90230559 887.04390214 1354.90195519 889.67609738 C1354.89660092 930.61062043 1354.90452171 971.54512192 1354.92298874 1012.47964094 C1354.94373518 1058.52015464 1354.95442625 1104.56065499 1354.95041326 1150.60117362 C1354.95001794 1155.51686237 1354.94965639 1160.43255113 1354.94931588 1165.34823988 C1354.94917978 1167.16365071 1354.94917978 1167.16365071 1354.94904093 1169.01573649 C1354.94787804 1187.23576341 1354.95449986 1205.45577678 1354.9651278 1223.67580031 C1354.97721428 1244.41684083 1354.97869935 1265.15785166 1354.96633763 1285.89889265 C1354.95974003 1297.48515574 1354.96126791 1309.07134768 1354.97492614 1320.65760498 C1354.98323576 1328.42330144 1354.98038964 1336.18894521 1354.96895088 1343.95463747 C1354.96275807 1348.36181255 1354.9609249 1352.76884997 1354.97281421 1357.17601652 C1355.16448778 1433.58185228 1340.02331152 1509.59593919 1308.5868071 1579.38540266 C1308.07504929 1580.53089583 1307.56329148 1581.67638899 1307.03602585 1582.85659407 C1299.90338874 1598.75968491 1292.28219881 1614.27712359 1283.5868071 1629.38540266 C1283.10389206 1630.22474348 1282.62097702 1631.0640843 1282.1234282 1631.92885969 C1264.69307389 1661.99985825 1244.4074329 1690.19384196 1221.5868071 1716.38540266 C1220.92809616 1717.14594954 1220.26938523 1717.90649641 1219.59071335 1718.69009016 C1217.93242813 1720.59730965 1216.26022583 1722.49145412 1214.5868071 1724.38540266 C1214.00511765 1725.05192854 1213.4234282 1725.71845442 1212.82411179 1726.40517805 C1206.33785528 1733.74135237 1199.46313545 1740.66153382 1192.52992234 1747.57265852 C1190.52102846 1749.57617253 1188.51756321 1751.58500418 1186.51454148 1753.59438704 C1180.3779313 1759.73451799 1174.2597972 1765.82175609 1167.5868071 1771.38540266 C1166.54174921 1772.28553136 1165.49744955 1773.18654128 1164.4539946 1774.08852766 C1128.54696554 1804.65169078 1089.12206198 1830.78595523 1046.67420945 1851.36831282 C1044.41566925 1852.46878983 1042.16771321 1853.58953605 1039.91883835 1854.70962141 C993.80867387 1877.4397299 943.23674442 1892.1550832 892.5868071 1900.38540266 C891.49771042 1900.56796614 890.40861374 1900.75052962 889.28651413 1900.93862532 C874.43397053 1903.42017922 859.61051761 1905.34294525 844.5868071 1906.38540266 C843.50229523 1906.46875327 842.41778336 1906.55210388 841.3004075 1906.63798027 C825.84062789 1907.67604194 810.3599451 1907.5299108 794.8737304 1907.52007158 C790.53385449 1907.51842422 786.19398327 1907.52259111 781.8541089 1907.52598075 C774.26132297 1907.53111337 766.66854341 1907.53255569 759.07575592 1907.53152464 C747.78409762 1907.52999509 736.49244634 1907.5341717 725.2007894 1907.53939927 C703.85522408 1907.54905566 682.50966116 1907.55188288 661.16409391 1907.55245632 C644.67355105 1907.55291644 628.18300914 1907.55497774 611.69246659 1907.55815695 C606.94008185 1907.55905454 602.1876971 1907.55994436 597.43531236 1907.56083183 C595.66295027 1907.5611634 595.66295027 1907.5611634 593.85478288 1907.56150167 C560.63121979 1907.56765355 527.40765702 1907.57160248 494.18409333 1907.57115839 C492.93220695 1907.57114281 491.68032057 1907.57112723 490.39049824 1907.57111118 C484.0459051 1907.57102808 477.70131197 1907.57092904 471.35671884 1907.57082648 C470.09673816 1907.57080653 468.83675748 1907.57078659 467.53859557 1907.57076604 C464.99060752 1907.5707256 462.44261948 1907.5706838 459.89463143 1907.57064064 C420.26988424 1907.57002817 380.6451456 1907.57753038 341.02040085 1907.59121321 C296.46540223 1907.60659229 251.91040924 1907.61517832 207.3554078 1907.61424999 C202.5992508 1907.61417536 197.8430938 1907.61412665 193.0869368 1907.61409567 C191.33040948 1907.61407819 191.33040948 1907.61407819 189.53839677 1907.61406035 C170.73850271 1907.61402965 151.93861612 1907.62040059 133.13872429 1907.62902794 C114.22457564 1907.63752783 95.31043784 1907.63847615 76.39628834 1907.63191861 C65.17803438 1907.62823839 53.95981354 1907.63000936 42.74156313 1907.63986095 C35.22613671 1907.6458998 27.71073404 1907.64452257 20.19530866 1907.63739046 C15.9277449 1907.63354155 11.66024477 1907.63263722 7.39268571 1907.64084781 C-44.84282194 1907.73463902 -97.04165337 1902.79662302 -147.3375093 1887.98550032 C-149.47490293 1887.36756177 -151.61920492 1886.78411518 -153.76866165 1886.20962141 C-162.06673956 1883.98513118 -170.25905264 1881.53057795 -178.4131929 1878.82290266 C-179.26115432 1878.54204817 -180.10911575 1878.26119368 -180.98277298 1877.97182844 C-186.05505072 1876.26202725 -191.03019239 1874.37987664 -195.98887649 1872.36513899 C-198.27350661 1871.44185393 -200.56733661 1870.55105974 -202.87022415 1869.67446516 C-211.19330108 1866.50072148 -219.38755726 1863.19955236 -227.42149368 1859.33852766 C-229.82878944 1858.18651949 -232.24417013 1857.05217213 -234.65928665 1855.91665266 C-277.41004837 1835.74595106 -317.20617752 1810.87552088 -353.4131929 1780.38540266 C-354.44161135 1779.53096225 -355.47027084 1778.67681188 -356.4991304 1777.82290266 C-369.37932012 1767.0837374 -381.41963768 1755.54650802 -393.25401321 1743.67495344 C-395.30332801 1741.62022759 -397.35800553 1739.57097163 -399.4131929 1737.52212141 C-400.74424315 1736.19041101 -402.07498351 1734.85839079 -403.4053804 1733.52602766 C-404.00655685 1732.92687544 -404.6077333 1732.32772322 -405.22712722 1731.71041487 C-409.48427851 1727.43005314 -413.47957218 1722.96342936 -417.4131929 1718.38540266 C-417.86275344 1717.86871519 -418.31231399 1717.35202772 -418.77549759 1716.81968306 C-426.16425142 1708.3194748 -433.0491238 1699.4835064 -439.82090774 1690.48794173 C-441.30159202 1688.53276648 -442.80054115 1686.59361847 -444.30772415 1684.65884016 C-469.54394579 1652.03049597 -490.15323863 1615.12788961 -506.54502884 1577.35952376 C-507.67898453 1574.7810182 -508.89147728 1572.24181854 -510.1006929 1569.69790266 C-512.03943151 1565.42812544 -513.6432396 1561.06755961 -515.1866304 1556.64321516 C-515.44710662 1555.90018645 -515.70758285 1555.15715773 -515.9759523 1554.39161299 C-538.63975104 1489.57140242 -551.97135811 1424.88843895 -551.79859556 1356.01839618 C-551.79083331 1351.55509733 -551.80082394 1347.09182694 -551.80832556 1342.62853239 C-551.81905621 1334.84221303 -551.8188972 1327.0559563 -551.81118408 1319.26963423 C-551.79974527 1307.69028757 -551.80568477 1296.11099288 -551.814809 1284.53164647 C-551.83053874 1263.8401512 -551.8292641 1243.14868385 -551.82057226 1222.45718597 C-551.81300358 1204.34890463 -551.81106571 1186.2406335 -551.81464019 1168.1323509 C-551.81486935 1166.92774134 -551.8150985 1165.72313178 -551.8153346 1164.4820189 C-551.81626873 1159.59121127 -551.81722394 1154.70040365 -551.8182139 1149.80959603 C-551.82737572 1103.99900895 -551.81909464 1058.18843957 -551.8029232 1012.37785522 C-551.78868808 971.7436428 -551.78996204 931.10945859 -551.80430618 890.47524641 C-551.82039576 844.74449479 -551.82672577 799.0137588 -551.81746939 753.28300474 C-551.81650734 748.40148797 -551.81556881 743.5199712 -551.81464019 738.63845442 C-551.81440296 737.43664037 -551.81416573 736.23482632 -551.81392131 734.99659367 C-551.81051948 716.90675062 -551.81447989 698.81691894 -551.82207885 680.72707747 C-551.83068288 660.14291131 -551.82845642 639.55877727 -551.81223662 618.97461508 C-551.8034738 607.47695857 -551.80278559 595.97937173 -551.81417515 584.48171714 C-551.82096116 576.77674631 -551.81661084 569.07183068 -551.80366084 561.36686796 C-551.79660662 556.99375294 -551.79390871 552.62077504 -551.80487879 548.24766491 C-551.86903844 520.64866333 -550.40441112 493.36109191 -545.9756929 466.07290266 C-545.7585561 464.69364298 -545.54176781 463.3143284 -545.32530227 461.93496321 C-543.77404055 452.15865233 -542.04703553 442.42782702 -539.9312593 432.75747298 C-539.37411535 430.20647831 -538.83766704 427.65148745 -538.29991165 425.09634016 C-535.63094947 412.66183011 -532.2356029 400.54878256 -528.38096634 388.43276594 C-527.35118199 385.19014025 -526.33877336 381.94236331 -525.3272554 378.69399641 C-524.62757503 376.46586773 -523.92707314 374.23799684 -523.2256929 372.01040266 C-522.90495803 370.98261702 -522.58422317 369.95483137 -522.25376907 368.89590071 C-520.55747951 363.56801937 -518.66884238 358.4639941 -516.32603469 353.38686751 C-515.05563628 350.60143659 -513.98467228 347.75233397 -512.9131929 344.88540266 C-510.94470453 339.61836621 -508.72928331 334.50584563 -506.4131929 329.38540266 C-505.97974563 328.42070051 -505.54629837 327.45599837 -505.09971634 326.46206282 C-478.70849697 267.97024546 -443.10324635 212.12543122 -397.01866165 167.02602766 C-395.24631353 165.214869 -393.61587574 163.31676403 -391.9756929 161.38540266 C-389.0536037 157.99473791 -385.91489049 155.11320715 -382.50303665 152.22524641 C-380.25687934 150.2477883 -378.18658943 148.15579 -376.1006929 146.01040266 C-372.02333246 141.87699603 -367.67409054 138.24412078 -363.14366165 134.61977766 C-360.60019121 132.5384256 -358.19362037 130.37338951 -355.7881929 128.13540266 C-349.43831025 122.36550929 -342.59513053 117.25969161 -335.73252884 112.12221907 C-334.18901359 110.96636986 -332.64798196 109.80719643 -331.10948196 108.64468001 C-300.25035127 85.3342476 -266.65990533 65.62422178 -231.6006929 49.32290266 C-230.4751802 48.79889876 -229.34966751 48.27489485 -228.19004837 47.73501204 C-221.64222415 44.73606781 -215.03499906 42.00644439 -208.29380813 39.47182844 C-205.60882466 38.4591853 -202.94642671 37.40349453 -200.2881929 36.32290266 C-196.13287049 34.65548029 -191.95411856 33.07844934 -187.73741165 31.57290266 C-185.21288321 30.67107347 -182.69717776 29.75200022 -180.18272415 28.82290266 C-122.80290542 7.87405248 -60.81091675 -0.15310274 0 0 Z M-111.4131929 194.38540266 C-113.60063922 195.05224542 -115.78813581 195.71892335 -117.9756929 196.38540266 C-119.00565384 196.70637923 -120.03561477 197.02735579 -121.09678665 197.35805891 C-123.52299166 198.1096395 -125.95136343 198.84535647 -128.38584915 199.56899641 C-135.42727412 201.68267017 -142.14705472 203.95789504 -148.79209915 207.14712141 C-151.52603489 208.43871252 -154.29484121 209.57179574 -157.1006929 210.69790266 C-164.74165033 213.86610452 -172.08223468 217.56827081 -179.4131929 221.38540266 C-180.1660054 221.77437727 -180.9188179 222.16335188 -181.6944429 222.5641136 C-220.5232388 242.77126614 -259.79245804 271.98397407 -287.1866304 306.60024641 C-289.165453 309.07551048 -291.21040608 311.47500089 -293.29136673 313.86440657 C-315.48988767 339.48811307 -332.61462494 369.53673919 -346.4131929 400.38540266 C-346.91979446 401.48884016 -347.42639602 402.59227766 -347.94834915 403.72915266 C-355.06384389 419.66786088 -360.55519259 436.42596729 -364.88389602 453.32485579 C-365.38376874 455.27085475 -365.90561973 457.21116984 -366.4288179 459.15102766 C-368.84694209 468.63160983 -370.48216838 478.23152872 -372.0381929 487.88540266 C-372.2444429 489.13530989 -372.4506929 490.38521712 -372.6631929 491.67300032 C-376.30752384 515.10971627 -376.71010264 538.57117621 -376.67012801 562.22992397 C-376.66498541 566.61152465 -376.67160139 570.99311186 -376.67661467 575.37471054 C-376.68379099 583.02975314 -376.68364814 590.68476746 -376.67852035 598.33981131 C-376.67091573 609.72365868 -376.67484333 621.10748245 -376.68093697 632.4913297 C-376.69143962 652.82980581 -376.69056718 673.16826932 -376.68477914 693.50674662 C-376.67973894 711.30578261 -376.67843886 729.10481398 -376.68082443 746.90385054 C-376.6809772 748.08660312 -376.68112997 749.2693557 -376.68128737 750.48794927 C-376.68191009 755.28967923 -376.6825469 760.09140919 -376.6832069 764.89313915 C-376.68931861 809.89500409 -376.68378795 854.89686102 -376.6730131 899.89872473 C-376.6635226 939.84008911 -376.66437188 979.78144074 -376.67393509 1019.72280501 C-376.68465497 1064.64477402 -376.68888509 1109.56673597 -376.68271056 1154.4887061 C-376.68206917 1159.28145566 -376.68144348 1164.07420522 -376.68082443 1168.86695479 C-376.68066627 1170.04696666 -376.68050812 1171.22697854 -376.68034517 1172.44274835 C-376.67807461 1190.22629315 -376.68072259 1208.00983282 -376.68578354 1225.79337691 C-376.69151215 1246.02332646 -376.69005089 1266.25326148 -376.67922205 1286.48320924 C-376.67336783 1297.79142035 -376.6729395 1309.09959997 -376.6805144 1320.40781023 C-376.68502329 1327.9765718 -376.68216478 1335.54530831 -376.67350486 1343.11406619 C-376.66878161 1347.41606812 -376.66704802 1351.71800784 -376.67431682 1356.02000765 C-376.74306457 1400.05790279 -371.8757159 1443.15076941 -358.2881929 1485.19790266 C-357.97951278 1486.15796217 -357.97951278 1486.15796217 -357.66459671 1487.13741682 C-355.06606014 1495.15149561 -352.01291141 1502.77506288 -348.4131929 1510.38540266 C-347.77812336 1511.81888591 -347.14880619 1513.25493757 -346.52647415 1514.69399641 C-335.64869691 1539.7033054 -322.88797801 1563.5733318 -306.4131929 1585.38540266 C-305.795168 1586.20742171 -305.795168 1586.20742171 -305.16465774 1587.04604719 C-292.77607911 1603.48958895 -279.33279339 1618.52797138 -264.8506929 1633.13540266 C-263.98863235 1634.01051497 -263.1265718 1634.88562727 -262.23838821 1635.78725813 C-256.27771254 1641.75583322 -250.0117264 1647.13731139 -243.4131929 1652.38540266 C-242.18183277 1653.39836716 -240.9523543 1654.41362824 -239.7256929 1655.43227766 C-223.9966089 1668.3348413 -207.00674604 1679.21604219 -189.4131929 1689.38540266 C-188.60897903 1689.85139876 -187.80476516 1690.31739485 -186.97618118 1690.79751204 C-178.87705306 1695.46508516 -170.85182862 1699.90064795 -162.12803665 1703.31118391 C-159.37404007 1704.40089479 -156.71647386 1705.62206258 -154.0381929 1706.88540266 C-148.82314064 1709.28598227 -143.49253214 1711.21188418 -138.06553665 1713.07680891 C-135.20863041 1714.10040634 -132.43004214 1715.19571569 -129.62803665 1716.35415266 C-124.52063376 1718.41243169 -119.35961338 1719.9263133 -114.0381929 1721.32290266 C-113.08340042 1721.57668684 -112.12860794 1721.83047102 -111.14488235 1722.09194563 C-109.18032168 1722.61178063 -107.21490726 1723.1284001 -105.24864212 1723.64175032 C-102.63410566 1724.32746394 -100.02542389 1725.03197963 -97.41709915 1725.74087141 C-64.38419833 1734.55856524 -30.84395482 1735.69637998 3.13173393 1735.66094186 C7.58094426 1735.65853951 12.03013476 1735.6677906 16.47933713 1735.67542605 C24.25030208 1735.68718291 32.02124366 1735.6916424 39.79221711 1735.69110487 C51.3490059 1735.6903064 62.90576551 1735.70091479 74.46254644 1735.71352044 C97.51200069 1735.73816525 120.56144766 1735.74703251 143.61091327 1735.75205693 C144.80226685 1735.75231811 145.99362043 1735.75257928 147.22107562 1735.75284837 C148.41498433 1735.75310864 149.60889305 1735.75336892 150.83898081 1735.75363708 C164.10912693 1735.75672764 177.37927107 1735.76323517 190.64941582 1735.76984976 C230.7739968 1735.78948595 270.89857565 1735.8058976 311.02316174 1735.80872629 C312.30452559 1735.80882036 313.58588944 1735.80891442 314.9060825 1735.80901133 C320.09822515 1735.80938978 325.2903678 1735.80975378 330.48251045 1735.81011431 C334.38991598 1735.81038602 338.2973215 1735.8106627 342.20472702 1735.81093977 C343.4958846 1735.81102779 344.78704217 1735.81111582 346.11732573 1735.81120651 C386.67675437 1735.81411129 427.23613534 1735.83620805 467.79554734 1735.87246321 C513.43069713 1735.91325505 559.06581443 1735.93688533 604.70098343 1735.93718581 C609.57394113 1735.93728262 614.44689881 1735.93744933 619.31985649 1735.93766592 C621.11944322 1735.93773209 621.11944322 1735.93773209 622.95538522 1735.9377996 C642.19714804 1735.93891584 661.43886276 1735.95627118 680.68061012 1735.97948524 C700.04298263 1736.00241039 719.40529067 1736.00649981 738.76767179 1735.99193594 C750.24472323 1735.98383016 761.72157055 1735.98931212 773.19859692 1736.01511679 C780.89386738 1736.03101075 788.58899488 1736.02824939 796.28426227 1736.01121006 C800.64955951 1736.0020455 805.01446733 1736.00010333 809.37973227 1736.02117614 C841.25025896 1736.16502562 873.3665962 1733.04036265 904.3368071 1725.13540266 C905.15552292 1724.92850813 905.97423874 1724.7216136 906.81776413 1724.50844954 C916.57098939 1721.96976142 926.07856981 1718.70962946 935.5868071 1715.38540266 C936.92400464 1714.92434321 938.26124067 1714.46339536 939.59852585 1714.00259016 C951.94164841 1709.68453409 963.68965996 1704.52110139 975.31190476 1698.54946516 C977.70327101 1697.32580834 980.10390116 1696.12153347 982.50477585 1694.91665266 C1008.71455322 1681.63156399 1032.60657831 1664.87029927 1054.5868071 1645.38540266 C1055.31134079 1644.74699446 1056.03587448 1644.10858626 1056.78236374 1643.45083235 C1063.27935795 1637.67316423 1069.50011303 1631.65531158 1075.6493071 1625.51040266 C1077.0424614 1624.13561751 1077.0424614 1624.13561751 1078.46376023 1622.73305891 C1084.61453174 1616.59523639 1090.17175047 1610.17427063 1095.5868071 1603.38540266 C1096.63492002 1602.13746577 1097.6876973 1600.89341791 1098.74696335 1599.65493391 C1121.20362589 1573.07474382 1139.97044073 1541.25780595 1152.3055571 1508.69009016 C1153.48049703 1505.65960486 1154.7351613 1502.68111828 1156.0243071 1499.69790266 C1164.08555384 1480.40129328 1169.22306413 1459.98245607 1173.2743071 1439.51040266 C1173.46452439 1438.56938704 1173.65474167 1437.62837141 1173.85072312 1436.65884016 C1174.49858932 1433.24420416 1175.05240342 1429.81917523 1175.5868071 1426.38540266 C1175.7088899 1425.6089502 1175.83097269 1424.83249774 1175.95675497 1424.03251642 C1178.80145319 1405.26599825 1179.01893435 1386.69739112 1178.97220976 1367.77448776 C1178.96449986 1363.28015311 1178.97441834 1358.7858481 1178.98193976 1354.29151784 C1178.99270726 1346.43836182 1178.99248809 1338.58526782 1178.98479828 1330.73210905 C1178.97339388 1319.05335601 1178.97928154 1307.37465474 1178.9884232 1295.69590198 C1179.00418016 1274.82915522 1179.00286713 1253.96243611 1178.99418647 1233.09568675 C1178.9866259 1214.83058814 1178.98467615 1196.56549962 1178.9882544 1178.30039976 C1178.98848355 1177.08663195 1178.98871271 1175.87286415 1178.98894881 1174.6223155 C1178.9898829 1169.69459317 1178.99083811 1164.76687085 1178.9918281 1159.83914853 C1179.00099673 1113.65049284 1178.99269863 1067.4618547 1178.97653741 1021.27320172 C1178.96230695 980.29122414 1178.96357092 939.30927453 1178.97792038 898.32729719 C1178.99400729 852.22965649 1179.00034098 806.13203129 1178.99108359 760.03438817 C1178.99012152 755.1140255 1178.989183 750.19366283 1178.9882544 745.27330015 C1178.98801717 744.06188035 1178.98777993 742.85046055 1178.98753551 741.60233106 C1178.98413205 723.35865477 1178.98809729 705.11498972 1178.99569306 686.87131499 C1179.00429432 666.10976445 1179.00207674 645.34824575 1178.98585083 624.58669916 C1178.97708231 612.98646118 1178.97640812 601.38629227 1178.98778935 589.78605618 C1178.99456863 582.01497662 1178.99023683 574.24395186 1178.97727504 566.47288036 C1178.97021158 562.06022587 1178.96754316 557.64770744 1178.97849299 553.23505774 C1179.05968846 517.81783057 1176.83658269 482.5324003 1166.5868071 448.38540266 C1166.33672898 447.53027083 1166.08665085 446.67513899 1165.8289946 445.79409407 C1160.8466898 428.76054851 1155.27719275 412.40538611 1147.55067429 396.40737532 C1146.53106472 394.26846791 1145.54495815 392.11622644 1144.5633696 389.95962141 C1129.79202633 357.72014835 1109.70995711 328.03741088 1085.82508835 301.84243391 C1084.35221903 300.22561925 1082.89088286 298.59820966 1081.44227585 296.95962141 C1073.07461035 287.50642093 1064.24093084 278.52997251 1054.5868071 270.38540266 C1053.69219773 269.60165266 1052.79758835 268.81790266 1051.8758696 268.01040266 C1025.48196836 245.01830605 995.27302237 226.6875878 963.44862351 212.25869368 C961.50826717 211.34856325 959.613644 210.36932536 957.7118071 209.38149641 C953.26760422 207.14268744 948.6706706 205.53605071 943.9618071 203.94790266 C942.17772714 203.33788556 940.39387344 202.7272063 938.6102446 202.11587141 C937.74753952 201.8211595 936.88483445 201.52644758 935.99598679 201.22280501 C932.83809036 200.12515759 929.71551431 198.93831262 926.5868071 197.76040266 C918.49114374 194.85132268 910.16694279 192.91406272 901.80897507 190.92446516 C899.03413188 190.25133247 896.28130867 189.50282104 893.5243071 188.76040266 C881.11879422 185.68921867 868.31749631 184.28006135 855.6493071 182.76040266 C854.15246384 182.57574446 854.15246384 182.57574446 852.62538132 182.38735579 C832.12804087 180.02391026 811.51390271 180.23748745 790.91491303 180.25073375 C786.61660491 180.25238416 782.31830146 180.24821174 778.01999488 180.24482457 C770.50326381 180.23969681 762.98653917 180.23824879 755.46980652 180.23928068 C744.29121902 180.2408115 733.11263859 180.23663086 721.93405246 180.23140606 C700.80174934 180.22175437 679.66944865 180.21892263 658.53714358 180.218349 C642.21113086 180.21788874 625.88511909 180.21582669 609.55910668 180.21264837 C604.8527609 180.21175077 600.14641513 180.21086096 595.44006935 180.2099735 C594.26991798 180.20975245 593.09976661 180.2095314 591.89415611 180.20930365 C558.99638888 180.20315265 526.09862198 180.19920276 493.20085415 180.19964693 C491.34180478 180.1996703 491.34180478 180.1996703 489.44519886 180.19969414 C483.16416774 180.19977724 476.88313661 180.19987628 470.60210549 180.19997885 C469.35476421 180.19999879 468.10742292 180.20001874 466.82228342 180.20003929 C464.29985635 180.20007973 461.77742929 180.20012152 459.25500223 180.20016468 C420.02600054 180.20077719 380.79700749 180.19327408 341.56800827 180.17959212 C297.45063523 180.16421141 253.33326788 180.1556271 209.21589199 180.15655534 C204.50608831 180.15662996 199.79628463 180.15667867 195.08648095 180.15670965 C193.92688836 180.15672131 192.76729578 180.15673296 191.57256402 180.15674497 C172.96080364 180.15677567 154.3490508 180.15040636 135.73729266 180.14177739 C117.01156562 180.13327552 98.28584955 180.13233072 79.56012165 180.13888671 C68.45537863 180.14256555 57.35066906 180.14080018 46.24592963 180.13094437 C38.80496092 180.12490194 31.3640162 180.12628664 23.92304855 180.13341487 C19.69886693 180.1372608 15.47474957 180.13817707 11.25057273 180.12995752 C-30.17637658 180.0547331 -71.62388682 181.89603865 -111.4131929 194.38540266 Z " fill="#FEFEFE" transform="translate(2098.413192898035,1546.6145973373204)"/>
<path d="M0 0 C2.15069893 0.00931456 4.30136817 0.01367693 6.45208359 0.0173378 C29.01076309 0.07074373 51.2255557 1.00815125 73.54525375 4.44662857 C74.87904703 4.64668739 76.21286868 4.84655713 77.5467186 5.04623795 C99.46225384 8.39659064 120.89411297 13.06350792 142.05111313 19.67612076 C144.6110508 20.46695507 147.17778504 21.2302552 149.74837875 21.98569107 C162.33809632 25.68681026 174.7289896 29.51756545 186.62337875 35.13461685 C189.5519502 36.44963548 192.50296984 37.58074692 195.51400375 38.69272232 C202.68755721 41.43220306 209.58632383 44.64184894 216.48275375 48.00912857 C217.1087648 48.31342789 217.73477585 48.6177272 218.37975693 48.93124771 C254.76646389 66.64374622 288.4892249 88.48175199 319.54525375 114.44662857 C320.06667953 114.88168716 320.58810532 115.31674576 321.12533188 115.76498795 C334.00827247 126.54893703 346.20109434 138.03595801 358.10775375 149.88412857 C359.07140854 150.84077408 359.07140854 150.84077408 360.0545311 151.81674576 C363.85685008 155.63197416 367.46410823 159.56857698 370.98446274 163.6451149 C372.87681519 165.82932712 374.83452047 167.94878742 376.79525375 170.07162857 C381.84707732 175.67812872 386.47347145 181.57061606 391.07406235 187.54721451 C392.53574882 189.43435701 394.01690672 191.30466211 395.502285 193.17319107 C435.06236577 243.35617798 463.30205614 302.08018324 480.54525375 363.44662857 C480.80258286 364.3567067 481.05991196 365.26678482 481.32503891 366.20444107 C505.93976622 454.74886863 502.96703508 552.97524756 434.98275375 737.44662857 C423.44827294 757.60472931 410.72824161 777.04967998 396.54525375 795.44662857 C396.1280809 795.98996841 395.71090805 796.53330826 395.2810936 797.09311295 C390.20497228 803.69075414 385.01133048 810.1762402 379.60775375 816.50912857 C378.96422958 817.26588882 378.96422958 817.26588882 378.30770493 818.03793716 C369.34595127 828.43480104 359.83919219 838.33942891 350.13582993 848.04135513 C348.47447667 849.70491665 346.82134686 851.37637961 345.16830063 853.04819107 C339.33859643 858.90762902 333.42698244 864.40011661 326.93001938 869.52328873 C324.54919881 871.44344684 322.32678614 873.46793543 320.10775375 875.57162857 C312.11628054 882.84006373 303.25927922 889.08309681 294.54525375 895.44662857 C293.42376938 896.26598892 293.42376938 896.26598892 292.27962875 897.10190201 C238.31192124 936.32204711 175.16895547 965.23754679 109.76644516 978.9798317 C108.14486855 979.32061588 106.52496203 979.66937496 104.9060936 980.02280045 C12.89330061 1000.05067402 -83.1690712 991.81231805 -210.57779312 942.41293716 C-212.44836743 941.44991257 -214.33065124 940.51598918 -216.22037125 939.59115982 C-253.49377708 921.33935566 -288.10887295 898.66573424 -319.45474625 871.44662857 C-320.18951187 870.81240982 -320.9242775 870.17819107 -321.68130875 869.52475357 C-323.61661238 867.84389225 -325.53588953 866.14623291 -327.45474625 864.44662857 C-328.14068863 863.84552261 -328.82663101 863.24441666 -329.53335953 862.62509537 C-336.39064476 856.5488635 -342.89505013 850.15987179 -349.36026382 843.67148209 C-351.14649295 841.87986907 -352.93803972 840.09369802 -354.73013687 838.3079567 C-360.51735372 832.52445176 -366.19083621 826.71792493 -371.45474625 820.44662857 C-372.36680434 819.39003233 -373.27953619 818.33401721 -374.1930275 817.27865982 C-380.52605082 809.85009073 -386.62565866 802.27861656 -392.45474625 794.44662857 C-392.94700699 793.78566177 -393.43926773 793.12469498 -393.94644547 792.44369888 C-406.527433 775.46779485 -418.03997967 757.83099012 -428.45474625 739.44662857 C-428.9117189 738.64628189 -429.36869156 737.84593521 -429.83951187 737.0213356 C-475.44256238 656.78403328 -495.21349483 565.35875006 -480.16031265 383.57260513 C-479.51166432 380.69880124 -478.89164279 377.82045625 -478.278965 374.93881607 C-475.34360354 361.50428212 -471.04872797 348.58611837 -466.54507828 335.60434341 C-465.56729295 332.77257552 -464.61305943 329.93449974 -463.66959 327.09115982 C-445.47026424 272.77646135 -415.09256217 222.26832996 -378.45474625 178.44662857 C-378.01968765 177.92520279 -377.58462906 177.40377701 -377.13638687 176.86655045 C-366.19954837 163.80096199 -354.53504676 151.45745076 -342.51724625 139.38412857 C-341.83186783 138.6940773 -341.14648941 138.00402603 -340.44034195 137.29306412 C-335.94081806 132.80772914 -331.26766838 128.59124174 -326.45474625 124.44662857 C-325.29831317 123.42486953 -324.14331691 122.40148151 -322.9899025 121.37631607 C-314.4467801 113.83754817 -305.62154363 106.7815414 -296.49087906 99.96811295 C-294.60455918 98.55857511 -292.7281006 97.13689921 -290.85318375 95.71225357 C-260.63290437 72.93992461 -227.12034956 54.48259193 -192.45474625 39.44662857 C-191.1901159 38.88873118 -189.92577058 38.33018702 -188.6617775 37.77084732 C-163.04408476 26.56853422 -135.59462946 16.99190291 -108.028965 12.14975357 C-104.95094881 11.54424219 -101.96535978 10.8140347 -98.93130875 10.02475357 C-92.05661184 8.28599423 -85.13975957 7.07584727 -78.14224625 5.94662857 C-76.97757828 5.74682388 -75.81291031 5.5470192 -74.61294937 5.34115982 C-49.83138667 1.31142875 -25.06454669 -0.1155027 0 0 Z " fill="#FEFEFE" transform="translate(2497.454746246338,2009.5533714294434)"/>
<path d="M0 0 C1.55595513 0.68441572 3.11447397 1.36303958 4.67578125 2.03515625 C36.47636677 15.86844495 65.03908456 34.51801962 90.66796875 57.88671875 C92.75034736 59.77376537 94.86503064 61.61058233 97 63.4375 C104.57441452 70.04789813 111.56328518 77.28339788 118 85 C118.67820801 85.80751709 118.67820801 85.80751709 119.37011719 86.63134766 C140.09483273 111.38844395 157.59749932 138.48173974 170.23144531 168.22509766 C171.28437436 170.65673495 172.42558595 173.0441873 173.5625 175.4375 C197.93017575 229.11009299 202.43379759 295.52312083 192 353 C191.76829999 354.43318649 191.53876429 355.86672655 191.3125 357.30078125 C182.2973131 408.85638133 156.9780313 460.41857407 123 500 C122.18273438 501.0003125 121.36546875 502.000625 120.5234375 503.03125 C114.2219762 510.68066616 107.42361744 517.78566517 100.4375 524.8125 C99.57543945 525.68374512 98.71337891 526.55499023 97.82519531 527.45263672 C91.85873361 533.39085883 85.59540443 538.77471782 79 544 C78.2474292 544.60658447 77.4948584 545.21316895 76.71948242 545.83813477 C61.9735868 557.70200845 46.5562634 567.90793821 29.93652344 576.94580078 C28.02805295 577.98472861 26.12718159 579.0366376 24.2265625 580.08984375 C-3.59148653 595.37156519 -33.80079743 605.46882388 -65 611 C-66.00095703 611.17805176 -67.00191406 611.35610352 -68.03320312 611.53955078 C-71.20805667 612.09852453 -74.38460619 612.64609016 -77.5625 613.1875 C-78.53743408 613.35459473 -79.51236816 613.52168945 -80.5168457 613.69384766 C-81.46132568 613.85030762 -82.40580566 614.00676758 -83.37890625 614.16796875 C-84.60975952 614.37329224 -84.60975952 614.37329224 -85.86547852 614.58276367 C-94.21299026 615.69390142 -102.48950822 616.15793585 -110.90625 616.16796875 C-111.91103394 616.17129715 -112.91581787 616.17462555 -113.9510498 616.17805481 C-116.06534371 616.1830827 -118.17964544 616.18546443 -120.29394531 616.18530273 C-123.46433218 616.18747556 -126.63436255 616.20563867 -129.8046875 616.22460938 C-147.16270171 616.27274299 -163.88631024 614.91029569 -180.89404297 611.42089844 C-183.12427574 610.97516214 -185.35936641 610.56729924 -187.59765625 610.1640625 C-208.13823099 606.38872434 -227.8643162 600.35101959 -247 592 C-248.43907715 591.37303223 -248.43907715 591.37303223 -249.90722656 590.73339844 C-281.15128598 577.00449158 -309.20500869 559.37390493 -335 537 C-336.175625 535.99453125 -336.175625 535.99453125 -337.375 534.96875 C-350.19525848 523.75102383 -362.69440885 511.58464288 -373 498 C-373.98542789 496.75267912 -374.97254668 495.50669309 -375.9609375 494.26171875 C-395.67092614 469.23570875 -411.61745428 441.75640124 -423 412 C-423.39106934 410.99501465 -423.39106934 410.99501465 -423.79003906 409.96972656 C-425.31912821 406.01758575 -426.68445639 402.02778449 -428 398 C-428.38768555 396.84588623 -428.38768555 396.84588623 -428.78320312 395.66845703 C-451.01213731 329.01963102 -450.5329271 252.99196071 -426 187 C-425.65179199 186.05543945 -425.30358398 185.11087891 -424.94482422 184.13769531 C-411.93338297 149.12237177 -392.96017536 117.62874415 -369 89 C-368.56349121 88.47180664 -368.12698242 87.94361328 -367.67724609 87.39941406 C-357.45388159 75.04482966 -346.40724187 63.1986229 -334 53 C-333.4848584 52.56574707 -332.9697168 52.13149414 -332.43896484 51.68408203 C-315.77678803 37.64044417 -298.11553233 25.45714129 -279 15 C-278.15824219 14.53464844 -277.31648438 14.06929687 -276.44921875 13.58984375 C-263.97752307 6.7276064 -251.33177205 0.9778742 -238 -4 C-237.2980249 -4.26377441 -236.5960498 -4.52754883 -235.87280273 -4.79931641 C-234.53142175 -5.30319188 -233.18964096 -5.80600463 -231.84741211 -6.30761719 C-230.17073572 -6.93601077 -228.49728389 -7.57299138 -226.82421875 -8.2109375 C-156.59114542 -34.27501702 -67.87601878 -31.93975696 0 0 Z " fill="#ED284D" transform="translate(2624,2209)"/>
<path d="M0 0 C21.48608762 19.60193336 36.11871008 47.90094266 37.56396484 77.16455078 C37.9087264 89.38394771 37.6154259 100.75650232 34.43798828 112.61376953 C34.117178 113.95479638 33.7968848 115.29594701 33.47705078 116.63720703 C26.52902164 144.16652914 7.52704397 169.399443 -16.55322266 184.44482422 C-44.72372734 200.83767502 -76.82203704 206.18634636 -108.54101562 198.10986328 C-136.35477868 190.45274778 -162.63716343 171.62721662 -177.27514648 146.56030273 C-179.11344519 143.28273086 -180.85264877 139.95998798 -182.56201172 136.61376953 C-183.05443359 135.68048828 -183.54685547 134.74720703 -184.05419922 133.78564453 C-191.14943478 119.41889427 -193.74118032 103.90592163 -193.74951172 88.05126953 C-193.76788086 86.25206055 -193.76788086 86.25206055 -193.78662109 84.41650391 C-193.83768512 52.87595501 -181.4109264 25.05265184 -159.56201172 2.61376953 C-115.52801589 -40.2341254 -45.53139838 -40.40751485 0 0 Z " fill="#FEFEFE" transform="translate(3089.56201171875,1905.38623046875)"/>
</svg>
