<svg xmlns="http://www.w3.org/2000/svg" xmlns:xlink="http://www.w3.org/1999/xlink" width="40" zoomAndPan="magnify" viewBox="0 0 30 30.000001" height="40" preserveAspectRatio="xMidYMid meet" version="1.0"><defs><clipPath id="51585286d7"><path d="M 5 3 L 25.472656 3 L 25.472656 26.128906 L 5 26.128906 Z M 5 3 " clip-rule="nonzero"/></clipPath><clipPath id="32812e4075"><path d="M 5 2.902344 L 25 2.902344 L 25 26 L 5 26 Z M 5 2.902344 " clip-rule="nonzero"/></clipPath><clipPath id="4092278603"><path d="M 6 3 L 24.691406 3 L 24.691406 25.21875 L 6 25.21875 Z M 6 3 " clip-rule="nonzero"/></clipPath><clipPath id="1951c6097c"><path d="M 15.292969 2.917969 L 19.089844 2.902344 C 19.023438 5.539062 24.167969 10.496094 24.582031 11.0625 C 22.464844 11.328125 20.480469 11.492188 19.089844 10.332031 L 19.078125 18.285156 C 19.050781 20.441406 18.128906 22.042969 17.011719 23.105469 C 16.917969 23.203125 16.820312 23.296875 16.710938 23.382812 C 15.277344 24.597656 13.875 25.164062 11.949219 25.148438 C 10.046875 25.121094 8.617188 24.402344 7.40625 23.351562 C 6.496094 22.566406 5.769531 21.542969 5.355469 20.136719 C 4.460938 17.042969 5.617188 14.03125 8.175781 12.277344 C 8.21875 12.238281 8.273438 12.195312 8.328125 12.167969 C 9.496094 11.355469 11.316406 10.871094 13.007812 11.148438 L 13.007812 15.039062 C 11.835938 14.738281 10.792969 15 10.019531 15.648438 C 10.007812 15.648438 10.007812 15.664062 9.992188 15.675781 C 9.25 16.3125 8.824219 17.25 8.878906 18.3125 C 9.015625 20.21875 10.585938 21.40625 12.292969 21.324219 C 12.292969 21.324219 12.304688 21.324219 12.304688 21.324219 C 13.957031 21.15625 15.320312 19.804688 15.277344 17.980469 Z M 15.292969 2.917969 " clip-rule="evenodd"/></clipPath></defs><g clip-path="url(#51585286d7)"><path fill="#fe2c55" d="M 16.144531 3.882812 L 19.941406 3.871094 C 19.875 6.507812 25.023438 11.464844 25.433594 12.03125 C 23.316406 12.292969 21.332031 12.457031 19.941406 11.296875 L 19.929688 19.253906 C 19.902344 21.40625 18.980469 23.007812 17.863281 24.070312 C 17.769531 24.167969 17.671875 24.265625 17.5625 24.347656 C 16.128906 25.5625 14.726562 26.128906 12.800781 26.117188 C 10.898438 26.085938 9.46875 25.371094 8.257812 24.320312 C 7.347656 23.535156 6.621094 22.511719 6.207031 21.101562 C 5.3125 18.011719 6.46875 15 9.027344 13.246094 C 9.070312 13.203125 9.125 13.164062 9.179688 13.136719 C 10.351562 12.320312 12.167969 11.835938 13.859375 12.113281 L 13.859375 16.007812 C 12.691406 15.703125 11.644531 15.964844 10.871094 16.613281 C 10.859375 16.613281 10.859375 16.628906 10.84375 16.644531 C 10.101562 17.277344 9.675781 18.21875 9.730469 19.28125 C 9.867188 21.1875 11.4375 22.375 13.144531 22.289062 C 13.144531 22.289062 13.15625 22.289062 13.15625 22.289062 C 14.808594 22.125 16.171875 20.773438 16.128906 18.949219 Z M 16.144531 3.882812 " fill-opacity="1" fill-rule="evenodd"/></g><g clip-path="url(#32812e4075)"><path fill="#25f4ee" d="M 15.292969 2.917969 L 19.089844 2.902344 C 19.023438 5.539062 24.167969 10.496094 24.582031 11.0625 C 22.464844 11.328125 20.480469 11.492188 19.089844 10.332031 L 19.078125 18.285156 C 19.050781 20.441406 18.128906 22.042969 17.011719 23.105469 C 16.917969 23.203125 16.820312 23.296875 16.710938 23.382812 C 15.277344 24.597656 13.875 25.164062 11.949219 25.148438 C 10.046875 25.121094 8.617188 24.402344 7.40625 23.351562 C 6.496094 22.566406 5.769531 21.542969 5.355469 20.136719 C 4.460938 17.042969 5.617188 14.03125 8.175781 12.277344 C 8.21875 12.238281 8.273438 12.195312 8.328125 12.167969 C 9.496094 11.355469 11.316406 10.871094 13.007812 11.148438 L 13.007812 15.039062 C 11.835938 14.738281 10.792969 15 10.019531 15.648438 C 10.007812 15.648438 10.007812 15.664062 9.992188 15.675781 C 9.25 16.3125 8.824219 17.25 8.878906 18.3125 C 9.015625 20.21875 10.585938 21.40625 12.292969 21.324219 C 12.292969 21.324219 12.304688 21.324219 12.304688 21.324219 C 13.957031 21.15625 15.320312 19.804688 15.277344 17.980469 Z M 15.292969 2.917969 " fill-opacity="1" fill-rule="evenodd"/></g><g clip-path="url(#4092278603)"><g clip-path="url(#1951c6097c)"><path fill="#000000" d="M 16.289062 3.882812 L 20.085938 3.871094 C 20.019531 6.507812 25.164062 11.464844 25.578125 12.03125 C 23.460938 12.292969 21.476562 12.460938 20.085938 11.300781 L 20.074219 19.253906 C 20.046875 21.40625 19.125 23.007812 18.007812 24.070312 C 17.910156 24.167969 17.816406 24.265625 17.707031 24.347656 C 16.273438 25.5625 14.871094 26.128906 12.941406 26.117188 C 11.042969 26.089844 9.613281 25.371094 8.402344 24.320312 C 7.492188 23.535156 6.761719 22.511719 6.351562 21.101562 C 5.457031 18.011719 6.613281 15 9.171875 13.246094 C 9.214844 13.203125 9.269531 13.164062 9.324219 13.136719 C 10.492188 12.320312 12.308594 11.835938 14.003906 12.113281 L 14.003906 16.007812 C 12.832031 15.703125 11.789062 15.964844 11.015625 16.617188 C 11.003906 16.617188 11.003906 16.628906 10.988281 16.644531 C 10.246094 17.277344 9.820312 18.21875 9.875 19.28125 C 10.011719 21.1875 11.582031 22.375 13.289062 22.289062 C 13.289062 22.289062 13.300781 22.289062 13.300781 22.289062 C 14.953125 22.125 16.316406 20.773438 16.273438 18.949219 Z M 16.289062 3.882812 " fill-opacity="1" fill-rule="evenodd"/></g></g></svg>