<?xml version="1.0" encoding="UTF-8"?>
<svg version="1.1" xmlns="http://www.w3.org/2000/svg" width="3688" height="4167">
<path d="M0 0 C227.7 0 455.4 0 690 0 C690.495 47.52 690.495 47.52 691 96 C695.17437653 129.04648118 695.17437653 129.04648118 700 162 C700 163.65 700 165.3 700 167 C762.7 167 825.4 167 890 167 C890.495 212.045 890.495 212.045 891 258 C894.61162937 289.80099368 894.61162937 289.80099368 899.25 321.4375 C899.46310318 322.72279602 899.46310318 322.72279602 899.68051147 324.03405762 C907.29619392 369.80577355 918.23096295 414.76178244 932.34692383 458.95288086 C932.97364521 460.9173888 933.59578717 462.88328961 934.21679688 464.84960938 C950.51278698 516.17791097 971.65058905 567.22971108 997.609375 614.46484375 C999.2744344 617.50030316 1000.91720038 620.54753626 1002.5625 623.59375 C1014.6263724 645.84103916 1027.51283911 667.61080951 1041.48925781 688.71630859 C1043.26868823 691.40615865 1045.0358583 694.10394876 1046.8046875 696.80078125 C1054.13110716 707.9254378 1061.63786994 718.81149832 1069.75830078 729.37011719 C1071.52897355 731.69434279 1073.23358431 734.06406235 1074.9375 736.4375 C1087.41911542 753.66419236 1100.78752624 770.19979655 1114.60546875 786.3671875 C1116.07339599 788.08593704 1117.53678241 789.80848996 1119 791.53125 C1121.51328436 794.48737025 1124.04975249 797.42261478 1126.59179688 800.35400391 C1127.90283279 801.88642487 1129.17949316 803.44807202 1130.453125 805.01171875 C1136.46248513 812.14534658 1142.85785248 816.41435721 1150.91650391 820.84326172 C1153.02023795 822.01123593 1155.09575461 823.21846808 1157.16796875 824.44140625 C1221.10517832 862.13349169 1288.38896363 891.26047308 1359 914 C1359.64563904 914.20818359 1360.29127808 914.41636719 1360.95648193 914.63085938 C1453.41922031 944.35351053 1547.27458811 953.73270242 1644 958 C1644 1006.18 1644 1054.36 1644 1104 C1647.3 1104.33 1650.6 1104.66 1654 1105 C1656.57558586 1105.43540317 1659.14531171 1105.90727172 1661.70703125 1106.41796875 C1663.17114689 1106.70353166 1664.63542941 1106.98823996 1666.09985352 1107.2722168 C1666.86451935 1107.42137543 1667.62918518 1107.57053406 1668.41702271 1107.72421265 C1718.01439987 1117.31638772 1768.57547112 1122.30944735 1819.05981445 1123.55224609 C1821.15324749 1123.60475655 1823.24653317 1123.6615922 1825.33984375 1123.71875 C1827.15536743 1123.76418945 1827.15536743 1123.76418945 1829.00756836 1123.81054688 C1834.01511401 1124.04817027 1839.00740763 1124.54612797 1844 1125 C1844 1351.05 1844 1577.1 1844 1810 C1788.99945122 1810 1788.99945122 1810 1773.4375 1809.25 C1772.48681641 1809.20709839 1771.53613281 1809.16419678 1770.55664062 1809.11999512 C1660.80856673 1804.13913469 1551.85499641 1788.35724565 1312.21893311 1722.76177979 C1309.9735524 1721.9909203 1307.72727914 1721.22270112 1305.48095703 1720.45458984 C1245.07392275 1699.76066531 1186.1821252 1675.12667508 1128.75050354 1647.23776245 C1123.00579995 1644.44812709 1117.24773847 1641.69103043 1111.46923828 1638.97216797 C1101.7501926 1634.39344195 1092.20945288 1629.54776016 1082.74267578 1624.46923828 C1079.65393137 1622.81461269 1076.55947416 1621.17093337 1073.46484375 1619.52734375 C1051.2249368 1607.69325059 1029.22322027 1595.48245423 1007.59814453 1582.55273438 C1005.07725627 1581.04617082 1002.55268111 1579.54596569 1000.02734375 1578.046875 C976.75262983 1564.1998346 954.09894653 1549.52236628 931.62109375 1534.42871094 C927.92594905 1531.94839188 924.22159359 1529.48215952 920.51171875 1527.02392578 C913.6363095 1522.45391664 906.80181409 1517.82766008 899.9921875 1513.16015625 C899.12263428 1512.56464966 898.25308105 1511.96914307 897.35717773 1511.35559082 C895.23785573 1509.90411015 893.11880169 1508.45224006 891 1507 C890.99944384 1508.24023181 890.99888767 1509.48046362 890.99831466 1510.75827822 C890.97925431 1553.22874491 890.95975375 1595.69921139 890.93994141 1638.16967773 C890.93954227 1639.02536514 890.93914313 1639.88105255 890.9387319 1640.76266988 C890.8959286 1732.50023442 890.85022436 1824.23779698 890.79867554 1915.97535706 C890.79753046 1918.01447097 890.79638539 1920.05358488 890.79524031 1922.09269879 C890.77119299 1964.89983523 890.74673879 2007.70697143 890.72181495 2050.51410738 C890.7092942 2072.01945137 890.69685159 2093.52479541 890.68448287 2115.03013949 C890.68261671 2118.27401905 890.68074832 2121.51789861 890.67887984 2124.76177817 C890.65014777 2174.67775244 890.62308533 2224.59372694 890.60089111 2274.50970459 C890.60017597 2276.1179916 890.60017597 2276.1179916 890.59944638 2277.75876925 C890.59177039 2295.04425424 890.58423528 2312.32973929 890.57671889 2329.61522435 C890.55505149 2379.43893741 890.53233203 2429.262649 890.50273705 2479.08635807 C890.50212818 2480.11224386 890.50151932 2481.13812964 890.500892 2482.19510288 C890.48750313 2504.72279506 890.47357916 2527.25048688 890.45914945 2549.77817842 C890.45335169 2558.84434265 890.44763087 2567.91050692 890.44193649 2576.97667122 C890.44131144 2577.96888623 890.44068638 2578.96110125 890.44004238 2579.98338338 C890.41998429 2611.88419015 890.40617364 2643.78499582 890.39568184 2675.68580705 C890.38507287 2707.85513518 890.36825082 2740.02445371 890.34294968 2772.19377382 C890.33944439 2776.65255324 890.33600937 2781.11133272 890.33261681 2785.57011223 C890.3319493 2786.44405948 890.33128179 2787.31800673 890.33059406 2788.21843722 C890.32026155 2801.9838061 890.31652171 2815.74916832 890.31562213 2829.51454072 C890.31459622 2843.09429319 890.30638256 2856.67402627 890.29084408 2870.25377003 C890.28274292 2877.50007623 890.27760321 2884.74635044 890.28172119 2891.99266093 C890.30218543 2932.14726054 889.49999076 2972.13914457 885.90625 3012.15234375 C885.83692261 3012.9308519 885.76759521 3013.70936005 885.69616699 3014.51145935 C880.25009923 3074.65950029 870.74909714 3134.19042472 857 3193 C856.71573151 3194.21698578 856.71573151 3194.21698578 856.42572021 3195.45855713 C846.94112457 3235.90682473 835.29710719 3275.82663669 821.66876221 3315.07116699 C821.02675239 3316.92284118 820.38997054 3318.7763255 819.75341797 3320.62988281 C809.2095673 3351.26608152 797.04888561 3381.35101179 784 3411 C783.42572266 3412.31411865 783.42572266 3412.31411865 782.83984375 3413.65478516 C777.56968608 3425.6944509 771.90234043 3437.53712321 766.15722656 3449.35546875 C763.1996837 3455.439608 760.27030455 3461.53322838 757.42700195 3467.671875 C753.07618918 3477.04192432 748.23671311 3486.09204471 743.234375 3495.12890625 C740.37942527 3500.2875593 737.59958764 3505.48373325 734.82885742 3510.68798828 C727.90074991 3523.67854897 720.61493536 3536.40147999 713 3549 C712.15719482 3550.40113037 712.15719482 3550.40113037 711.29736328 3551.83056641 C697.54145327 3574.68982335 683.15236403 3597.04047172 668 3619 C667.37561035 3619.90556641 666.7512207 3620.81113281 666.10791016 3621.74414062 C655.2559433 3637.44885137 644.04682953 3652.88738078 632.34765625 3667.97265625 C630.35524046 3670.54191122 628.38072582 3673.12382768 626.41064453 3675.71020508 C621.08810115 3682.68263067 615.57768828 3689.49328728 610.02734375 3696.28515625 C607.63710118 3699.21097796 605.27922027 3702.16011924 602.9375 3705.125 C598.30015897 3710.93868959 593.42771572 3716.54848114 588.56884766 3722.17675781 C587.02221978 3723.9741772 585.48428571 3725.77863949 583.94921875 3727.5859375 C578.31628517 3734.21066811 572.58812013 3740.71603818 566.66796875 3747.0859375 C564.62131599 3749.32137375 562.61680628 3751.57650114 560.62890625 3753.86328125 C557.08621169 3757.9268897 553.44170274 3761.88424908 549.75 3765.8125 C549.1003125 3766.50537109 548.450625 3767.19824219 547.78125 3767.91210938 C543.06180943 3772.92419242 538.22855832 3777.79754486 533.33203125 3782.63671875 C531.35680456 3784.63841414 529.50544476 3786.66976114 527.6875 3788.8125 C520.55609097 3797.14970283 512.56388143 3804.95465189 504.1875 3812.03125 C501.00177711 3814.8984006 498.01435993 3817.95450324 495 3821 C490.84747026 3825.19107964 486.69226566 3829.28219741 482.1875 3833.09765625 C479.05411173 3835.82258498 476.03429843 3838.66566057 473 3841.5 C468.07396151 3846.09110909 463.11658324 3850.62094227 458 3855 C456.95430999 3855.8996035 455.90874931 3856.79935733 454.86328125 3857.69921875 C451.24870573 3860.80712542 447.62529459 3863.90460939 444 3867 C443.45682129 3867.4645459 442.91364258 3867.9290918 442.35400391 3868.40771484 C429.31979816 3879.54603612 416.02120147 3890.30730978 402.36328125 3900.671875 C398.58594312 3903.54220829 394.84637298 3906.45833596 391.11279297 3909.38525391 C384.05088023 3914.91815985 376.92503316 3920.30569813 369.5859375 3925.46484375 C367.0286383 3927.26292252 364.49699904 3929.09201054 361.9765625 3930.94140625 C350.44596644 3939.38920129 338.62082045 3947.34454209 326.69238281 3955.21826172 C323.7696282 3957.15245316 320.86021255 3959.10562481 317.953125 3961.06323242 C302.30592884 3971.58051955 286.22305194 3981.40172931 270 3991 C269.06526855 3991.55445801 268.13053711 3992.10891602 267.16748047 3992.68017578 C254.19509469 4000.36213513 241.10028515 4007.75994093 227.80859375 4014.875 C224.17628958 4016.81987459 220.56373547 4018.79256239 216.97265625 4020.8125 C166.10918856 4049.31954877 111.65122754 4071.90823162 57 4092 C56.32578003 4092.24858765 55.65156006 4092.49717529 54.95690918 4092.7532959 C-27.78199894 4123.24195399 -114.48820396 4144.19049735 -285.5 4164.6875 C-286.31675201 4164.74834778 -287.13350403 4164.80919556 -287.9750061 4164.87188721 C-308.68183058 4166.39698225 -329.36693214 4167.1600202 -350.12890625 4167.16796875 C-352.179764 4167.17120223 -354.23062155 4167.17456763 -356.28147888 4167.17805481 C-360.55118338 4167.18398068 -364.82086786 4167.18590178 -369.09057617 4167.18530273 C-373.37837993 4167.18522194 -377.66607578 4167.19210134 -381.95385742 4167.20581055 C-409.03937159 4167.29096279 -435.97342261 4166.84039561 -463 4165 C-464.16721588 4164.92194122 -465.33443176 4164.84388245 -466.53701782 4164.76345825 C-473.32207706 4164.30114795 -480.09921138 4163.7692705 -486.875 4163.1875 C-488.36309677 4163.06152939 -488.36309677 4163.06152939 -489.8812561 4162.93301392 C-579.94836135 4155.24959366 -669.77599047 4137.61195771 -854 4075 C-854.72854187 4074.70438171 -855.45708374 4074.40876343 -856.20770264 4074.10418701 C-874.71054201 4066.58493128 -892.94760734 4058.5493299 -911 4050 C-912.4854834 4049.29955566 -912.4854834 4049.29955566 -914.00097656 4048.58496094 C-940.35427557 4036.13914628 -966.60987244 4023.32319642 -992 4009 C-993.61865967 4008.09000244 -993.61865967 4008.09000244 -995.27001953 4007.16162109 C-1049.35881868 3976.69450354 -1101.20330753 3942.41548336 -1150.25097656 3904.35449219 C-1152.27578228 3902.78642656 -1154.30600319 3901.22548269 -1156.3359375 3899.6640625 C-1164.39793326 3893.44721487 -1172.33668079 3887.13798788 -1180.0625 3880.5078125 C-1182.82297817 3878.15112768 -1185.618603 3875.84875658 -1188.4375 3873.5625 C-1197.76887487 3865.95865371 -1206.87214746 3858.08960279 -1215.78515625 3850 C-1217.77412502 3848.20396471 -1219.78563194 3846.44046697 -1221.8125 3844.6875 C-1226.51988312 3840.58629901 -1231.0838805 3836.33197329 -1235.66015625 3832.0859375 C-1237.71725972 3830.17918123 -1239.78672036 3828.29141649 -1241.87109375 3826.4140625 C-1248.99332699 3819.99318648 -1255.78172863 3813.29126812 -1262.5065918 3806.45654297 C-1266.62636696 3802.28868773 -1270.8434805 3798.35965073 -1275.30029297 3794.55566406 C-1277 3793 -1277 3793 -1278.8671875 3790.5 C-1282.30124515 3786.47473096 -1286.7302858 3783.89524864 -1291.125 3781 C-1293.12500634 3779.65950218 -1295.12368687 3778.31702433 -1297.12109375 3776.97265625 C-1298.61358643 3775.96936279 -1298.61358643 3775.96936279 -1300.13623047 3774.94580078 C-1307.21372495 3770.13696608 -1314.10034614 3765.05894932 -1321 3760 C-1321.79567383 3759.41831055 -1322.59134766 3758.83662109 -1323.41113281 3758.23730469 C-1333.37400581 3750.95114194 -1343.26934489 3743.59406208 -1353 3736 C-1353.57057129 3735.5555957 -1354.14114258 3735.11119141 -1354.72900391 3734.65332031 C-1361.67583545 3729.2390731 -1368.56827818 3723.76765354 -1375.3671875 3718.16796875 C-1377.11729526 3716.72685627 -1378.87249612 3715.29190597 -1380.6328125 3713.86328125 C-1387.59511321 3708.21021784 -1394.40925579 3702.39851703 -1401.20166016 3696.54394531 C-1402.96547724 3695.02963914 -1404.7370689 3693.52502617 -1406.51171875 3692.0234375 C-1413.16964776 3686.37913699 -1419.67733895 3680.61302355 -1426.03125 3674.62719727 C-1428.8854823 3671.94144395 -1431.77285396 3669.31163016 -1434.73535156 3666.74536133 C-1448.99339968 3654.29232685 -1462.33300382 3640.82894819 -1475.69677734 3627.43359375 C-1478.15945601 3624.96514672 -1480.62669975 3622.50131841 -1483.09522438 3620.03871918 C-1485.49561307 3617.64283459 -1487.89216278 3615.24312508 -1490.2890625 3612.84375 C-1491.16204987 3611.97278687 -1492.03503723 3611.10182373 -1492.93447876 3610.20446777 C-1497.2707837 3605.85160498 -1501.47460185 3601.44361257 -1505.46835327 3596.77319336 C-1508.21522176 3593.59313305 -1511.11841414 3590.55754534 -1514 3587.5 C-1518.76648863 3582.41404329 -1523.47591493 3577.30409974 -1528 3572 C-1528.87477272 3570.9789719 -1529.74979699 3569.95815929 -1530.625 3568.9375 C-1532.14013589 3567.170345 -1533.65472391 3565.40273742 -1535.16748047 3563.63354492 C-1538.44955839 3559.79733012 -1541.75383807 3555.98149217 -1545.07177734 3552.17626953 C-1549.78250353 3546.76928239 -1554.42404563 3541.33655965 -1558.859375 3535.69921875 C-1560.53932808 3533.58088375 -1562.23704469 3531.4833667 -1563.953125 3529.39453125 C-1570.42713938 3521.50905103 -1576.69593813 3513.51481571 -1582.7734375 3505.3203125 C-1585.10170744 3502.1862714 -1587.46650668 3499.08322926 -1589.8515625 3495.9921875 C-1597.57054534 3485.98028104 -1604.98004524 3475.84834358 -1612.04296875 3465.36328125 C-1614.68720682 3461.43926959 -1617.41560138 3457.58448704 -1620.1875 3453.75 C-1629.25955605 3441.15345654 -1637.62000041 3428.06251574 -1646 3415 C-1646.46100098 3414.28424805 -1646.92200195 3413.56849609 -1647.39697266 3412.83105469 C-1666.16853583 3383.64535472 -1683.16509938 3353.39022219 -1699.50488281 3322.79052734 C-1700.75078102 3320.46514907 -1702.00691458 3318.14620793 -1703.2734375 3315.83203125 C-1708.70950132 3305.86816354 -1713.56729682 3295.64205051 -1718.40478516 3285.37744141 C-1719.79829978 3282.42704636 -1721.20036389 3279.48088425 -1722.60585022 3276.53617859 C-1762.70414745 3192.45653275 -1792.76800139 3104.11512536 -1839.73571777 2840.06658936 C-1839.90665165 2838.0831642 -1840.0800679 2836.09995073 -1840.25646973 2834.11700439 C-1846.01336238 2769.22536695 -1845.95939585 2701.78553128 -1840.25323486 2636.89221191 C-1839.987125 2633.8529538 -1839.73294404 2630.81283988 -1839.47998047 2627.77246094 C-1831.23371721 2529.83361923 -1811.6944718 2433.33864543 -1773 2316 C-1772.78041626 2315.36294128 -1772.56083252 2314.72588257 -1772.33459473 2314.06951904 C-1748.93664002 2246.30772403 -1719.26866654 2179.56963676 -1683.39355469 2117.43603516 C-1681.66142317 2114.40814303 -1679.98438614 2111.35214547 -1678.31103516 2108.29150391 C-1657.7606241 2070.75252743 -1633.87250714 2034.80166694 -1609 2000 C-1608.44521973 1999.22140625 -1607.89043945 1998.4428125 -1607.31884766 1997.640625 C-1600.82686803 1988.54107382 -1594.21520058 1979.56331402 -1587.34814453 1970.74267578 C-1585.82417903 1968.77272545 -1584.31546523 1966.79164914 -1582.80859375 1964.80859375 C-1577.43261055 1957.73460188 -1572.03396636 1950.70151791 -1566.36328125 1943.859375 C-1564.5551057 1941.67163202 -1562.76254168 1939.47448525 -1560.98046875 1937.265625 C-1555.16779115 1930.06349053 -1549.29047295 1922.93534162 -1543.23461914 1915.93603516 C-1540.29329686 1912.53131725 -1537.43492744 1909.07750149 -1534.625 1905.5625 C-1530.36432123 1900.30662619 -1525.78684621 1895.38493497 -1521.13525391 1890.47680664 C-1518.20533907 1887.38290717 -1515.33013468 1884.25976409 -1512.53515625 1881.04296875 C-1508.96945768 1876.93993921 -1505.29014396 1872.9559721 -1501.5625 1869 C-1500.53684937 1867.90957397 -1500.53684937 1867.90957397 -1499.49047852 1866.79711914 C-1493.93824656 1860.92548016 -1488.26088932 1855.18842393 -1482.49243164 1849.52929688 C-1479.36480286 1846.44451232 -1476.38107199 1843.32065043 -1473.53515625 1839.97265625 C-1470.6247489 1836.59234151 -1467.49206627 1833.72411122 -1464.09765625 1830.83984375 C-1460.20563872 1827.42617474 -1456.62786202 1823.68977092 -1453 1820 C-1448.12138604 1815.03813324 -1443.21215936 1810.21611814 -1437.93359375 1805.6796875 C-1434.70588466 1802.875819 -1431.61097959 1799.93194501 -1428.5 1797 C-1423.41400209 1792.23347275 -1418.30341454 1787.52493167 -1413 1783 C-1411.96722944 1782.11353572 -1410.93470072 1781.22678965 -1409.90234375 1780.33984375 C-1407.50772736 1778.28349779 -1405.11015261 1776.23066532 -1402.7109375 1774.1796875 C-1400.2917862 1772.11029302 -1397.88061267 1770.03222693 -1395.4765625 1767.9453125 C-1389.2334558 1762.53648957 -1382.91095684 1757.27863891 -1376.38623047 1752.21240234 C-1371.90721124 1748.73175613 -1367.51042219 1745.16005804 -1363.125 1741.5625 C-1355.89986776 1735.65578436 -1348.49059936 1730.03174803 -1340.99121094 1724.47949219 C-1339.0108604 1723.0080694 -1337.03920362 1721.5257762 -1335.0703125 1720.0390625 C-1318.43362607 1707.47687736 -1301.48565482 1695.53686344 -1284.08789062 1684.04833984 C-1281.06430664 1682.04265755 -1278.05363263 1680.01908306 -1275.046875 1677.98828125 C-1260.6070859 1668.24976342 -1245.9165374 1658.99037088 -1231 1650 C-1230.04883301 1649.42652832 -1229.09766602 1648.85305664 -1228.11767578 1648.26220703 C-1154.77934879 1604.19198727 -1077.44135577 1568.33874272 -659.85412598 1471.19140625 C-657.17557333 1471.01177447 -654.49746549 1470.82643596 -651.81933594 1470.640625 C-573.7818696 1465.34717819 -494.4312548 1468.83100887 -416.875 1478.25 C-416.19055817 1478.33272156 -415.50611633 1478.41544312 -414.80093384 1478.50067139 C-404.19919729 1479.80080271 -404.19919729 1479.80080271 -403 1481 C-402.90327305 1482.99961455 -402.8781297 1485.00270193 -402.87974548 1487.00465393 C-402.87837082 1488.31022247 -402.87699615 1489.61579102 -402.87557983 1490.96092224 C-402.87911945 1492.42129539 -402.88275427 1493.88166831 -402.88647461 1495.34204102 C-402.88675647 1496.86926268 -402.88659877 1498.39648447 -402.8860321 1499.92370605 C-402.88574409 1504.08261688 -402.89164145 1508.24149911 -402.89860606 1512.40040326 C-402.90483894 1516.74194524 -402.90544335 1521.08348781 -402.90663147 1525.42503357 C-402.90974498 1533.65213582 -402.91795863 1541.87922486 -402.92798096 1550.10632128 C-402.93914149 1559.47013064 -402.94465239 1568.83394062 -402.94967639 1578.19775498 C-402.96014123 1597.46517749 -402.97774105 1616.73258769 -403 1636 C-402.10921061 1635.99736302 -401.21842121 1635.99472605 -400.3006382 1635.99200916 C-391.7683646 1635.96788523 -383.23610299 1635.94997153 -374.7038027 1635.93847305 C-370.32075928 1635.93236228 -365.93774479 1635.92412118 -361.55471802 1635.91041565 C-307.96966365 1635.74743407 -255.14150234 1640.0684997 -202 1647 C-202 1878.33 -202 2109.66 -202 2348 C-207.07161223 2347.27548397 -211.67492031 2346.36924588 -216.546875 2344.9609375 C-218.02784803 2344.54370432 -219.50906018 2344.12731924 -220.99047852 2343.71166992 C-221.76481232 2343.49352631 -222.53914612 2343.27538269 -223.33694458 2343.05062866 C-261.77473457 2332.28847525 -301.149395 2325.52995668 -341 2323 C-341.78455566 2322.94360352 -342.56911133 2322.88720703 -343.37744141 2322.82910156 C-420.22440905 2317.31087869 -498.19673539 2329.50426044 -664 2397 C-665.20245361 2397.68811768 -665.20245361 2397.68811768 -666.42919922 2398.39013672 C-688.52387892 2411.10453514 -709.75206627 2425.52687949 -730 2441 C-730.63679688 2441.4851709 -731.27359375 2441.9703418 -731.9296875 2442.47021484 C-744.16318536 2451.82922785 -755.80574786 2461.84828151 -767.0859375 2472.33203125 C-769.21845831 2474.28445982 -771.36940396 2476.17086979 -773.56640625 2478.046875 C-778.91420274 2482.70975385 -783.89546612 2487.74586616 -788.90014648 2492.76977539 C-790.5592732 2494.43426277 -792.22368051 2496.09333447 -793.88867188 2497.75195312 C-799.46971765 2503.32914239 -804.89806763 2508.97646026 -810 2515 C-811.03314081 2516.18015284 -812.06828777 2517.35855255 -813.10546875 2518.53515625 C-820.65817817 2527.16145793 -827.96233323 2535.94823337 -835 2545 C-835.47759766 2545.61391602 -835.95519531 2546.22783203 -836.44726562 2546.86035156 C-890.9021216 2617.26849078 -927.70329035 2699.67654651 -956.25 2898.75 C-956.25067474 2899.83926788 -956.25134949 2900.92853577 -956.25204468 2902.05081177 C-956.18248432 2973.40998586 -943.10937278 3045.83962575 -916 3112 C-915.61972656 3112.94407715 -915.23945312 3113.8881543 -914.84765625 3114.86083984 C-898.16513036 3156.14742648 -877.44758456 3196.09113311 -851 3232 C-850.09988321 3233.26872341 -849.20285353 3234.5396415 -848.30859375 3235.8125 C-847.8597583 3236.44978027 -847.41092285 3237.08706055 -846.94848633 3237.74365234 C-846.09571658 3238.95587216 -845.24512139 3240.16962612 -844.3972168 3241.38525391 C-840.5170189 3246.86689323 -837.14296366 3250.20282073 -831.03125 3253.06640625 C-830.44785858 3253.34150528 -829.86446716 3253.61660431 -829.26339722 3253.90003967 C-827.34712181 3254.79842672 -825.42443318 3255.68173479 -823.5 3256.5625 C-822.4992746 3257.0241153 -822.4992746 3257.0241153 -821.47833252 3257.49505615 C-765.34639842 3283.34346737 -705.35379361 3299.8800261 -644 3307 C-643.28038086 3307.0835675 -642.56076172 3307.16713501 -641.81933594 3307.25323486 C-599.61414188 3312.06017484 -556.18210257 3311.99995839 -514 3307 C-512.91733856 3306.87271515 -512.91733856 3306.87271515 -511.81280518 3306.74285889 C-415.94102672 3295.34284923 -324.1261025 3260.288312 -218 3184 C-217.07058594 3183.25363281 -216.14117188 3182.50726562 -215.18359375 3181.73828125 C-197.73794352 3167.59384577 -181.39731343 3152.47590231 -165.5 3136.625 C-164.72175873 3135.85077698 -164.72175873 3135.85077698 -163.92779541 3135.06091309 C-158.06481356 3129.22092696 -152.36177765 3123.30957523 -147 3117 C-145.96668792 3115.81999712 -144.93154856 3114.6415917 -143.89453125 3113.46484375 C-117.67102278 3083.51676378 -94.43961376 3050.75135353 -75 3016 C-74.41976074 3014.9682666 -73.83952148 3013.9365332 -73.24169922 3012.87353516 C-30.94837767 2937.19015831 -6.78377363 2852.2345253 -0.86938947 2729.88294959 C-0.86781692 2727.9281645 -0.8658091 2725.97337972 -0.86341216 2724.01859547 C-0.85810622 2718.67513804 -0.85892475 2713.33169695 -0.86079345 2707.98823788 C-0.86172501 2702.14267778 -0.85684134 2696.29712192 -0.85272202 2690.4515636 C-0.84627608 2680.1765644 -0.84348132 2669.90156891 -0.84316199 2659.62656781 C-0.84279722 2648.54956759 -0.84022258 2637.47257103 -0.8350333 2626.39557198 C-0.83470492 2625.69177027 -0.83437654 2624.98796856 -0.8340382 2624.26283953 C-0.83235159 2620.66897014 -0.83063017 2617.07510076 -0.82889687 2613.4812314 C-0.81632766 2587.26532414 -0.80863821 2561.04941719 -0.80341911 2534.83350754 C-0.79811404 2508.26696286 -0.79063171 2481.70042009 -0.78049088 2455.1338768 C-0.78017188 2454.29564295 -0.77985288 2453.4574091 -0.77952421 2452.59377423 C-0.77659997 2444.91179695 -0.77365154 2437.22981968 -0.77067431 2429.54784242 C-0.76321025 2410.28581608 -0.75607427 2391.02378963 -0.74915612 2371.7617631 C-0.74883889 2370.8791665 -0.74852167 2369.9965699 -0.74819483 2369.08722796 C-0.73259035 2325.59035636 -0.72071174 2282.09348383 -0.70907402 2238.59661102 C-0.70497525 2223.28677971 -0.70085877 2207.97694841 -0.69667697 2192.66711712 C-0.69641702 2191.71538946 -0.69615708 2190.76366181 -0.69588925 2189.78309392 C-0.68382257 2145.6836303 -0.66920646 2101.58416764 -0.65393867 2057.48470503 C-0.65294008 2054.60001373 -0.6519427 2051.71532244 -0.65094561 2048.83063115 C-0.64493202 2031.43574618 -0.63889188 2014.04086122 -0.63282111 1996.64597627 C-0.61773082 1953.40371537 -0.60295883 1910.16145436 -0.58840275 1866.91919327 C-0.58807123 1865.93479775 -0.5877397 1864.95040224 -0.58739814 1863.93617656 C-0.56593167 1800.1877663 -0.54577545 1736.4393557 -0.52671719 1672.69094467 C-0.52641293 1671.67328286 -0.52610868 1670.65562106 -0.52579521 1669.60712101 C-0.51653649 1638.62924283 -0.50737479 1607.65136461 -0.49823208 1576.67348639 C-0.48811414 1542.3927165 -0.47797964 1508.11194662 -0.46777344 1473.83117676 C-0.46746659 1472.80032995 -0.46715973 1471.76948315 -0.46684358 1470.70739857 C-0.43768952 1372.78484918 -0.40586359 1274.86230071 -0.37334755 1176.93975239 C-0.37197034 1172.79166336 -0.37059389 1168.64357432 -0.36921749 1164.49548529 C-0.35655133 1126.32363575 -0.34385382 1088.15178622 -0.33111694 1049.9799367 C-0.33060891 1048.45738971 -0.33060891 1048.45738971 -0.33009062 1046.90408419 C-0.32906517 1043.83084218 -0.3280397 1040.75760017 -0.32701423 1037.68435817 C-0.29931151 954.66103559 -0.27188218 871.63771291 -0.24463 788.61439018 C-0.24366841 785.68512957 -0.24270661 782.75586897 -0.24174474 779.82660836 C-0.21049186 684.64646117 -0.17972294 589.46631384 -0.12762691 421.40036331 C-0.12682834 418.80871375 -0.12602951 416.21706419 -0.12523057 413.62541463 C-0.12496906 412.77707675 -0.12470756 411.92873886 -0.12443813 411.05469376 C-0.12396218 409.51071037 -0.1234862 407.96672698 -0.12301016 406.4227436 C-0.08125218 270.94849596 -0.04079838 135.47424793 0 0 Z " fill="#000000" transform="translate(1843,0)"/>
<path d="M0 0 C6.13897342 0.61389734 11.73625672 1.22765234 17.70703125 2.41796875 C19.17114689 2.70353166 20.63542941 2.98823996 22.09985352 3.2722168 C22.86451935 3.42137543 23.62918518 3.57053406 24.41702271 3.72421265 C74.01439987 13.31638772 124.57547112 18.30944735 175.05981445 19.55224609 C177.15324749 19.60475655 179.24653317 19.6615922 181.33984375 19.71875 C182.55019287 19.74904297 183.76054199 19.77933594 185.00756836 19.81054688 C190.01511401 20.04817027 195.00740763 20.54612797 200 21 C200 247.05 200 473.1 200 706 C144.99945122 706 144.99945122 706 129.4375 705.25 C128.01147461 705.18564758 128.01147461 705.18564758 126.55664062 705.11999512 C16.80856673 700.13913469 -92.14500359 684.35724565 -331.78106689 618.76177979 C-334.0264476 617.9909203 -336.27272086 617.22270112 -338.51904297 616.45458984 C-398.92607725 595.76066531 -457.8178748 571.12667508 -515.24949646 543.23776245 C-520.99420005 540.44812709 -526.75226153 537.69103043 -532.53076172 534.97216797 C-542.2498074 530.39344195 -551.79054712 525.54776016 -561.25732422 520.46923828 C-564.34606863 518.81461269 -567.44052584 517.17093337 -570.53515625 515.52734375 C-592.7750632 503.69325059 -614.77677973 491.48245423 -636.40185547 478.55273438 C-638.92274373 477.04617082 -641.44731889 475.54596569 -643.97265625 474.046875 C-667.24737017 460.1998346 -689.90105347 445.52236628 -712.37890625 430.42871094 C-716.07405095 427.94839188 -719.77840641 425.48215952 -723.48828125 423.02392578 C-730.3636905 418.45391664 -737.19818591 413.82766008 -744.0078125 409.16015625 C-744.87736572 408.56464966 -745.74691895 407.96914307 -746.64282227 407.35559082 C-748.76214427 405.90411015 -750.88119831 404.45224006 -753 403 C-753.00055616 404.24023181 -753.00111233 405.48046362 -753.00168534 406.75827822 C-753.02074569 449.22874491 -753.04024625 491.69921139 -753.06005859 534.16967773 C-753.06045773 535.02536514 -753.06085687 535.88105255 -753.0612681 536.76266988 C-753.1040714 628.50023442 -753.14977564 720.23779698 -753.20132446 811.97535706 C-753.20246954 814.01447097 -753.20361461 816.05358488 -753.20475969 818.09269879 C-753.22880701 860.89983523 -753.25326121 903.70697143 -753.27818505 946.51410738 C-753.2907058 968.01945137 -753.30314841 989.52479541 -753.31551713 1011.03013949 C-753.31738329 1014.27401905 -753.31925168 1017.51789861 -753.32112016 1020.76177817 C-753.34985223 1070.67775244 -753.37691467 1120.59372694 -753.39910889 1170.50970459 C-753.39982403 1172.1179916 -753.39982403 1172.1179916 -753.40055362 1173.75876925 C-753.40822961 1191.04425424 -753.41576472 1208.32973929 -753.42328111 1225.61522435 C-753.44494851 1275.43893741 -753.46766797 1325.262649 -753.49726295 1375.08635807 C-753.49817625 1376.62518675 -753.49817625 1376.62518675 -753.499108 1378.19510288 C-753.51249687 1400.72279506 -753.52642084 1423.25048688 -753.54085055 1445.77817842 C-753.54664831 1454.84434265 -753.55236913 1463.91050692 -753.55806351 1472.97667122 C-753.55868856 1473.96888623 -753.55931362 1474.96110125 -753.55995762 1475.98338338 C-753.58001571 1507.88419015 -753.59382636 1539.78499582 -753.60431816 1571.68580705 C-753.61492713 1603.85513518 -753.63174918 1636.02445371 -753.65705032 1668.19377382 C-753.66055561 1672.65255324 -753.66399063 1677.11133272 -753.66738319 1681.57011223 C-753.6680507 1682.44405948 -753.66871821 1683.31800673 -753.66940594 1684.21843722 C-753.67973845 1697.9838061 -753.68347829 1711.74916832 -753.68437787 1725.51454072 C-753.68540378 1739.09429319 -753.69361744 1752.67402627 -753.70915592 1766.25377003 C-753.71725708 1773.50007623 -753.72239679 1780.74635044 -753.71827881 1787.99266093 C-753.69781457 1828.14726054 -754.50000924 1868.13914457 -758.09375 1908.15234375 C-758.16307739 1908.9308519 -758.23240479 1909.70936005 -758.30383301 1910.51145935 C-763.74990077 1970.65950029 -773.25090286 2030.19042472 -787 2089 C-787.28426849 2090.21698578 -787.28426849 2090.21698578 -787.57427979 2091.45855713 C-797.05887543 2131.90682473 -808.70289281 2171.82663669 -822.33123779 2211.07116699 C-822.97324761 2212.92284118 -823.61002946 2214.7763255 -824.24658203 2216.62988281 C-834.7904327 2247.26608152 -846.95111439 2277.35101179 -860 2307 C-860.57427734 2308.31411865 -860.57427734 2308.31411865 -861.16015625 2309.65478516 C-866.43031392 2321.6944509 -872.09765957 2333.53712321 -877.84277344 2345.35546875 C-880.8003163 2351.439608 -883.72969545 2357.53322838 -886.57299805 2363.671875 C-890.92381082 2373.04192432 -895.76328689 2382.09204471 -900.765625 2391.12890625 C-903.62057473 2396.2875593 -906.40041236 2401.48373325 -909.17114258 2406.68798828 C-916.09925009 2419.67854897 -923.38506464 2432.40147999 -931 2445 C-931.84280518 2446.40113037 -931.84280518 2446.40113037 -932.70263672 2447.83056641 C-946.45854673 2470.68982335 -960.84763597 2493.04047172 -976 2515 C-976.62438965 2515.90556641 -977.2487793 2516.81113281 -977.89208984 2517.74414062 C-988.7440567 2533.44885137 -999.95317047 2548.88738078 -1011.65234375 2563.97265625 C-1013.64475954 2566.54191122 -1015.61927418 2569.12382768 -1017.58935547 2571.71020508 C-1022.91189885 2578.68263067 -1028.42231172 2585.49328728 -1033.97265625 2592.28515625 C-1036.36289882 2595.21097796 -1038.72077973 2598.16011924 -1041.0625 2601.125 C-1045.69984103 2606.93868959 -1050.57228428 2612.54848114 -1055.43115234 2618.17675781 C-1056.97778022 2619.9741772 -1058.51571429 2621.77863949 -1060.05078125 2623.5859375 C-1065.68371483 2630.21066811 -1071.41187987 2636.71603818 -1077.33203125 2643.0859375 C-1079.37868401 2645.32137375 -1081.38319372 2647.57650114 -1083.37109375 2649.86328125 C-1086.91378831 2653.9268897 -1090.55829726 2657.88424908 -1094.25 2661.8125 C-1095.22453125 2662.85180664 -1095.22453125 2662.85180664 -1096.21875 2663.91210938 C-1100.93819057 2668.92419242 -1105.77144168 2673.79754486 -1110.66796875 2678.63671875 C-1112.64319544 2680.63841414 -1114.49455524 2682.66976114 -1116.3125 2684.8125 C-1123.44390903 2693.14970283 -1131.43611857 2700.95465189 -1139.8125 2708.03125 C-1142.99822289 2710.8984006 -1145.98564007 2713.95450324 -1149 2717 C-1153.15252974 2721.19107964 -1157.30773434 2725.28219741 -1161.8125 2729.09765625 C-1164.94588827 2731.82258498 -1167.96570157 2734.66566057 -1171 2737.5 C-1175.92603849 2742.09110909 -1180.88341676 2746.62094227 -1186 2751 C-1187.04569001 2751.8996035 -1188.09125069 2752.79935733 -1189.13671875 2753.69921875 C-1192.75129427 2756.80712542 -1196.37470541 2759.90460939 -1200 2763 C-1200.54317871 2763.4645459 -1201.08635742 2763.9290918 -1201.64599609 2764.40771484 C-1214.68020184 2775.54603612 -1227.97879853 2786.30730978 -1241.63671875 2796.671875 C-1245.41405688 2799.54220829 -1249.15362702 2802.45833596 -1252.88720703 2805.38525391 C-1259.94911977 2810.91815985 -1267.07496684 2816.30569813 -1274.4140625 2821.46484375 C-1276.9713617 2823.26292252 -1279.50300096 2825.09201054 -1282.0234375 2826.94140625 C-1293.55403356 2835.38920129 -1305.37917955 2843.34454209 -1317.30761719 2851.21826172 C-1320.2303718 2853.15245316 -1323.13978745 2855.10562481 -1326.046875 2857.06323242 C-1341.69407116 2867.58051955 -1357.77694806 2877.40172931 -1374 2887 C-1374.93473145 2887.55445801 -1375.86946289 2888.10891602 -1376.83251953 2888.68017578 C-1389.80490531 2896.36213513 -1402.89971485 2903.75994093 -1416.19140625 2910.875 C-1419.82371042 2912.81987459 -1423.43626453 2914.79256239 -1427.02734375 2916.8125 C-1477.89081144 2945.31954877 -1532.34877246 2967.90823162 -1587 2988 C-1587.67421997 2988.24858765 -1588.34843994 2988.49717529 -1589.04309082 2988.7532959 C-1671.78199894 3019.24195399 -1758.48820396 3040.19049735 -1929.5 3060.6875 C-1930.72512802 3060.77877167 -1930.72512802 3060.77877167 -1931.9750061 3060.87188721 C-1952.68183058 3062.39698225 -1973.36693214 3063.1600202 -1994.12890625 3063.16796875 C-1996.179764 3063.17120223 -1998.23062155 3063.17456763 -2000.28147888 3063.17805481 C-2004.55118338 3063.18398068 -2008.82086786 3063.18590178 -2013.09057617 3063.18530273 C-2017.37837993 3063.18522194 -2021.66607578 3063.19210134 -2025.95385742 3063.20581055 C-2053.03937159 3063.29096279 -2079.97342261 3062.84039561 -2107 3061 C-2108.75082382 3060.88291183 -2108.75082382 3060.88291183 -2110.53701782 3060.76345825 C-2117.32207706 3060.30114795 -2124.09921138 3059.7692705 -2130.875 3059.1875 C-2131.86706451 3059.10351959 -2132.85912903 3059.01953918 -2133.8812561 3058.93301392 C-2223.94836135 3051.24959366 -2313.77599047 3033.61195771 -2498 2971 C-2498.72854187 2970.70438171 -2499.45708374 2970.40876343 -2500.20770264 2970.10418701 C-2518.71054201 2962.58493128 -2536.94760734 2954.5493299 -2555 2946 C-2555.99032227 2945.53303711 -2556.98064453 2945.06607422 -2558.00097656 2944.58496094 C-2584.35427557 2932.13914628 -2610.60987244 2919.32319642 -2636 2905 C-2637.61865967 2904.09000244 -2637.61865967 2904.09000244 -2639.27001953 2903.16162109 C-2693.35881868 2872.69450354 -2745.20330753 2838.41548336 -2794.25097656 2800.35449219 C-2796.27578228 2798.78642656 -2798.30600319 2797.22548269 -2800.3359375 2795.6640625 C-2808.39793326 2789.44721487 -2816.33668079 2783.13798788 -2824.0625 2776.5078125 C-2826.82297817 2774.15112768 -2829.618603 2771.84875658 -2832.4375 2769.5625 C-2841.76887487 2761.95865371 -2850.87214746 2754.08960279 -2859.78515625 2746 C-2861.77412502 2744.20396471 -2863.78563194 2742.44046697 -2865.8125 2740.6875 C-2870.51988312 2736.58629901 -2875.0838805 2732.33197329 -2879.66015625 2728.0859375 C-2881.71725972 2726.17918123 -2883.78672036 2724.29141649 -2885.87109375 2722.4140625 C-2892.99332699 2715.99318648 -2899.78172863 2709.29126812 -2906.5065918 2702.45654297 C-2910.60982485 2698.3054229 -2914.78065825 2694.35359766 -2919.26464844 2690.61425781 C-2921.11653006 2688.89160147 -2922.54240412 2687.06166478 -2924 2685 C-2920.40563156 2685.64763395 -2917.9201702 2687.16348622 -2914.8828125 2689.15625 C-2913.42343262 2690.10564453 -2913.42343262 2690.10564453 -2911.93457031 2691.07421875 C-2910.96616211 2691.70972656 -2909.99775391 2692.34523438 -2909 2693 C-2907.33203852 2694.07495106 -2905.66281825 2695.14795208 -2903.9921875 2696.21875 C-2903.16388428 2696.75064941 -2902.33558105 2697.28254883 -2901.48217773 2697.83056641 C-2881.68718391 2710.50573897 -2861.47729152 2722.4640843 -2841 2734 C-2840.2579834 2734.42055664 -2839.5159668 2734.84111328 -2838.75146484 2735.27441406 C-2827.3438816 2741.73674985 -2815.75395308 2747.82024254 -2804.10546875 2753.8359375 C-2799.60484863 2756.16140938 -2795.12543338 2758.52263661 -2790.65698242 2760.90917969 C-2752.47492716 2781.2522454 -2712.18283832 2798.44326583 -2671.6875 2813.625 C-2671.04716827 2813.86534973 -2670.40683655 2814.10569946 -2669.74710083 2814.35333252 C-2661.63307433 2817.38827874 -2653.46853808 2820.21747023 -2645.23486328 2822.90600586 C-2642.50338888 2823.82975958 -2639.84705043 2824.8271874 -2637.1875 2825.9375 C-2626.22664165 2830.44221217 -2614.80015814 2833.84421323 -2603.39453125 2837.01171875 C-2599.88889838 2838.03234604 -2596.45213871 2839.1865588 -2593 2840.375 C-2585.90365468 2842.777179 -2578.73165356 2844.77252456 -2571.49536133 2846.70751953 C-2567.10383785 2847.88210459 -2562.72015898 2849.0653477 -2558.36328125 2850.36328125 C-2526.71490794 2859.78959857 -2494.42481703 2866.6042393 -2461.98606873 2872.65653992 C-2457.28800627 2873.53815142 -2452.62091534 2874.51017076 -2447.9581604 2875.56259155 C-2429.98837066 2879.57663342 -2411.55311005 2881.67878288 -2393.32133484 2884.14248657 C-2389.04696814 2884.72014127 -2384.77455007 2885.30933333 -2380.50390625 2885.9140625 C-2368.69102492 2887.58184719 -2356.88262522 2888.94050667 -2345 2890 C-2343.68628418 2890.11875488 -2342.37256836 2890.23750977 -2341.01904297 2890.35986328 C-2324.70256923 2891.82731009 -2308.40828766 2893.23521373 -2292.02661133 2893.70922852 C-2287.82701438 2893.83117756 -2283.6919057 2894.01751232 -2279.51757812 2894.50048828 C-2270.18791737 2895.3640999 -2260.80237213 2895.18429092 -2251.44140625 2895.203125 C-2249.31190972 2895.21017274 -2247.18241346 2895.21730548 -2245.05291748 2895.22451782 C-2238.22277522 2895.24422208 -2231.39266796 2895.24921209 -2224.5625 2895.25 C-2223.402131 2895.25029457 -2222.24176201 2895.25058914 -2221.04623032 2895.25089264 C-2186.93147977 2895.25229587 -2152.99891198 2895.08183126 -2119 2892 C-2116.65072936 2891.79379469 -2114.30144484 2891.58774752 -2111.95214844 2891.38183594 C-2072.53337636 2887.88056792 -2033.32461198 2883.08180767 -1994.47444153 2875.48176575 C-1990.97173929 2874.79980097 -1987.46609637 2874.13355431 -1983.96034241 2873.46748352 C-1981.40162373 2872.98130777 -1978.84335525 2872.49280834 -1976.28515625 2872.00390625 C-1972.66968141 2871.3147632 -1969.05235118 2870.6365286 -1965.43359375 2869.96484375 C-1957.25195923 2868.43985813 -1949.12239339 2866.89933088 -1941.0703125 2864.77734375 C-1937.12856407 2863.77936927 -1933.16060062 2862.92551466 -1929.1875 2862.0625 C-1922.47943182 2860.59404643 -1915.85057265 2858.94057452 -1909.2265625 2857.125 C-1905.96209138 2856.24123931 -1902.68446629 2855.42480908 -1899.3984375 2854.625 C-1889.01130583 2852.09485482 -1878.75179119 2849.42539639 -1868.58642578 2846.10766602 C-1863.96351657 2844.60208492 -1859.33944642 2843.26281951 -1854.625 2842.0625 C-1840.44412319 2838.37638594 -1826.64173116 2833.2729822 -1812.83520508 2828.3972168 C-1799.04754098 2823.52850687 -1799.04754098 2823.52850687 -1792.1875 2821.625 C-1787.31765872 2820.1873807 -1782.73631967 2818.25365504 -1778.07421875 2816.25390625 C-1775.05950036 2815.02426889 -1772.03803408 2813.99072693 -1768.9375 2813 C-1764.07067654 2811.42822433 -1759.54616379 2809.46886671 -1754.92578125 2807.2890625 C-1751.60543695 2805.82616047 -1748.23981505 2804.62738787 -1744.8125 2803.4375 C-1740.36398636 2801.88704085 -1736.19781373 2800.23322093 -1732.04296875 2798.02734375 C-1728.48538923 2796.23835061 -1724.77586958 2794.80393954 -1721.09375 2793.29296875 C-1717.2444158 2791.68421923 -1713.45493271 2789.96057356 -1709.66796875 2788.2109375 C-1707.7018284 2787.31854583 -1705.72215228 2786.4558324 -1703.7355957 2785.60986328 C-1700.31430267 2784.14639424 -1696.93511169 2782.60419075 -1693.5625 2781.03125 C-1692.67232178 2780.61647903 -1692.67232178 2780.61647903 -1691.76416016 2780.19332886 C-1689.84206946 2779.29705097 -1687.92088851 2778.39885133 -1686 2777.5 C-1685.33693848 2777.18975891 -1684.67387695 2776.87951782 -1683.99072266 2776.55987549 C-1680.60098649 2774.97314935 -1677.21218486 2773.3844472 -1673.82421875 2771.79394531 C-1671.45317838 2770.68095072 -1669.0807414 2769.57117622 -1666.70703125 2768.46386719 C-1654.52867795 2762.78037307 -1642.62858296 2756.75506769 -1630.875 2750.23828125 C-1625.43275744 2747.22280791 -1619.94615196 2744.29418012 -1614.45263672 2741.3737793 C-1580.51952748 2723.33461004 -1547.98615599 2703.0280786 -1516 2681.75 C-1515.30739075 2681.29004639 -1514.61478149 2680.83009277 -1513.90118408 2680.35620117 C-1504.46633438 2674.08479613 -1495.1769122 2667.64300523 -1486 2661 C-1485.02691895 2660.29601074 -1484.05383789 2659.59202148 -1483.05126953 2658.86669922 C-1480.36270435 2656.91766089 -1477.6810476 2654.95936588 -1475 2653 C-1473.81382597 2652.13668593 -1472.62762657 2651.27340672 -1471.44140625 2650.41015625 C-1463.73112387 2644.78909239 -1456.11343388 2639.06574079 -1448.57519531 2633.21630859 C-1447.02261459 2632.01746216 -1445.46057882 2630.83089298 -1443.8984375 2629.64453125 C-1435.39040758 2623.17378393 -1427.14471923 2616.41050609 -1418.91845703 2609.58642578 C-1416.39576505 2607.50034122 -1413.85434706 2605.43767707 -1411.3125 2603.375 C-1402.07617922 2595.82311462 -1393.0535492 2588.02119968 -1384.21875 2580.00390625 C-1382.20691607 2578.18688018 -1380.17339566 2576.40055608 -1378.125 2574.625 C-1373.19139797 2570.32543518 -1368.39103463 2565.88104585 -1363.57763672 2561.44824219 C-1362.01616855 2560.01484244 -1360.4486384 2558.58840344 -1358.87890625 2557.1640625 C-1353.55716868 2552.32795878 -1348.33323215 2547.43349986 -1343.328125 2542.265625 C-1341.39823001 2540.38753927 -1339.43611362 2538.6388211 -1337.39453125 2536.88671875 C-1332.17179864 2532.35064506 -1327.31647941 2527.4623744 -1322.4375 2522.5625 C-1321.53064453 2521.65951172 -1320.62378906 2520.75652344 -1319.68945312 2519.82617188 C-1315.13489958 2515.26501274 -1310.73264785 2510.6451911 -1306.53540039 2505.75366211 C-1304.30513726 2503.20636046 -1301.92261287 2500.86561021 -1299.5 2498.5 C-1295.81850419 2494.86775706 -1292.29992256 2491.15966834 -1288.94140625 2487.2265625 C-1286.35517751 2484.26046515 -1283.67730645 2481.38378885 -1281 2478.5 C-1276.58475219 2473.7338537 -1272.23149837 2468.93091959 -1268 2464 C-1267.57783203 2463.50951172 -1267.15566406 2463.01902344 -1266.72070312 2462.51367188 C-1263.13759232 2458.3505788 -1259.56663467 2454.17721154 -1256 2450 C-1255.5354541 2449.45682129 -1255.0709082 2448.91364258 -1254.59228516 2448.35400391 C-1243.05059562 2434.84777147 -1231.9047089 2421.02445034 -1221 2407 C-1220.58153809 2406.46310547 -1220.16307617 2405.92621094 -1219.73193359 2405.37304688 C-1212.98375354 2396.70546641 -1206.45449583 2387.88784709 -1200 2379 C-1199.46938965 2378.27055176 -1198.9387793 2377.54110352 -1198.39208984 2376.78955078 C-1192.19968531 2368.27158262 -1186.05460075 2359.72898371 -1180.09375 2351.046875 C-1178.70762484 2349.02975257 -1177.31189509 2347.01919375 -1175.90625 2345.015625 C-1169.0138766 2335.17651224 -1162.49795408 2325.10228799 -1156 2315 C-1155.40960937 2314.08412109 -1154.81921875 2313.16824219 -1154.2109375 2312.22460938 C-1146.9404793 2300.93336748 -1139.87285942 2289.56369616 -1133.13818359 2277.9453125 C-1131.6577824 2275.41510299 -1130.13871694 2272.90942829 -1128.6171875 2270.40380859 C-1123.65120424 2262.2190521 -1118.9717507 2253.8905081 -1114.36962891 2245.49658203 C-1112.91097686 2242.83772716 -1111.44567423 2240.18259219 -1109.98046875 2237.52734375 C-1108.94491535 2235.64344742 -1107.90975294 2233.75933611 -1106.875 2231.875 C-1106.40860107 2231.02993896 -1105.94220215 2230.18487793 -1105.46166992 2229.31420898 C-1101.84653755 2222.70559897 -1098.46586751 2215.99297747 -1095.11523438 2209.24804688 C-1093.01172804 2205.0147282 -1090.8764208 2200.79793266 -1088.73828125 2196.58203125 C-1077.77765289 2174.91624979 -1067.31690276 2153.12100625 -1058.13183594 2130.63183594 C-1057.04492646 2128.10446662 -1055.84654407 2125.68212414 -1054.5625 2123.25 C-1051.72678971 2117.72125667 -1049.64685733 2111.95458196 -1047.52734375 2106.125 C-1046.43972418 2103.14572641 -1045.28812096 2100.19906597 -1044.1015625 2097.2578125 C-1041.78236909 2091.49973915 -1039.60660013 2085.69096832 -1037.4375 2079.875 C-1037.05142578 2078.84246094 -1036.66535156 2077.80992187 -1036.26757812 2076.74609375 C-1035.54562138 2074.81513619 -1034.82412079 2072.88400797 -1034.10327148 2070.95263672 C-1033.50369577 2069.34801873 -1032.90340628 2067.74366355 -1032.29937744 2066.14071655 C-1023.61022491 2043.06403704 -1015.7223485 2019.75190913 -1008.88427734 1996.06103516 C-1007.91031564 1992.68954651 -1006.91375044 1989.3252286 -1005.9128418 1985.96166992 C-1005.13042577 1983.32360108 -1004.36195229 1980.68158269 -1003.59472656 1978.0390625 C-1002.95234857 1975.83662367 -1002.30010104 1973.63720814 -1001.6484375 1971.4375 C-994.7770837 1948.0460043 -989.09084394 1924.39129909 -984.32421875 1900.48828125 C-983.46684439 1896.20428226 -982.53686441 1891.94781622 -981.53515625 1887.6953125 C-970.56944119 1840.72403286 -964.45417246 1792.34024384 -960.09765625 1744.35546875 C-960.03678329 1743.68969315 -959.97591034 1743.02391754 -959.91319275 1742.33796692 C-959.168584 1733.90070741 -958.5980695 1725.44864757 -958 1717 C-957.9505852 1716.3071661 -957.9011704 1715.61433221 -957.85025819 1714.90050334 C-955.75747204 1685.27579965 -955.70273007 1655.66912093 -955.71946041 1625.98311361 C-955.7231747 1618.62276171 -955.71492281 1611.2624328 -955.70654711 1603.90208642 C-955.6912301 1590.15563067 -955.68510547 1576.40918526 -955.68421364 1562.66272163 C-955.68327287 1548.75908334 -955.67793758 1534.85545671 -955.66738319 1520.95182228 C-955.66671587 1520.06936746 -955.66604854 1519.18691265 -955.665361 1518.27771678 C-955.66193765 1513.77703967 -955.65844415 1509.27636262 -955.6549259 1504.77568559 C-955.62968873 1472.30850906 -955.61394913 1439.84133362 -955.60334396 1407.37414932 C-955.59282157 1375.24665096 -955.57817435 1343.11915873 -955.55806351 1310.99166489 C-955.55743952 1309.99186658 -955.55681554 1308.99206827 -955.55617265 1307.96197305 C-955.55047089 1298.82961381 -955.54471873 1289.69725461 -955.53890612 1280.56489544 C-955.52446082 1257.86848407 -955.51064712 1235.17207234 -955.49726295 1212.47566032 C-955.49634822 1210.92578344 -955.49634822 1210.92578344 -955.49541502 1209.34459591 C-955.46584591 1159.15063131 -955.443556 1108.95666383 -955.421875 1058.76269531 C-955.41435236 1041.35634356 -955.40679744 1023.94999182 -955.39910889 1006.54364014 C-955.39863204 1005.46401496 -955.39815519 1004.38438979 -955.39766389 1003.2720487 C-955.37542902 953.03069848 -955.34800438 902.78935148 -955.31925117 852.54800462 C-955.31738331 849.28406796 -955.31551768 846.0201313 -955.3136525 842.75619465 C-955.30128773 821.12490726 -955.28883374 799.49361993 -955.27632002 777.86233263 C-955.25142415 734.82584347 -955.22705235 691.78935401 -955.20304088 648.75286434 C-955.20189753 646.70361169 -955.20075382 644.65435903 -955.19960973 642.60510638 C-955.14814529 550.41789229 -955.1027755 458.23067556 -955.06005859 366.04345703 C-955.05945889 364.74935538 -955.05945889 364.74935538 -955.05884706 363.42911026 C-955.03885858 320.28607367 -955.01921853 277.14303694 -955 234 C-950.73644595 236.40959556 -946.72279748 238.81450881 -942.796875 241.7578125 C-937.06635587 245.98431483 -931.18915141 249.94910394 -925.25 253.875 C-923.12888519 255.28252035 -921.00779139 256.69007236 -918.88671875 258.09765625 C-917.36570557 259.10530029 -917.36570557 259.10530029 -915.81396484 260.13330078 C-912.81569273 262.12226387 -909.82483817 264.12199976 -906.8359375 266.125 C-898.28781586 271.84885238 -889.66155344 277.44954298 -881 283 C-880.28956543 283.45568359 -879.57913086 283.91136719 -878.84716797 284.38085938 C-855.99679904 299.0059206 -832.7298587 312.86213587 -809.12109375 326.21972656 C-806.02518277 327.98563573 -802.94843114 329.78123614 -799.875 331.5859375 C-788.39421464 338.292091 -776.58668538 344.32972553 -764.75 350.375 C-761.55651251 352.00629411 -758.36367034 353.63883479 -755.171875 355.2734375 C-754.3934877 355.67202469 -753.6151004 356.07061188 -752.81312561 356.48127747 C-747.8421685 359.03405458 -742.90263642 361.63968769 -737.98046875 364.28515625 C-732.24349974 367.36511559 -726.45242457 370.28633229 -720.5625 373.0625 C-719.60263184 373.5174585 -718.64276367 373.97241699 -717.65380859 374.44116211 C-715.55373776 375.43520889 -713.45279608 376.42741754 -711.35107422 377.41796875 C-708.46125399 378.78224349 -705.57510839 380.15396133 -702.69030762 381.52880859 C-668.98954504 397.57657815 -634.8265083 412.5616014 -600 426 C-598.82080994 426.45569366 -598.82080994 426.45569366 -597.61779785 426.92059326 C-577.12348188 434.83104872 -556.5407343 442.35924676 -535.64477539 449.14501953 C-529.05330997 451.28835532 -522.53991684 453.49693104 -516.12890625 456.14428711 C-512.94398917 457.42446307 -509.72019757 458.43145589 -506.4375 459.4375 C-505.42296753 459.74989624 -505.42296753 459.74989624 -504.38793945 460.06860352 C-498.78992652 461.78349003 -493.17067549 463.42578103 -487.54833984 465.05883789 C-483.13123801 466.34910969 -478.74495627 467.71371033 -474.36694336 469.13061523 C-463.98144617 472.48535418 -453.49409636 475.35101601 -442.9453125 478.14453125 C-438.2211539 479.39764684 -433.50970401 480.68855185 -428.8046875 482.01171875 C-415.88168941 485.64393259 -402.95785393 489.04098938 -389.859375 491.98364258 C-382.96588006 493.53242265 -376.14318607 495.22197225 -369.34375 497.140625 C-365.89798595 498.02621857 -362.44912436 498.72077326 -358.95849609 499.40185547 C-355.52518097 500.09599824 -352.10940262 500.85507408 -348.69140625 501.62109375 C-329.8206042 505.89886827 -329.8206042 505.89886827 -310.74633789 509.11303711 C-307.65873859 509.54087054 -304.74938648 510.0732841 -301.75390625 510.94921875 C-296.56640211 512.40128807 -291.31589554 513.16112656 -286 514 C-284.09333957 514.31917238 -282.18707745 514.64073463 -280.28125 514.96484375 C-262.96100229 517.88441979 -245.63229357 520.58842408 -228.20776367 522.80932617 C-223.0207313 523.47064639 -217.83999634 524.15876554 -212.6640625 524.90234375 C-166.20287843 531.49739824 -119.24397674 535.10230411 -72.375 537.125 C-71.50171051 537.16370209 -70.62842102 537.20240417 -69.72866821 537.24227905 C-46.49828318 538.25007448 -23.24529078 538.51572311 0 539 C0 361.13 0 183.26 0 0 Z " fill="#FE004F" transform="translate(3487,1104)"/>
<path d="M0 0 C227.7 0 455.4 0 690 0 C690.33 31.68 690.66 63.36 691 96 C695.17437653 129.04648118 695.17437653 129.04648118 700 162 C700 163.65 700 165.3 700 167 C535.33 167 370.66 167 201 167 C201.00444122 201.46075958 201.00888245 235.92151917 201.01345825 271.42654419 C201.01898766 315.32944155 201.01898766 315.32944155 201.02168427 337.23978624 C201.02204799 340.19477386 201.02241184 343.14976149 201.02277579 346.10474912 C201.02578905 370.57520383 201.02877366 395.04565856 201.03173828 419.51611328 C201.0318381 420.339786 201.03193791 421.16345872 201.03204076 422.01209122 C201.04278235 510.6586585 201.05308029 599.30522584 201.08447801 951.04082086 C201.08468645 953.97777013 201.08489533 956.9147194 201.08510434 959.85166866 C201.09102628 1043.07490398 201.09655996 1126.29813932 201.10157386 1209.52137469 C201.10175943 1212.60170881 201.10194504 1215.68204292 201.10213066 1218.76237703 C201.10219196 1219.7797573 201.10225326 1220.79713758 201.10231642 1221.84534755 C201.10462246 1260.09971588 201.1070172 1298.3540842 201.10946488 1336.60845251 C201.10973074 1340.76481722 201.10999558 1344.92118192 201.11025951 1349.07754662 C201.11648928 1447.17275119 201.12431207 1545.26795525 201.1373291 1643.36315918 C201.13746597 1644.39544122 201.13760284 1645.42772325 201.13774386 1646.49128656 C201.14229782 1680.81869806 201.14700667 1715.14610955 201.15173688 1749.47352103 C201.15601037 1780.48992142 201.16022824 1811.50632182 201.16426277 1842.52272224 C201.16439533 1843.54165495 201.1645279 1844.56058766 201.16466448 1845.61039712 C201.17295354 1909.4352815 201.17883252 1973.26016576 201.18227959 2037.08505058 C201.18235994 2038.56397565 201.18235994 2038.56397565 201.18244191 2040.07277799 C201.18479271 2083.37621037 201.18664129 2126.67964276 201.1879158 2169.98307518 C201.18843089 2187.40521247 201.18902035 2204.82734976 201.18965055 2222.24948705 C201.18975442 2225.13817336 201.18985588 2228.02685967 201.18995707 2230.91554598 C201.19152191 2275.09089891 201.19474337 2319.26625092 201.20278788 2363.44160318 C201.20304797 2364.870112 201.20304797 2364.870112 201.20331333 2366.32747959 C201.20611279 2381.64675915 201.20905071 2396.96603868 201.21201252 2412.2853182 C201.22042365 2455.7902684 201.22789689 2499.29521764 201.22826552 2542.80016875 C201.22827745 2544.12514787 201.22827745 2544.12514787 201.22828961 2545.47689424 C201.22844323 2564.75131539 201.22805055 2584.02573648 201.22712379 2603.3001576 C201.22676294 2610.98823551 201.22647689 2618.67631342 201.22621536 2626.36439133 C201.22618489 2627.20301874 201.22615442 2628.04164615 201.22612302 2628.90568652 C201.22519354 2655.47420933 201.23041412 2682.04272613 201.23921746 2708.61124737 C201.24786637 2734.78898262 201.25041713 2760.96671044 201.24418032 2787.14444662 C201.24332541 2790.73702314 201.24254052 2794.32959968 201.24179779 2797.92217623 C201.24164973 2798.62544273 201.24150168 2799.32870922 201.24134913 2800.05328683 C201.23920486 2811.10170591 201.24370542 2822.15011146 201.25111629 2833.19852785 C201.25824599 2844.0326219 201.25800488 2854.86669565 201.25060215 2865.70078959 C201.2468703 2871.45851227 201.24615437 2877.21618748 201.25447049 2882.97390645 C201.29514542 2913.03690658 200.68002891 2942.76482592 196.8125 2972.625 C196.70740112 2973.45042297 196.60230225 2974.27584595 196.49401855 2975.12628174 C191.02183809 3017.71179531 180.2532596 3058.55639245 166 3099 C165.44530029 3100.57491211 165.44530029 3100.57491211 164.87939453 3102.18164062 C152.81928408 3135.96643026 136.56709783 3168.36031559 118 3199 C117.44425293 3199.92425781 116.88850586 3200.84851562 116.31591797 3201.80078125 C102.06380559 3225.46087741 85.85001758 3247.91029951 68 3269 C67.55237305 3269.53109375 67.10474609 3270.0621875 66.64355469 3270.609375 C60.10853894 3278.35199539 53.4338536 3285.94298744 46.52636719 3293.35595703 C44.85559434 3295.15553866 43.19748409 3296.96637651 41.5390625 3298.77734375 C33.3449661 3307.67739642 24.81333789 3316.08390219 15.89599609 3324.25683594 C14.08311708 3325.9235828 12.28350437 3327.60333526 10.48828125 3329.2890625 C4.81298439 3334.6060767 -0.94529753 3339.73692577 -7.015625 3344.60546875 C-9.23027542 3346.38240685 -11.42492381 3348.17495802 -13.609375 3349.98828125 C-85.56015638 3409.52065624 -173.71911648 3449.45135796 -301 3474 C-302.59497314 3474.20834473 -302.59497314 3474.20834473 -304.22216797 3474.42089844 C-396.41275305 3486.10799722 -490.60328242 3475.54250466 -666 3403 C-667.2689209 3402.27466064 -667.2689209 3402.27466064 -668.56347656 3401.53466797 C-688.13385651 3390.25520668 -707.01530842 3377.66517777 -725 3364 C-725.56219238 3363.57525391 -726.12438477 3363.15050781 -726.70361328 3362.71289062 C-745.90779093 3348.18475165 -764.66922925 3332.66839836 -781.52734375 3315.4375 C-782.93892842 3314.05961364 -784.46903923 3312.80640563 -786 3311.5625 C-788.96378489 3309.03093374 -791.31083174 3306.38500188 -793.82421875 3303.42578125 C-796.55324812 3300.38318297 -799.45758384 3297.54801545 -802.375 3294.6875 C-807.23230716 3289.90206081 -811.65834972 3284.95178236 -815.8984375 3279.6015625 C-817.97091919 3277.03599966 -820.14002884 3274.61200935 -822.375 3272.1875 C-826.08845282 3268.10663842 -829.57802734 3263.88753959 -833 3259.5625 C-833.48130371 3258.95881592 -833.96260742 3258.35513184 -834.45849609 3257.7331543 C-836.46692913 3255.1681108 -837.9615763 3253.11527111 -839 3250 C-834.68788814 3251.35898824 -830.64515391 3253.00035253 -826.546875 3254.90625 C-825.28944821 3255.48640469 -824.03178848 3256.0660547 -822.77392578 3256.64526367 C-821.79120697 3257.09897842 -821.79120697 3257.09897842 -820.78863525 3257.56185913 C-764.77554772 3283.33800841 -705.23467247 3299.89384985 -644 3307 C-642.92057129 3307.12535126 -642.92057129 3307.12535126 -641.81933594 3307.25323486 C-599.61414188 3312.06017484 -556.18210257 3311.99995839 -514 3307 C-512.91733856 3306.87271515 -512.91733856 3306.87271515 -511.81280518 3306.74285889 C-415.94102672 3295.34284923 -324.1261025 3260.288312 -218 3184 C-217.07058594 3183.25363281 -216.14117188 3182.50726562 -215.18359375 3181.73828125 C-197.73794352 3167.59384577 -181.39731343 3152.47590231 -165.5 3136.625 C-164.98117249 3136.10885132 -164.46234497 3135.59270264 -163.92779541 3135.06091309 C-158.06481356 3129.22092696 -152.36177765 3123.30957523 -147 3117 C-145.96668792 3115.81999712 -144.93154856 3114.6415917 -143.89453125 3113.46484375 C-117.67102278 3083.51676378 -94.43961376 3050.75135353 -75 3016 C-74.12964111 3014.4523999 -74.12964111 3014.4523999 -73.24169922 3012.87353516 C-30.94837767 2937.19015831 -6.78377363 2852.2345253 -0.86938947 2729.88294959 C-0.86781692 2727.9281645 -0.8658091 2725.97337972 -0.86341216 2724.01859547 C-0.85810622 2718.67513804 -0.85892475 2713.33169695 -0.86079345 2707.98823788 C-0.86172501 2702.14267778 -0.85684134 2696.29712192 -0.85272202 2690.4515636 C-0.84627608 2680.1765644 -0.84348132 2669.90156891 -0.84316199 2659.62656781 C-0.84279722 2648.54956759 -0.84022258 2637.47257103 -0.8350333 2626.39557198 C-0.83454073 2625.33986941 -0.83454073 2625.33986941 -0.8340382 2624.26283953 C-0.83235159 2620.66897014 -0.83063017 2617.07510076 -0.82889687 2613.4812314 C-0.81632766 2587.26532414 -0.80863821 2561.04941719 -0.80341911 2534.83350754 C-0.79811404 2508.26696286 -0.79063171 2481.70042009 -0.78049088 2455.1338768 C-0.78017188 2454.29564295 -0.77985288 2453.4574091 -0.77952421 2452.59377423 C-0.77659997 2444.91179695 -0.77365154 2437.22981968 -0.77067431 2429.54784242 C-0.76321025 2410.28581608 -0.75607427 2391.02378963 -0.74915612 2371.7617631 C-0.74883889 2370.8791665 -0.74852167 2369.9965699 -0.74819483 2369.08722796 C-0.73259035 2325.59035636 -0.72071174 2282.09348383 -0.70907402 2238.59661102 C-0.70497525 2223.28677971 -0.70085877 2207.97694841 -0.69667697 2192.66711712 C-0.69641702 2191.71538946 -0.69615708 2190.76366181 -0.69588925 2189.78309392 C-0.68382257 2145.6836303 -0.66920646 2101.58416764 -0.65393867 2057.48470503 C-0.65294008 2054.60001373 -0.6519427 2051.71532244 -0.65094561 2048.83063115 C-0.64493202 2031.43574618 -0.63889188 2014.04086122 -0.63282111 1996.64597627 C-0.61773082 1953.40371537 -0.60295883 1910.16145436 -0.58840275 1866.91919327 C-0.58807123 1865.93479775 -0.5877397 1864.95040224 -0.58739814 1863.93617656 C-0.56593167 1800.1877663 -0.54577545 1736.4393557 -0.52671719 1672.69094467 C-0.52641293 1671.67328286 -0.52610868 1670.65562106 -0.52579521 1669.60712101 C-0.51653649 1638.62924283 -0.50737479 1607.65136461 -0.49823208 1576.67348639 C-0.48811414 1542.3927165 -0.47797964 1508.11194662 -0.46777344 1473.83117676 C-0.46746659 1472.80032995 -0.46715973 1471.76948315 -0.46684358 1470.70739857 C-0.43768952 1372.78484918 -0.40586359 1274.86230071 -0.37334755 1176.93975239 C-0.37197034 1172.79166336 -0.37059389 1168.64357432 -0.36921749 1164.49548529 C-0.35655133 1126.32363575 -0.34385382 1088.15178622 -0.33111694 1049.9799367 C-0.33077826 1048.96490537 -0.33043957 1047.94987404 -0.33009062 1046.90408419 C-0.32906517 1043.83084218 -0.3280397 1040.75760017 -0.32701423 1037.68435817 C-0.29931151 954.66103559 -0.27188218 871.63771291 -0.24463 788.61439018 C-0.24366841 785.68512957 -0.24270661 782.75586897 -0.24174474 779.82660836 C-0.21049186 684.64646117 -0.17972294 589.46631384 -0.12762691 421.40036331 C-0.12682834 418.80871375 -0.12602951 416.21706419 -0.12523057 413.62541463 C-0.12496906 412.77707675 -0.12470756 411.92873886 -0.12443813 411.05469376 C-0.12396218 409.51071037 -0.1234862 407.96672698 -0.12301016 406.4227436 C-0.08125218 270.94849596 -0.04079838 135.47424793 0 0 Z " fill="#00F1E9" transform="translate(1843,0)"/>
<path d="M0 0 C1.02666275 0.12408234 1.02666275 0.12408234 2.07406616 0.25067139 C12.67580271 1.55080271 12.67580271 1.55080271 13.875 2.75 C13.97174566 4.76228045 13.99687008 6.77801369 13.99525452 8.7926178 C13.99662918 10.10660049 13.99800385 11.42058319 13.99942017 12.77438354 C13.99588054 14.24420188 13.99224573 15.71402 13.98852539 17.18383789 C13.98824353 18.72091164 13.98840123 20.25798553 13.9889679 21.7950592 C13.98925591 25.9808286 13.98335852 30.16656959 13.97639394 34.35233235 C13.97016109 38.72190156 13.96955666 43.09147135 13.96836853 47.46104431 C13.96525501 55.74127047 13.95704135 64.0214835 13.94701904 72.30170387 C13.93585854 81.72597159 13.93034761 91.15023992 13.92532361 100.5745126 C13.91485875 119.96634919 13.89725891 139.35817354 13.875 158.75 C12.55891251 158.80371262 11.24282501 158.85742523 9.88685608 158.9127655 C4.89912715 159.11695623 -0.08846885 159.32425797 -5.07603455 159.53239441 C-7.2150591 159.62124668 -9.35411668 159.70930845 -11.49320984 159.79649353 C-89.59932441 162.98367901 -168.05715482 172.47282117 -244.125 190.75 C-245.1323822 190.99083313 -246.1397644 191.23166626 -247.17767334 191.47979736 C-279.48786066 199.21108785 -311.49172826 207.58244681 -343.125 217.75 C-343.91934448 218.0048114 -344.71368896 218.2596228 -345.53210449 218.52215576 C-387.89122013 232.1348756 -429.41224125 247.78704379 -470.125 265.75 C-470.75545227 266.02763184 -471.38590454 266.30526367 -472.03546143 266.59130859 C-491.56361537 275.20268842 -510.77168906 284.42275806 -529.875 293.9375 C-530.86536255 294.42875366 -531.8557251 294.92000732 -532.87609863 295.42614746 C-546.74625427 302.31828273 -560.28814886 309.66941559 -573.72137451 317.37661743 C-576.75099627 319.1076815 -579.79906623 320.8010639 -582.85546875 322.484375 C-604.44356918 334.40025728 -625.57535632 347.1169933 -646.125 360.75 C-647.3405849 361.5541463 -648.55624918 362.3581726 -649.77197266 363.16210938 C-673.18665478 378.60975273 -673.18665478 378.60975273 -696.125 394.75 C-696.84655273 395.27400391 -697.56810547 395.79800781 -698.31152344 396.33789062 C-718.76176619 411.21866871 -738.9673322 426.50106442 -758.4921875 442.58203125 C-760.24229526 444.02314373 -761.99749612 445.45809403 -763.7578125 446.88671875 C-770.10382234 452.03938272 -776.33244196 457.31565519 -782.5234375 462.65234375 C-784.87282976 464.67744119 -787.2317514 466.6902473 -789.6015625 468.69140625 C-796.55216809 474.57427175 -803.29545538 480.63023262 -809.92358398 486.87475586 C-813.68957289 490.422052 -817.51439922 493.87256528 -821.4375 497.24609375 C-823.81666499 499.3664144 -826.02659202 501.63969693 -828.25697327 503.91441345 C-830.03453442 505.66110545 -831.86678236 507.28119697 -833.76342773 508.89672852 C-838.5165174 513.03182591 -842.96239017 517.44348578 -847.41015625 521.90234375 C-848.27007675 522.76130753 -849.12999725 523.6202713 -850.01597595 524.50526428 C-851.82315861 526.31177015 -853.62909392 528.11952462 -855.43383789 529.9284668 C-858.17938393 532.6793681 -860.93022546 535.42489221 -863.68164062 538.16992188 C-865.4456332 539.93457532 -867.2093155 541.69953897 -868.97265625 543.46484375 C-869.78638199 544.27654526 -870.60010773 545.08824677 -871.43849182 545.92454529 C-875.6702193 550.17349605 -879.74128215 554.5002093 -883.65370178 559.04512024 C-885.34389126 561.00364218 -887.09640081 562.89062245 -888.88671875 564.7578125 C-889.84372681 565.7621936 -889.84372681 565.7621936 -890.82006836 566.78686523 C-891.4775708 567.47594971 -892.13507324 568.16503418 -892.8125 568.875 C-898.89734615 575.29252858 -904.7484829 581.85372312 -910.453125 588.609375 C-912.84670786 591.44126774 -915.31380045 594.1975467 -917.8125 596.9375 C-921.61007249 601.12369301 -925.19565944 605.45019014 -928.75 609.84375 C-930.84156793 612.40316866 -932.96610046 614.92632216 -935.11303711 617.43896484 C-940.7986681 624.09438573 -946.25558324 630.90118425 -951.62109375 637.81640625 C-953.22012203 639.87229975 -954.82820039 641.92088838 -956.4375 643.96875 C-964.88469734 654.73952148 -973.06916939 665.68412227 -981.125 676.75 C-981.68606445 677.51876465 -982.24712891 678.2875293 -982.82519531 679.07958984 C-1012.81641656 720.20220168 -1040.55769978 763.16347209 -1065.125 807.75 C-1065.65013184 808.70261719 -1066.17526367 809.65523437 -1066.71630859 810.63671875 C-1074.8683116 825.47024502 -1082.7427985 840.44560606 -1090.46240234 855.50830078 C-1091.52165644 857.57361295 -1092.58413812 859.63727523 -1093.65087891 861.69873047 C-1102.94428107 879.67424925 -1111.11648223 898.11501952 -1119.20770264 916.65301514 C-1120.05655425 918.59352979 -1120.90998208 920.53192633 -1121.76611328 922.46923828 C-1151.24161116 989.23678362 -1173.46496612 1058.96461319 -1190.65551758 1129.82183838 C-1191.08343647 1131.57929883 -1191.51700153 1133.33538208 -1191.95117188 1135.09130859 C-1209.5461622 1206.35101942 -1219.36763061 1280.35032798 -1223.01785278 1353.61248779 C-1223.09350148 1355.12162654 -1223.17231562 1356.63060821 -1223.25338745 1358.13946533 C-1224.28028477 1377.6530308 -1224.31256475 1397.16505164 -1224.31030273 1416.69970703 C-1224.31022212 1420.37130733 -1224.31707781 1424.04278111 -1224.33081055 1427.71435547 C-1224.45729928 1462.13995257 -1223.30512459 1496.44501151 -1220.3125 1530.75 C-1220.22851959 1531.73329285 -1220.14453918 1532.71658569 -1220.05801392 1533.72967529 C-1218.27699408 1554.47191229 -1215.96866807 1575.12708776 -1213.125 1595.75 C-1213.00102844 1596.64938293 -1212.87705688 1597.54876587 -1212.74932861 1598.47540283 C-1199.6748608 1692.71215987 -1175.90813902 1785.29459113 -1067.57177734 2034.23242188 C-1065.12406414 2038.49175676 -1062.78641964 2042.81066622 -1060.4375 2047.125 C-1043.15514019 2078.69604664 -1023.69767455 2109.2332222 -1003.125 2138.75 C-1002.56071289 2139.56275391 -1001.99642578 2140.37550781 -1001.41503906 2141.21289062 C-989.25936359 2158.71760567 -976.87458225 2175.96911936 -963.70605469 2192.72802734 C-961.46678474 2195.5917756 -959.26586369 2198.48353082 -957.0625 2201.375 C-951.7180349 2208.33686901 -946.17711166 2215.13456128 -940.61767578 2221.92529297 C-939.30313798 2223.53223696 -937.99301698 2225.14279191 -936.68359375 2226.75390625 C-928.78167058 2236.46521433 -920.7391467 2246.02417225 -912.30859375 2255.28125 C-909.97648424 2257.91791049 -907.76731063 2260.63123566 -905.5625 2263.375 C-902.32819944 2267.37428295 -898.97229004 2271.06601589 -895.2421875 2274.60546875 C-893.37302167 2276.49877509 -891.63328364 2278.43677847 -889.890625 2280.4453125 C-886.03786196 2284.88311715 -882.03711587 2289.16762036 -878 2293.4375 C-876.96552734 2294.53674805 -876.96552734 2294.53674805 -875.91015625 2295.65820312 C-872.36891491 2299.41273147 -868.79942437 2303.12561643 -865.125 2306.75 C-865.455 2307.41 -865.785 2308.07 -866.125 2308.75 C-866.91519531 2308.17894531 -867.70539062 2307.60789062 -868.51953125 2307.01953125 C-874.63925934 2302.61528652 -880.79423713 2298.27920602 -887.04174805 2294.05761719 C-894.7815114 2288.82363475 -902.32643533 2283.42429051 -909.70800781 2277.69604492 C-914.96627353 2273.61667211 -920.30890253 2269.66894787 -925.6875 2265.75 C-933.82307645 2259.80232225 -941.66784275 2253.55735051 -949.43554688 2247.13964844 C-951.75039676 2245.23558405 -954.09198144 2243.36608867 -956.4375 2241.5 C-965.89494723 2233.94663117 -975.15980214 2226.19512798 -984.32666016 2218.29394531 C-986.09047724 2216.77963914 -987.8620689 2215.27502617 -989.63671875 2213.7734375 C-996.29464776 2208.12913699 -1002.80233895 2202.36302355 -1009.15625 2196.37719727 C-1012.0104823 2193.69144395 -1014.89785396 2191.06163016 -1017.86035156 2188.49536133 C-1032.11839968 2176.04232685 -1045.45800382 2162.57894819 -1058.82177734 2149.18359375 C-1061.28445601 2146.71514672 -1063.75169975 2144.25131841 -1066.22022438 2141.78871918 C-1068.62061307 2139.39283459 -1071.01716278 2136.99312508 -1073.4140625 2134.59375 C-1074.28704987 2133.72278687 -1075.16003723 2132.85182373 -1076.05947876 2131.95446777 C-1080.3957837 2127.60160498 -1084.59960185 2123.19361257 -1088.59335327 2118.52319336 C-1091.34022176 2115.34313305 -1094.24341414 2112.30754534 -1097.125 2109.25 C-1101.89148863 2104.16404329 -1106.60091493 2099.05409974 -1111.125 2093.75 C-1111.99977272 2092.7289719 -1112.87479699 2091.70815929 -1113.75 2090.6875 C-1115.26513589 2088.920345 -1116.77972391 2087.15273742 -1118.29248047 2085.38354492 C-1121.57455839 2081.54733012 -1124.87883807 2077.73149217 -1128.19677734 2073.92626953 C-1132.90750353 2068.51928239 -1137.54904563 2063.08655965 -1141.984375 2057.44921875 C-1143.66432808 2055.33088375 -1145.36204469 2053.2333667 -1147.078125 2051.14453125 C-1153.55213938 2043.25905103 -1159.82093813 2035.26481571 -1165.8984375 2027.0703125 C-1168.22670744 2023.9362714 -1170.59150668 2020.83322926 -1172.9765625 2017.7421875 C-1180.69554534 2007.73028104 -1188.10504524 1997.59834358 -1195.16796875 1987.11328125 C-1197.81220682 1983.18926959 -1200.54060138 1979.33448704 -1203.3125 1975.5 C-1212.38455605 1962.90345654 -1220.74500041 1949.81251574 -1229.125 1936.75 C-1229.58600098 1936.03424805 -1230.04700195 1935.31849609 -1230.52197266 1934.58105469 C-1249.29353583 1905.39535472 -1266.29009938 1875.14022219 -1282.62988281 1844.54052734 C-1283.87578102 1842.21514907 -1285.13191458 1839.89620793 -1286.3984375 1837.58203125 C-1291.83450132 1827.61816354 -1296.69229682 1817.39205051 -1301.52978516 1807.12744141 C-1302.92329978 1804.17704636 -1304.32536389 1801.23088425 -1305.73085022 1798.28617859 C-1345.82914745 1714.20653275 -1375.89300139 1625.86512536 -1422.86071777 1361.81658936 C-1423.03165165 1359.8331642 -1423.2050679 1357.84995073 -1423.38146973 1355.86700439 C-1429.13836238 1290.97536695 -1429.08439585 1223.53553128 -1423.37823486 1158.64221191 C-1423.112125 1155.6029538 -1422.85794404 1152.56283988 -1422.60498047 1149.52246094 C-1414.35871721 1051.58361923 -1394.8194718 955.08864543 -1356.125 837.75 C-1355.90541626 837.11294128 -1355.68583252 836.47588257 -1355.45959473 835.81951904 C-1332.06164002 768.05772403 -1302.39366654 701.31963676 -1266.51855469 639.18603516 C-1264.78642317 636.15814303 -1263.10938614 633.10214547 -1261.43603516 630.04150391 C-1240.8856241 592.50252743 -1216.99750714 556.55166694 -1192.125 521.75 C-1191.57021973 520.97140625 -1191.01543945 520.1928125 -1190.44384766 519.390625 C-1183.95186803 510.29107382 -1177.34020058 501.31331402 -1170.47314453 492.49267578 C-1168.94917903 490.52272545 -1167.44046523 488.54164914 -1165.93359375 486.55859375 C-1160.55761055 479.48460188 -1155.15896636 472.45151791 -1149.48828125 465.609375 C-1147.6801057 463.42163202 -1145.88754168 461.22448525 -1144.10546875 459.015625 C-1138.29279115 451.81349053 -1132.41547295 444.68534162 -1126.35961914 437.68603516 C-1123.41829686 434.28131725 -1120.55992744 430.82750149 -1117.75 427.3125 C-1113.48932123 422.05662619 -1108.91184621 417.13493497 -1104.26025391 412.22680664 C-1101.33033907 409.13290717 -1098.45513468 406.00976409 -1095.66015625 402.79296875 C-1092.09445768 398.68993921 -1088.41514396 394.7059721 -1084.6875 390.75 C-1084.00373291 390.02304932 -1083.31996582 389.29609863 -1082.61547852 388.54711914 C-1077.06324656 382.67548016 -1071.38588932 376.93842393 -1065.61743164 371.27929688 C-1062.48980286 368.19451232 -1059.50607199 365.07065043 -1056.66015625 361.72265625 C-1053.7497489 358.34234151 -1050.61706627 355.47411122 -1047.22265625 352.58984375 C-1043.33063872 349.17617474 -1039.75286202 345.43977092 -1036.125 341.75 C-1031.24638604 336.78813324 -1026.33715936 331.96611814 -1021.05859375 327.4296875 C-1017.83088466 324.625819 -1014.73597959 321.68194501 -1011.625 318.75 C-1006.53900209 313.98347275 -1001.42841454 309.27493167 -996.125 304.75 C-995.09222944 303.86353572 -994.05970072 302.97678965 -993.02734375 302.08984375 C-990.63272736 300.03349779 -988.23515261 297.98066532 -985.8359375 295.9296875 C-983.4167862 293.86029302 -981.00561267 291.78222693 -978.6015625 289.6953125 C-972.3584558 284.28648957 -966.03595684 279.02863891 -959.51123047 273.96240234 C-955.03221124 270.48175613 -950.63542219 266.91005804 -946.25 263.3125 C-939.02486776 257.40578436 -931.61559936 251.78174803 -924.11621094 246.22949219 C-922.1358604 244.7580694 -920.16420362 243.2757762 -918.1953125 241.7890625 C-901.55862607 229.22687736 -884.61065482 217.28686344 -867.21289062 205.79833984 C-864.18930664 203.79265755 -861.17863263 201.76908306 -858.171875 199.73828125 C-843.7320859 189.99976342 -829.0415374 180.74037088 -814.125 171.75 C-813.17383301 171.17652832 -812.22266602 170.60305664 -811.24267578 170.01220703 C-737.90434879 125.94198727 -660.56635577 90.08874272 -242.97912598 -7.05859375 C-240.30057333 -7.23822553 -237.62246549 -7.42356404 -234.94433594 -7.609375 C-156.9068696 -12.90282181 -77.5562548 -9.41899113 0 0 Z " fill="#00F1E9" transform="translate(1426.125,1478.25)"/>
<path d="M0 0 C68.68015202 0 133.52756356 2.19924742 201 11 C201 242.33 201 473.66 201 712 C195.92838777 711.27548397 191.32507969 710.36924588 186.453125 708.9609375 C184.97215197 708.54370432 183.49093982 708.12731924 182.00952148 707.71166992 C181.23518768 707.49352631 180.46085388 707.27538269 179.66305542 707.05062866 C141.22526543 696.28847525 101.850605 689.52995668 62 687 C61.21544434 686.94360352 60.43088867 686.88720703 59.62255859 686.82910156 C-17.22440905 681.31087869 -95.19673539 693.50426044 -261 761 C-261.80163574 761.45874512 -262.60327148 761.91749023 -263.42919922 762.39013672 C-285.52387892 775.10453514 -306.75206627 789.52687949 -327 805 C-327.63679688 805.4851709 -328.27359375 805.9703418 -328.9296875 806.47021484 C-341.16318536 815.82922785 -352.80574786 825.84828151 -364.0859375 836.33203125 C-366.21845831 838.28445982 -368.36940396 840.17086979 -370.56640625 842.046875 C-375.91420274 846.70975385 -380.89546612 851.74586616 -385.90014648 856.76977539 C-387.5592732 858.43426277 -389.22368051 860.09333447 -390.88867188 861.75195312 C-396.46971765 867.32914239 -401.89806763 872.97646026 -407 879 C-408.03314081 880.18015284 -409.06828777 881.35855255 -410.10546875 882.53515625 C-417.65817817 891.16145793 -424.96233323 899.94823337 -432 909 C-432.47759766 909.61391602 -432.95519531 910.22783203 -433.44726562 910.86035156 C-487.9021216 981.26849078 -524.70329035 1063.67654651 -553.25 1262.75 C-553.25067474 1263.83926788 -553.25134949 1264.92853577 -553.25204468 1266.05081177 C-553.18248432 1337.40998586 -540.10937278 1409.83962575 -513 1476 C-512.61972656 1476.94407715 -512.23945312 1477.8881543 -511.84765625 1478.86083984 C-495.17621444 1520.11999514 -474.49786303 1560.15769189 -448 1596 C-446.13658914 1598.55589463 -444.28575972 1601.12063796 -442.4375 1603.6875 C-441.79204224 1604.57139404 -441.79204224 1604.57139404 -441.13354492 1605.47314453 C-439.32491214 1607.98057561 -437.98484158 1610.04547527 -437 1613 C-443.84267631 1610.87295106 -449.78289368 1607.50506638 -456 1604 C-456.82822266 1603.53577637 -457.65644531 1603.07155273 -458.50976562 1602.59326172 C-494.88768599 1582.10297431 -528.79940474 1557.72684478 -560 1530 C-560.71929688 1529.36191406 -561.43859375 1528.72382813 -562.1796875 1528.06640625 C-589.93354013 1503.26993136 -589.93354013 1503.26993136 -601.06640625 1490.21484375 C-603.09867043 1487.88697751 -605.19327504 1485.62901308 -607.30273438 1483.37133789 C-613.14346878 1477.11612901 -618.64366231 1470.67803141 -624 1464 C-625.02968131 1462.74870749 -626.061043 1461.49879654 -627.09375 1460.25 C-634.11070425 1451.74130935 -640.70934498 1443.05675865 -647 1434 C-647.62390625 1433.11828125 -648.2478125 1432.2365625 -648.890625 1431.328125 C-653.38655036 1424.96902337 -657.74002244 1418.51921752 -662 1412 C-662.4237793 1411.35514648 -662.84755859 1410.71029297 -663.28417969 1410.04589844 C-675.44850606 1391.45546407 -686.48220631 1371.95963239 -696.07861328 1351.91650391 C-697.06835089 1349.8578287 -698.07883079 1347.81002271 -699.08984375 1345.76171875 C-707.91213459 1327.7082992 -715.48765717 1309.00597907 -722 1290 C-722.51447466 1288.6018105 -723.03453922 1287.20565307 -723.5625 1285.8125 C-723.79453125 1285.19375 -724.0265625 1284.575 -724.265625 1283.9375 C-724.78807135 1282.5591309 -725.32038163 1281.18448313 -725.859375 1279.8125 C-731.83170056 1264.14738378 -735.70950106 1247.71148979 -739.40917969 1231.38916016 C-739.88650904 1229.45893494 -740.42396619 1227.54363968 -740.97973633 1225.63452148 C-742.66086567 1219.64577478 -743.76168064 1213.54178279 -744.9375 1207.4375 C-745.07039429 1206.75114471 -745.20328857 1206.06478943 -745.34020996 1205.3576355 C-747.48717762 1194.22230392 -749.30978601 1183.07394602 -750.65478516 1171.81152344 C-750.9149078 1169.69301401 -751.19385795 1167.57680375 -751.48193359 1165.46191406 C-752.85150843 1155.19455358 -753.62382148 1144.96896845 -754.125 1134.625 C-754.16669312 1133.785065 -754.20838623 1132.94513 -754.25134277 1132.07974243 C-756.5067554 1085.82475282 -753.489921 1040.4265416 -746.4375 994.6875 C-746.23987061 993.40149902 -746.04224121 992.11549805 -745.83862305 990.79052734 C-744.55943666 982.7675462 -742.92544308 974.8915129 -741 967 C-740.7059729 965.76068726 -740.7059729 965.76068726 -740.40600586 964.49633789 C-735.71221054 944.77149638 -729.94462814 925.42534157 -723.375 906.25 C-723.14520447 905.57658569 -722.91540894 904.90317139 -722.6786499 904.20935059 C-719.75540535 895.66922394 -716.55987127 887.29593117 -713 879 C-712.34345145 877.41863235 -711.68841963 875.83663383 -711.03515625 874.25390625 C-702.2818185 853.32625853 -692.56771261 832.62573164 -681.16357422 813.00341797 C-679.99392168 810.98953447 -678.84199553 808.96622967 -677.69140625 806.94140625 C-664.23316312 783.45851529 -648.70187007 761.27534576 -632 740 C-631.34902344 739.16597656 -630.69804688 738.33195312 -630.02734375 737.47265625 C-622.15870932 727.50356499 -613.81640983 717.89668391 -605.26953125 708.50512695 C-603.84337751 706.93092692 -602.42458102 705.34999754 -601.01660156 703.75952148 C-595.5232615 697.56748992 -589.7970517 691.64170214 -583.93383789 685.8034668 C-582.43193075 684.30695075 -580.93548938 682.805117 -579.43945312 681.30273438 C-574.66531032 676.52529644 -569.84173787 671.8583138 -564.7097168 667.46459961 C-562.31314959 665.41162136 -560.00526408 663.2661382 -557.6875 661.125 C-552.28355842 656.20829906 -546.72595539 651.53552464 -541 647 C-540.33548828 646.4735791 -539.67097656 645.9471582 -538.98632812 645.40478516 C-516.28236726 627.4755422 -492.46722999 610.47388368 -467.23046875 596.26318359 C-464.67382162 594.81527507 -462.13418418 593.33944358 -459.59375 591.86328125 C-447.78816398 585.04431415 -435.8371369 578.82757863 -423.45166016 573.13330078 C-421.04643683 572.02146582 -418.65262399 570.8883541 -416.26171875 569.74609375 C-415.50938965 569.38749268 -414.75706055 569.0288916 -413.98193359 568.65942383 C-412.60532502 568.00303282 -411.22927958 567.34545843 -409.85400391 566.6862793 C-385.47441266 555.15539155 -359.20201954 546.34299007 -333.1953125 539.40234375 C-329.21156941 538.33702338 -325.26034694 537.19226956 -321.3125 536 C-291.81976617 527.59840561 -261.17903534 523.34794259 -230.71118164 520.36401367 C-227.88533624 520.08683878 -225.06308162 519.7923513 -222.23999023 519.48950195 C-207.63321157 517.97852024 -193.1167299 517.56312791 -178.4375 517.5625 C-176.61421173 517.55940323 -176.61421173 517.55940323 -174.75408936 517.5562439 C-156.11374437 517.56184687 -137.67467196 518.49158859 -119.125 520.3125 C-117.49375687 520.47239914 -117.49375687 520.47239914 -115.82955933 520.63552856 C-98.38904869 522.38540536 -81.0781428 524.7325979 -63.9375 528.4375 C-62.93219238 528.65140381 -61.92688477 528.86530762 -60.89111328 529.08569336 C-57.92629296 529.71872511 -54.96314526 530.35918227 -52 531 C-50.32165487 531.35696029 -48.64327196 531.71374303 -46.96484375 532.0703125 C-37.85920891 534.02532349 -28.92598777 536.32801234 -20 539 C-18.48726927 539.4436986 -16.97423169 539.88635196 -15.4609375 540.328125 C-3.72328522 543.75890493 -3.72328522 543.75890493 0 545 C0 365.15 0 185.3 0 0 Z " fill="#FE004F" transform="translate(1440,1636)"/>
<path d="M0 0 C62.7 0 125.4 0 190 0 C190.33 30.03 190.66 60.06 191 91 C194.61162937 122.80099368 194.61162937 122.80099368 199.25 154.4375 C199.39206879 155.29436401 199.53413757 156.15122803 199.68051147 157.03405762 C207.29619392 202.80577355 218.23096295 247.76178244 232.34692383 291.95288086 C232.97364521 293.9173888 233.59578717 295.88328961 234.21679688 297.84960938 C250.51278698 349.17791097 271.65058905 400.22971108 297.609375 447.46484375 C299.2744344 450.50030316 300.91720038 453.54753626 302.5625 456.59375 C314.6263724 478.84103916 327.51283911 500.61080951 341.48925781 521.71630859 C343.26868823 524.40615865 345.0358583 527.10394876 346.8046875 529.80078125 C354.13110716 540.9254378 361.63786994 551.81149832 369.75830078 562.37011719 C371.52897355 564.69434279 373.23358431 567.06406235 374.9375 569.4375 C387.84194224 587.24776326 401.71351912 604.28770051 416 621 C417.02344414 622.20051517 418.04688145 623.40103617 419.0703125 624.6015625 C424.64426056 631.13047246 430.25867729 637.61700005 436 644 C435.34 644.33 434.68 644.66 434 645 C431.59759086 643.70424901 429.34980228 642.35432658 427.0625 640.875 C426.35593262 640.42487549 425.64936523 639.97475098 424.92138672 639.51098633 C411.37341179 630.81255381 398.22831724 621.53220715 385.21484375 612.05859375 C381.98882716 609.7106039 378.74120383 607.39623687 375.48022461 605.09716797 C362.80001685 596.14032868 350.8215894 586.2897442 338.80419922 576.47216797 C337.21726954 575.17728489 335.62651263 573.88709522 334.03515625 572.59765625 C323.37516657 563.94130634 312.97266987 555.01638626 302.9140625 545.66796875 C300.66798288 543.61157145 298.40218248 541.59622154 296.10546875 539.59765625 C283.86987533 528.92463567 272.36271033 517.46426405 260.875 506 C260.28850677 505.41609497 259.70201355 504.83218994 259.0977478 504.23059082 C253.4140797 498.5667202 247.77597011 492.92008923 242.56591797 486.81103516 C239.7005948 483.49719554 236.6443987 480.36031468 233.625 477.1875 C228.54392477 471.81233924 223.71775236 466.36458379 219.109375 460.578125 C216.81165696 457.76980295 214.39664852 455.10530355 211.9375 452.4375 C208.1733925 448.33803423 204.61680628 444.14920719 201.1796875 439.7734375 C199.55287746 437.70348207 197.91351029 435.64817315 196.2578125 433.6015625 C189.42630104 425.14687762 182.83219597 416.54084637 176.35351562 407.81347656 C175.14781128 406.19804152 173.92652694 404.59426147 172.703125 402.9921875 C167.46425585 396.12812171 162.57541852 389.06366538 157.72900391 381.91870117 C154.87495011 377.71622612 151.98315605 373.56721985 148.9375 369.5 C143.15576609 361.65248801 138.13696758 353.27642824 133 345 C132.62875 344.40429199 132.2575 343.80858398 131.875 343.19482422 C125.95547441 333.69410126 120.22292058 324.07885961 114.48095703 314.47021484 C113.45529872 312.75943167 112.42468583 311.05161282 111.39013672 309.34619141 C108.88729965 305.21263671 106.44743307 301.12043708 104.375 296.75 C102.08932255 292.07849944 99.64571265 287.53008046 97.11254883 282.98828125 C76.47879067 245.87257644 59.76193101 206.76659121 45 167 C44.46430245 165.57523456 43.92800589 164.15069389 43.390625 162.7265625 C36.066065 143.09838766 28.80834468 123.34736954 23.54003906 103.05517578 C22.78640207 100.18713049 21.98655203 97.33268922 21.18652344 94.47729492 C20.56005395 92.24126944 19.93941146 90.00370154 19.3203125 87.765625 C18.63688741 85.29533886 17.95125066 82.82573883 17.26074219 80.35742188 C12.28320403 62.55971874 8.26802098 44.72946294 4.74975586 26.58862305 C3.94348065 22.47344416 3.141403 18.46235728 1.9140625 14.44921875 C0.66949766 9.75284801 0.43986622 4.83852844 0 0 Z " fill="#FE014F" transform="translate(2543,167)"/>
<path d="M0 0 C5.63606857 3.26987101 11.26217899 6.55327907 16.8515625 9.90234375 C29.47830201 17.45155928 42.26779725 24.62059033 55.25292969 31.53466797 C57.67651716 32.82744899 60.09326689 34.13184985 62.5078125 35.44140625 C133.48606517 73.68842009 210.08313199 101.30467365 508 146 C508 194.18 508 242.36 508 292 C497.8696894 290.87440993 497.8696894 290.87440993 494.25439453 289.99121094 C493.43120728 289.79247375 492.60802002 289.59373657 491.7598877 289.38897705 C490.89295288 289.17295837 490.02601807 288.9569397 489.1328125 288.734375 C488.19707397 288.5049823 487.26133545 288.2755896 486.29724121 288.03924561 C483.23763563 287.28468539 480.18102664 286.51892079 477.125 285.75 C475.54099396 285.35300903 475.54099396 285.35300903 473.92498779 284.94799805 C392.32977374 264.41846983 312.43152094 233.60511358 239.51220703 191.4375 C236.47567574 189.6999785 233.40751069 188.02620732 230.33325195 186.35668945 C202.08150599 170.96271842 175.03608066 152.87569432 149 134 C148.25379395 133.45956055 147.50758789 132.91912109 146.73876953 132.36230469 C128.23772897 118.92579478 110.23823301 104.90093993 92.828125 90.07641602 C89.49272417 87.24122675 86.11017568 84.47993023 82.6875 81.75 C77.15551628 77.25627715 71.99305161 72.40140723 66.83276367 67.49121094 C62.88902467 63.74170319 58.86672701 60.1154705 54.7565918 56.54931641 C52.11813555 54.22219433 49.69176864 51.71647466 47.25 49.1875 C45.33181432 47.32259726 43.37457737 45.58309198 41.34765625 43.83984375 C36.49717833 39.6250154 31.96875797 35.11545593 27.4375 30.5625 C26.62603516 29.75490234 25.81457031 28.94730469 24.97851562 28.11523438 C20.68197555 23.8117588 16.56486276 19.42616839 12.60131836 14.81518555 C9.76387972 11.59878728 6.66639791 8.65971016 3.56835938 5.6953125 C2.34320509 4.49904535 1.16677125 3.25327689 0 2 C0 1.34 0 0.68 0 0 Z " fill="#01F1E9" transform="translate(2979,812)"/>
<path d="M0 0 C0.66 0.33 1.32 0.66 2 1 C-15.82 18.82 -33.64 36.64 -52 55 C-52.66 54.67 -53.32 54.34 -54 54 C-53.40050537 53.40574219 -52.80101074 52.81148437 -52.18334961 52.19921875 C-49.92425473 49.95733893 -47.66755127 47.71308469 -45.41235352 45.46728516 C-44.44257727 44.50248541 -43.4718993 43.53859105 -42.50024414 42.57568359 C-35.7091661 35.84943734 -35.7091661 35.84943734 -29.31640625 28.75 C-26.49635962 25.45207849 -23.4353198 22.67662096 -20.1328125 19.87060547 C-16.06337998 16.30146719 -12.30559366 12.40838089 -8.5 8.5625 C-7.67757812 7.73556641 -6.85515625 6.90863281 -6.0078125 6.05664062 C-4.00287887 4.04005041 -2.00033747 2.02114764 0 0 Z " fill="#4EF5F0" transform="translate(399,1811)"/>
<path d="M0 0 C2.64 1.65 5.28 3.3 8 5 C7.67 5.66 7.34 6.32 7 7 C4.13302508 5.71480435 2.02392288 4.42870746 0 2 C0 1.34 0 0.68 0 0 Z " fill="#4FD2CE" transform="translate(2979,812)"/>
</svg>
