<?xml version="1.0" encoding="UTF-8"?>
<svg version="1.1" xmlns="http://www.w3.org/2000/svg" width="3507" height="2480">
<path d="M0 0 C1.8923342 -0.00702721 3.78466818 -0.01411397 5.67700195 -0.02125549 C11.68701526 -0.04063203 17.69698984 -0.0456898 23.70703125 -0.046875 C24.73272343 -0.04731686 25.7584156 -0.04775871 26.81518936 -0.04821396 C58.82167032 -0.05543882 90.61875057 0.3657828 122.51953125 3.203125 C124.53514492 3.37659657 126.55077019 3.54993335 128.56640625 3.72314453 C216.84071586 11.42516979 304.23000274 28.83196045 388.51953125 56.203125 C389.38429077 56.48371765 390.24905029 56.7643103 391.14001465 57.05340576 C438.46521497 72.45201634 484.49622189 91.00785946 529.51953125 112.203125 C531.0195166 112.90574463 531.0195166 112.90574463 532.54980469 113.62255859 C559.08626124 126.07694448 585.17958412 139.46115122 610.51953125 154.203125 C611.68083865 154.87542354 612.84230427 155.54744884 614.00390625 156.21923828 C661.16011605 183.50835012 706.59372 213.90351173 749.44433594 247.57324219 C751.41715525 249.12271768 753.39349426 250.66757011 755.37109375 252.2109375 C765.83023592 260.3833691 776.08235403 268.78620081 786.1953125 277.3828125 C788.39361818 279.25121092 790.59933561 281.11016644 792.8125 282.9609375 C799.3026031 288.39788574 805.61982798 293.97831433 811.83203125 299.73046875 C813.97058 301.69805793 816.12917857 303.6213616 818.33203125 305.515625 C824.19205603 310.60395927 829.80740007 315.96403253 835.46337891 321.27636719 C837.48062814 323.16667008 839.50506544 325.04897007 841.53125 326.9296875 C849.71233533 334.54534567 857.72954828 342.31096972 865.64453125 350.203125 C866.52125488 351.07525635 867.39797852 351.9473877 868.30126953 352.84594727 C872.70060256 357.25585765 876.93640446 361.73646867 880.99560547 366.4609375 C883.06180325 368.823063 885.27174028 371.01448643 887.51953125 373.203125 C891.02546167 376.67220631 894.34752388 380.20591827 897.55078125 383.953125 C899.59752425 386.29225985 901.70405594 388.56426104 903.82543945 390.83544922 C908.89406959 396.26291344 913.72199629 401.79664453 918.375 407.58984375 C920.51828081 410.20160123 922.74333455 412.70677802 925.01953125 415.203125 C929.72412224 420.37817509 934.12553324 425.76391933 938.51953125 431.203125 C939.50705818 432.41077347 940.49538358 433.61776932 941.484375 434.82421875 C954.65931159 450.91835963 967.27887399 467.3887674 979.51953125 484.203125 C980.0805957 484.97188965 980.64166016 485.7406543 981.21972656 486.53271484 C1006.67028125 521.4293692 1030.04324122 557.73271321 1051.51953125 595.203125 C1052.37998047 596.70335205 1052.37998047 596.70335205 1053.2578125 598.23388672 C1062.48113232 614.37209389 1071.15253458 630.77225089 1079.57165527 647.33990479 C1080.51710278 649.1983514 1081.46568603 651.05516693 1082.41503906 652.91162109 C1104.10962831 695.37606405 1122.51365498 739.29164883 1138.51953125 784.203125 C1138.81130249 785.01916199 1139.10307373 785.83519897 1139.40368652 786.67596436 C1169.63428103 871.33341716 1189.57502384 959.35770114 1204.20703125 1100.515625 C1204.29830292 1101.79315643 1204.29830292 1101.79315643 1204.39141846 1103.09649658 C1206.20351534 1128.7856348 1206.72553566 1154.45881086 1206.70703125 1180.203125 C1206.70685186 1181.31486965 1206.70685186 1181.31486965 1206.70666885 1182.44907379 C1206.70174946 1206.63418766 1206.32759989 1230.74784417 1204.67773438 1254.88476562 C1204.51786112 1257.22759964 1204.36405533 1259.57077817 1204.2109375 1261.9140625 C1200.44034646 1318.78659303 1192.71890593 1375.52055739 1180.51953125 1431.203125 C1180.32486267 1432.09632446 1180.13019409 1432.98952393 1179.92962646 1433.90979004 C1160.39249742 1523.34625083 1130.65625576 1610.54382122 1084.4934082 1705.22283936 C1083.54436241 1707.15263321 1082.59873615 1709.08406144 1081.65429688 1711.01611328 C1074.29091654 1726.07036599 1066.53719635 1740.81050692 1058.16259766 1755.32714844 C1056.4670191 1758.29504077 1054.80703107 1761.28041477 1053.15625 1764.2734375 C1040.88554899 1786.50917043 1027.50777925 1808.01172216 1013.51953125 1829.203125 C1012.69786704 1830.45569661 1011.87624942 1831.70829879 1011.0546875 1832.9609375 C999.10560139 1851.10263377 986.51828244 1868.80163356 973.51953125 1886.203125 C972.46858034 1887.61706141 971.41779541 1889.03112121 970.3671875 1890.4453125 C959.98748681 1904.38651279 949.16956329 1917.91885485 938.08544922 1931.30517578 C936.02694925 1933.80015221 933.99262588 1936.31444576 931.95703125 1938.828125 C923.84368485 1948.75113974 915.35865883 1958.36067431 906.69921875 1967.80859375 C904.85708093 1969.83230429 903.05464988 1971.87936779 901.26953125 1973.953125 C897.77434777 1977.972586 894.15007734 1981.86882618 890.51953125 1985.765625 C889.9378418 1986.39114258 889.35615234 1987.01666016 888.75683594 1987.66113281 C885.89664962 1990.72068006 883.00399455 1993.72930497 880.01953125 1996.66796875 C877.67493735 1998.9921805 875.47214626 2001.37677157 873.328125 2003.88671875 C868.86083987 2009.0592991 864.01643003 2013.85595801 859.17700195 2018.67602539 C857.58494159 2020.26272446 855.99830135 2021.85470242 854.41210938 2023.44726562 C849.46730461 2028.39496497 844.47790813 2033.23449529 839.15795898 2037.78295898 C837.00102041 2039.65256287 835.0064331 2041.65508771 833.01953125 2043.703125 C829.73437482 2047.02739043 826.36172437 2050.1495233 822.81640625 2053.19140625 C819.83127793 2055.8059319 816.9277709 2058.50368204 814.01953125 2061.203125 C806.17917104 2068.46535315 798.11168352 2075.42456898 789.94140625 2082.3125 C787.71552547 2084.18971841 785.4968974 2086.07489613 783.28515625 2087.96875 C776.1480912 2094.06989489 768.86654996 2099.94769892 761.44873047 2105.70361328 C759.40696148 2107.29062228 757.37112001 2108.88502355 755.3359375 2110.48046875 C744.18079389 2119.21198398 732.90393318 2127.77278701 721.51953125 2136.203125 C720.77767578 2136.75323242 720.03582031 2137.30333984 719.27148438 2137.87011719 C707.22851273 2146.76979749 694.82721082 2155.09107286 682.33203125 2163.33984375 C679.82395389 2165.001445 677.32524562 2166.6755896 674.83203125 2168.359375 C604.98092082 2215.5012369 529.01758779 2253.77515079 450.51953125 2284.203125 C449.39724121 2284.63898926 448.27495117 2285.07485352 447.11865234 2285.52392578 C439.29569887 2288.53984351 431.42394043 2291.40835415 423.51953125 2294.203125 C422.71449158 2294.48800781 421.9094519 2294.77289062 421.08001709 2295.06640625 C330.95039797 2326.89537561 237.54294447 2348.02964717 130.89453125 2358.390625 C130.04693237 2358.46962036 129.1993335 2358.54861572 128.3260498 2358.63000488 C95.8719853 2361.61692483 63.4370113 2362.5406914 30.86083984 2362.46386719 C25.99454074 2362.4524738 21.12846057 2362.45926666 16.26216888 2362.47074604 C-8.71440036 2362.52065839 -33.55873086 2361.87263721 -58.48046875 2360.203125 C-59.57979736 2360.12987 -60.67912598 2360.05661499 -61.81176758 2359.98114014 C-67.87509348 2359.56483687 -73.92837889 2359.07085444 -79.98046875 2358.515625 C-80.87894531 2358.43453491 -81.77742188 2358.35344482 -82.703125 2358.26989746 C-174.64659429 2349.87942354 -265.56707169 2330.98721961 -361.48046875 2298.203125 C-362.16347046 2297.96787109 -362.84647217 2297.73261719 -363.5501709 2297.49023438 C-392.3492385 2287.56816969 -420.5773198 2276.42577962 -448.48046875 2264.203125 C-449.81634033 2263.62014648 -449.81634033 2263.62014648 -451.17919922 2263.02539062 C-466.81411149 2256.18031604 -482.14949924 2248.69773827 -497.48046875 2241.203125 C-498.66286133 2240.62546387 -498.66286133 2240.62546387 -499.86914062 2240.03613281 C-504.42826612 2237.80104934 -508.95835797 2235.51205063 -513.48046875 2233.203125 C-515.01791748 2232.42098633 -515.01791748 2232.42098633 -516.58642578 2231.62304688 C-556.58838826 2211.23888364 -595.35625452 2188.47395107 -632.48046875 2163.203125 C-633.15480957 2162.74486328 -633.82915039 2162.28660156 -634.52392578 2161.81445312 C-661.26251151 2143.61440201 -687.33711456 2124.55906392 -712.48046875 2104.203125 C-713.34937744 2103.50219727 -713.34937744 2103.50219727 -714.23583984 2102.78710938 C-722.86385827 2095.8257441 -731.42463171 2088.79638353 -739.85205078 2081.59326172 C-741.55700871 2080.13778489 -743.26659205 2078.68786447 -744.9765625 2077.23828125 C-751.63392037 2071.58043903 -758.16658591 2065.81905358 -764.56640625 2059.87109375 C-766.75109012 2057.87090731 -768.95362207 2055.91401794 -771.19042969 2053.97387695 C-785.60431207 2041.3743588 -799.08940448 2027.75572559 -812.60449219 2014.20947266 C-815.12770565 2011.68049255 -817.65548233 2009.15612802 -820.1845417 2006.63299561 C-822.16823254 2004.65293929 -824.14951025 2002.67048206 -826.13009262 2000.68731689 C-827.5062148 1999.31022292 -828.88431566 1997.93510712 -830.26248169 1996.56005859 C-834.65932259 1992.14682622 -838.92815265 1987.68239743 -842.97787476 1982.94726562 C-845.55806595 1979.95230072 -848.2769769 1977.08641475 -850.98046875 1974.203125 C-855.57248101 1969.27796293 -860.10145011 1964.31966257 -864.48046875 1959.203125 C-865.38007225 1958.15743499 -866.27982608 1957.11187431 -867.1796875 1956.06640625 C-870.28754781 1952.45179107 -873.38570144 1948.82895282 -876.48046875 1945.203125 C-876.97160156 1944.62804199 -877.46273438 1944.05295898 -877.96875 1943.46044922 C-883.1831031 1937.34834193 -888.34744043 1931.20537053 -893.3359375 1924.90625 C-894.95404471 1922.8666686 -896.58155896 1920.83666346 -898.21875 1918.8125 C-905.52390356 1909.76619058 -912.56492295 1900.54983442 -919.48046875 1891.203125 C-920.03492676 1890.45514648 -920.58938477 1889.70716797 -921.16064453 1888.93652344 C-924.70172955 1884.15710809 -928.22964705 1879.36824195 -931.74560547 1874.5703125 C-932.87615368 1873.02770126 -934.00792978 1871.48598893 -935.14111328 1869.9453125 C-943.96244599 1857.93960331 -952.30767732 1845.65800523 -960.48046875 1833.203125 C-961.03234863 1832.36491211 -961.58422852 1831.52669922 -962.15283203 1830.66308594 C-984.07439902 1797.34126239 -1004.42717936 1763.02502062 -1022.703125 1727.56640625 C-1024.38869743 1724.29624569 -1026.09605131 1721.04172812 -1027.8515625 1717.80859375 C-1052.10949707 1673.001434 -1071.50227648 1625.17928127 -1088.48046875 1577.203125 C-1088.76233032 1576.40821655 -1089.04419189 1575.61330811 -1089.33459473 1574.79431152 C-1118.46692984 1492.5188623 -1138.51007562 1406.9428297 -1148.48046875 1320.203125 C-1148.57050171 1319.42463196 -1148.66053467 1318.64613892 -1148.7532959 1317.84405518 C-1159.17239962 1227.23231924 -1158.8836484 1135.5651495 -1141.48046875 992.203125 C-1141.33587219 991.31705566 -1141.19127563 990.43098633 -1141.04229736 989.51806641 C-1126.34613467 899.87968186 -1101.71302808 811.89077758 -1043.12402344 675.65771484 C-1041.54017338 672.32861823 -1039.96668122 668.99479033 -1038.39453125 665.66015625 C-1028.11808973 643.95427389 -1016.99987426 622.76473552 -1005.04492188 601.93798828 C-1003.53734105 599.30254502 -1002.04541228 596.65891966 -1000.55859375 594.01171875 C-988.53609639 572.66507059 -975.50505612 551.94680296 -962.00341797 531.50878906 C-960.77363658 529.64696549 -959.54992543 527.78113321 -958.328125 525.9140625 C-943.93115436 504.05082919 -928.5209293 482.88338819 -912.48046875 462.203125 C-911.63968873 461.10488281 -910.79986296 460.0059095 -909.9609375 458.90625 C-904.60392112 451.889617 -899.1027904 445.00961705 -893.48046875 438.203125 C-892.02173248 436.41178638 -890.56340359 434.62011595 -889.10546875 432.828125 C-884.4457715 427.13473408 -879.70502977 421.51312565 -874.93505859 415.91210938 C-873.95507573 414.76073642 -872.9762573 413.60837146 -871.99853516 412.45507812 C-865.85420454 405.20761093 -859.61719299 398.07736783 -853.1484375 391.1171875 C-851.10543618 388.8857395 -849.10499454 386.63462073 -847.12109375 384.3515625 C-843.51621159 380.21733981 -839.8046134 376.19476601 -836.04296875 372.203125 C-835.36065186 371.47834961 -834.67833496 370.75357422 -833.9753418 370.00683594 C-827.20905991 362.85609742 -820.26463225 355.88924231 -813.26293945 348.96972656 C-809.23483256 344.97748147 -805.23800941 340.95419885 -801.2421875 336.9296875 C-799.73387645 335.41399253 -798.22507825 333.89878437 -796.71606445 332.38378906 C-795.68846305 331.3511639 -794.66176161 330.31764232 -793.63598633 329.28320312 C-788.34195649 323.94582837 -783.03812765 318.67911731 -777.31958008 313.79052734 C-774.11640784 311.02575555 -771.05925217 308.1047267 -767.98046875 305.203125 C-762.89443015 300.43655963 -757.78320012 295.72889939 -752.48046875 291.203125 C-751.43595623 290.3049685 -750.39171138 289.40650066 -749.34765625 288.5078125 C-745.73189266 285.3984683 -742.10769468 282.29908564 -738.48046875 279.203125 C-737.90538574 278.71199219 -737.33030273 278.22085937 -736.73779297 277.71484375 C-730.62568568 272.50049065 -724.48271428 267.33615332 -718.18359375 262.34765625 C-716.14401235 260.72954904 -714.11400721 259.10203479 -712.08984375 257.46484375 C-703.04337287 250.1595598 -693.82489841 243.12194324 -684.48046875 236.203125 C-683.72717285 235.64334961 -682.97387695 235.08357422 -682.19775391 234.50683594 C-671.07222034 226.24057142 -659.85029937 218.12990078 -648.48046875 210.203125 C-647.86236328 209.77 -647.24425781 209.336875 -646.60742188 208.890625 C-610.94409372 183.92248917 -573.68928026 161.19602668 -535.28320312 140.71191406 C-532.54894384 139.23998703 -529.83269752 137.73976093 -527.12109375 136.2265625 C-512.79256087 128.24594727 -498.12630818 121.06191239 -483.3013916 114.06378174 C-481.5287904 113.22596416 -479.75802034 112.38427582 -477.98730469 111.54248047 C-398.23411908 73.66939333 -314.21659716 45.4780111 -62.04296875 2.515625 C-61.21740479 2.45459595 -60.39184082 2.39356689 -59.54125977 2.33068848 C-39.70521682 0.88511869 -19.88888974 0.04617965 0 0 Z " fill="#D4101D" transform="translate(1658.48046875,58.796875)"/>
<path d="M0 0 C1.57673211 -0.00239696 3.15346309 -0.00566667 4.73019183 -0.0097166 C9.02897399 -0.01826271 13.32766783 -0.01454123 17.62645116 -0.00866088 C22.31627156 -0.00446495 27.00607659 -0.01190695 31.69589317 -0.01781338 C39.90443937 -0.0265531 48.11296062 -0.02789544 56.32151031 -0.02431011 C68.52843288 -0.01899251 80.73533138 -0.02510907 92.94225133 -0.03339304 C116.01491565 -0.04862081 139.08756898 -0.05033935 162.16023727 -0.04787002 C179.9800034 -0.04603617 197.79976595 -0.04779889 215.61953163 -0.05209446 C218.18121072 -0.05269686 220.74288982 -0.05329806 223.30456891 -0.05389806 C227.16495888 -0.05480533 231.02534884 -0.055714 234.88573881 -0.05663041 C270.77106547 -0.06505821 306.65639023 -0.06941559 342.54171753 -0.06522369 C343.21770219 -0.06514564 343.89368684 -0.06506758 344.59015588 -0.06498716 C352.12751257 -0.06411442 359.66486926 -0.06318515 367.20222594 -0.06223653 C368.22292672 -0.06210826 368.22292672 -0.06210826 369.26424772 -0.06197741 C374.9171841 -0.06126675 374.9171841 -0.06126675 377.51979795 -0.06093518 C421.0349959 -0.05540065 464.55017263 -0.06293948 508.06536674 -0.08170605 C519.02932099 -0.08642859 529.99327525 -0.09110924 540.95722961 -0.09554291 C541.6324009 -0.09581623 542.30757219 -0.09608955 543.00320322 -0.09637116 C579.49394964 -0.11105071 615.98469551 -0.11217569 652.47544467 -0.10913056 C657.6103572 -0.10873523 662.74526973 -0.10837368 667.88018227 -0.10803318 C669.14449002 -0.10794245 670.40879778 -0.10785172 671.71141789 -0.10775824 C690.77910435 -0.10659334 709.8467779 -0.11323242 728.91446114 -0.1238451 C750.6063819 -0.1359062 772.29827428 -0.13744558 793.99019547 -0.12505493 C806.12086026 -0.11843546 818.25145716 -0.12003635 830.38211649 -0.13364345 C838.49683294 -0.14190933 846.61149873 -0.13916269 854.72621109 -0.12766818 C859.34183933 -0.12143293 863.95733544 -0.11975577 868.57295586 -0.13153151 C893.54233372 -0.19085885 917.31923939 1.2084757 941.65130424 7.25447559 C942.59231987 7.47748341 943.53333549 7.70049122 944.50286674 7.93025684 C993.04009631 20.17726678 1038.84803951 49.70598018 1069.65130424 89.25447559 C1070.79792534 90.65826466 1070.79792534 90.65826466 1071.96771049 92.09041309 C1114.16913822 144.79139346 1123.34064536 206.27801767 1123.13022578 271.57262647 C1123.1148068 277.75149658 1123.12291011 283.93034599 1123.12791252 290.10922718 C1123.13338323 300.7791891 1123.12444462 311.44904577 1123.10478973 322.11898327 C1123.08423765 333.29399916 1123.07172632 344.46897625 1123.06975174 355.6440115 C1123.06962191 356.34279154 1123.06949207 357.04157158 1123.0693583 357.76152678 C1123.06885828 360.59868633 1123.06841833 363.43584588 1123.06805621 366.27300545 C1123.06476581 392.03532816 1123.04252073 417.79759712 1123.0079937 443.55989552 C1122.97543817 467.8629575 1122.95423962 492.16599233 1122.94647026 516.4690752 C1122.94622722 517.21985793 1122.94598418 517.97064066 1122.94573377 518.74417438 C1122.94451165 522.52587803 1122.94330835 526.3075817 1122.94211198 530.08928536 C1122.94187571 530.83557629 1122.94163944 531.58186722 1122.94139601 532.35077302 C1122.94092183 533.85570117 1122.94045167 535.36062931 1122.93998555 536.86555746 C1122.93251943 560.80599229 1122.91675059 584.74642217 1122.89878637 608.6868512 C1122.89354241 615.68911979 1122.88859828 622.69138832 1122.88442445 629.69365764 C1122.87555437 644.39821134 1122.86376355 659.10275064 1122.84285841 673.80729356 C1122.8342486 679.88583053 1122.82716928 685.96435838 1122.82434273 692.04290104 C1122.82168274 697.59993927 1122.81441364 703.15695118 1122.80335226 708.71397886 C1122.80013754 710.72993177 1122.79861441 712.74588819 1122.79890255 714.76184364 C1122.79902714 717.49008904 1122.7930784 720.2182541 1122.78552532 722.94648743 C1122.78700895 723.73891689 1122.78849257 724.53134636 1122.79002115 725.34778884 C1122.77431236 728.83479703 1122.52437999 731.89444921 1121.65130424 735.25447559 C1121.54751464 737.12845456 1121.4677838 739.0038024 1121.40130424 740.87947559 C1118.25980555 784.5463074 1099.84501745 829.16451497 1072.65130424 863.25447559 C1071.93458549 864.16326466 1071.21786674 865.07205372 1070.47942924 866.00838184 C1064.83685121 873.04159524 1058.83211227 879.69600269 1052.65130424 886.25447559 C1051.96165581 886.98666309 1051.27200737 887.71885059 1050.56146049 888.47322559 C1045.31135116 893.88438123 1039.5580135 898.58060658 1033.65130424 903.25447559 C1032.68579643 904.03693653 1031.72028862 904.81939747 1030.72552299 905.62556934 C1021.51842933 912.93742899 1011.73136953 919.21516375 1001.65130424 925.25447559 C1001.02030815 925.63345997 1000.38931206 926.01244434 999.73919487 926.40291309 C973.03992414 942.16763233 941.28420952 951.53041487 910.65130424 955.25447559 C909.69729482 955.37757038 909.69729482 955.37757038 908.72401247 955.50315194 C900.87838962 956.41307781 893.05193619 956.39607005 885.1667366 956.38590336 C883.59846661 956.38755525 882.03019703 956.38964255 880.46192813 956.39212346 C876.15402026 956.3976709 871.84613234 956.39702123 867.53822204 956.39534587 C862.85064148 956.39461322 858.16306648 956.39964137 853.47548831 956.40392089 C844.17879749 956.41149319 834.88211243 956.41369356 825.58541886 956.41424994 C814.44918137 956.41516436 803.31294918 956.42183424 792.17671397 956.42859677 C765.26015995 956.44465191 738.34360649 956.45055968 711.42704854 956.45534552 C698.69034548 956.45768214 685.95364288 956.46128488 673.21694018 956.46504089 C630.29046018 956.47767539 587.36398031 956.48848838 544.43749853 956.49188135 C542.38641122 956.49204359 540.33532392 956.49220915 538.28423661 956.49237574 C534.17089454 956.49270953 530.05755248 956.49304001 525.94421041 956.49337029 C521.12870467 956.49375719 516.31319894 956.4941468 511.49769321 956.49454136 C510.11946732 956.49465378 508.74124144 956.4947652 507.36301556 956.49487561 C463.11977877 956.49842338 418.87655823 956.51349501 374.63332763 956.53681336 C327.15753171 956.56182529 279.68174853 956.57619931 232.20594466 956.57741141 C227.06725414 956.57758286 221.92856363 956.57779829 216.78987312 956.57804585 C214.89197437 956.5781295 214.89197437 956.5781295 212.95573423 956.57821484 C192.61440759 956.57936437 172.2730978 956.59037812 151.93177684 956.6049329 C131.47534753 956.61931663 111.01893976 956.62252431 90.56250678 956.61449292 C78.41875556 956.61004539 66.27507401 956.61386216 54.13133198 956.62973143 C46.00637113 956.63951466 37.88145884 956.63827139 29.75649838 956.6282952 C25.13571313 956.62292719 20.51506123 956.62211478 15.89428727 956.63480392 C-7.44048936 956.69488258 -30.47061117 956.3212485 -53.22369576 950.44197559 C-54.77588814 950.0529607 -54.77588814 950.0529607 -56.35943794 949.65608692 C-94.71792027 939.82887896 -127.97910937 921.40461643 -157.87066841 895.53279591 C-159.21630347 894.36897939 -160.5692241 893.21360013 -161.92291451 892.05916309 C-166.14473375 888.40359804 -169.95487498 884.62432493 -173.55572701 880.35603809 C-175.48689105 878.09249506 -177.50830948 875.93163177 -179.53619576 873.75447559 C-199.25897841 851.75855866 -213.00784234 825.81407072 -223.52496529 798.38826466 C-224.18545177 796.67734235 -224.87052142 794.97591883 -225.56353951 793.27791309 C-236.1048727 766.60707008 -237.50326934 737.46735286 -237.48913765 709.17502308 C-237.4917268 707.07950758 -237.49474147 704.98399256 -237.49814105 702.88847822 C-237.50614951 697.16948962 -237.50799715 691.4505136 -237.50873852 685.73152006 C-237.51059984 679.54789453 -237.51815241 673.36427537 -237.52487373 667.18065357 C-237.53911788 652.97519044 -237.54497741 638.76973147 -237.54956568 624.56426292 C-237.5519084 617.53227434 -237.55551174 610.50028656 -237.55926106 603.46829861 C-237.57208941 579.35873362 -237.5828099 555.24916908 -237.58626366 531.13960075 C-237.58648528 529.62882991 -237.58670707 528.11805906 -237.58692901 526.60728821 C-237.58714964 525.09305342 -237.58737012 523.57881863 -237.58759046 522.06458384 C-237.58803299 519.02721377 -237.58848011 515.98984371 -237.58893013 512.95247364 C-237.58903952 512.19939387 -237.58914891 511.44631409 -237.58926162 510.67041372 C-237.59289036 486.26465229 -237.6088072 461.8589206 -237.63212049 437.45317055 C-237.6567709 411.60002433 -237.67043887 385.74689509 -237.67163157 359.89373678 C-237.67180301 357.05050178 -237.67201843 354.20726679 -237.67226601 351.36403179 C-237.67232178 350.66403778 -237.67237754 349.96404376 -237.672435 349.24283781 C-237.67358078 338.02741456 -237.68456202 326.81202211 -237.69915306 315.59660922 C-237.71358925 304.30418474 -237.71646461 293.01181029 -237.70871308 281.71937514 C-237.70482652 275.61399999 -237.70563797 269.50872743 -237.71977043 263.40336514 C-237.8243051 215.50695869 -237.8243051 215.50695869 -234.34869576 196.25447559 C-234.22431554 195.56136976 -234.09993533 194.86826393 -233.97178602 194.1541549 C-233.30628242 190.54486748 -232.51828082 186.99481731 -231.59869576 183.44197559 C-231.34048042 182.41467335 -231.08226509 181.3873711 -230.81622505 180.32893848 C-220.8050148 141.61232931 -201.45254796 108.23154235 -175.34869576 78.25447559 C-174.62810982 77.41013966 -173.90752388 76.56580372 -173.16510201 75.69588184 C-169.50373346 71.46353965 -165.7179921 67.64554296 -161.43853951 64.03963184 C-160.02517126 62.83232476 -158.64241109 61.58839689 -157.29010201 60.31306934 C-143.58766141 47.41805159 -127.8748813 37.13675718 -111.34869576 28.25447559 C-110.66742622 27.88628712 -109.98615669 27.51809864 -109.28424263 27.13875294 C-75.69064183 9.17527822 -38.0629144 -0.12243423 0 0 Z " fill="#FEFEFE" transform="translate(1241.3486957550049,776.7455244064331)"/>
<path d="M0 0 C3.43961441 1.35914509 6.76077833 2.81615738 10.0703125 4.46875 C11.03831787 4.95174561 12.00632324 5.43474121 13.00366211 5.93237305 C14.03370361 6.44968994 15.06374512 6.96700684 16.125 7.5 C17.20467041 8.04116455 18.28434082 8.5823291 19.39672852 9.13989258 C26.35222911 12.63795354 33.26476663 16.20669584 40.14111328 19.85742188 C48.2248259 24.14147111 56.36333744 28.31774075 64.5 32.5 C73.98939306 37.37892388 83.46875612 42.27275245 92.90039062 47.26269531 C99.9119812 50.96687336 106.95494331 54.61001963 114 58.25 C114.6174408 58.5690329 115.23488159 58.8880658 115.87103271 59.21676636 C118.37988952 60.51301857 120.88880076 61.80916531 123.39779663 63.10514832 C139.05178036 71.19173433 154.68948623 79.30952033 170.30712891 87.46606445 C182.19116428 93.67021492 194.09660584 99.83310031 206 106 C219.77500999 113.13654472 233.54683517 120.27873956 247.29785156 127.46142578 C255.84194039 131.92235506 264.399328 136.35746149 272.95751953 140.79125977 C280.10311178 144.49443876 287.24194854 148.21022945 294.375 151.9375 C303.68552855 156.80198963 313.01358913 161.63212211 322.34628296 166.45388794 C333.62091604 172.27944297 344.87676687 178.14048293 356.12182617 184.02294922 C357.4090774 184.69259427 358.70217406 185.35108703 360 186 C360 186.66 360 187.32 360 188 C358.94594971 188.54188965 358.94594971 188.54188965 357.87060547 189.09472656 C344.8594746 195.79172548 331.89351554 202.54375481 319.07177734 209.59863281 C312.59277167 213.15494735 306.06212041 216.59974891 299.5 220 C291.95003453 223.91248632 284.45293255 227.90568512 277 232 C268.59410852 236.6178288 260.1205838 241.0873088 251.60546875 245.5 C245.02472801 248.91949181 238.49980308 252.42929273 232 256 C223.59267383 260.61861695 215.11774026 265.08893752 206.60107422 269.50219727 C200.06292296 272.89940696 193.58149652 276.38782443 187.125 279.9375 C178.25963019 284.81026441 169.30884587 289.49920911 160.32128906 294.14208984 C152.54256411 298.1710026 144.84418049 302.33052631 137.16796875 306.55078125 C130.65614369 310.12147897 124.09373371 313.5831865 117.5 317 C109.95004368 320.91250477 102.45293307 324.90568484 95 329 C86.59410852 333.6178288 78.1205838 338.0873088 69.60546875 342.5 C63.02472607 345.91949282 56.49984216 349.42936111 50 353 C41.44424997 357.69908472 32.82546744 362.26262036 24.15942383 366.75488281 C19.85435233 368.98689394 15.55590357 371.22682662 11.2890625 373.53125 C10.23706665 374.09924316 10.23706665 374.09924316 9.16381836 374.67871094 C7.88661214 375.37103718 6.61124385 376.06676972 5.33813477 376.76660156 C1.21767125 379 1.21767125 379 -1 379 C-1.0559861 314.4500256 -1.03818683 249.901109 -0.78125 185.3515625 C-0.77851342 184.6627189 -0.77577683 183.9738753 -0.77295732 183.26415765 C-0.70396068 165.92374579 -0.63024525 148.58335525 -0.55461788 131.24297118 C-0.51094902 121.21927738 -0.46867519 111.1955783 -0.42724609 101.171875 C-0.4242591 100.44926828 -0.4212721 99.72666156 -0.41819459 98.98215766 C-0.40319264 95.35128765 -0.3882122 91.72041754 -0.37324238 88.0895474 C-0.252153 58.72635059 -0.12740907 29.3631701 0 0 Z " fill="#D20F1C" transform="translate(1540,1064)"/>
<path d="M0 0 C3.48670834 1.1094072 6.77484237 2.26337666 10 4 C10 4.66 10 5.32 10 6 C8.94594971 6.54188965 8.94594971 6.54188965 7.87060547 7.09472656 C-5.1405254 13.79172548 -18.10648446 20.54375481 -30.92822266 27.59863281 C-37.40722833 31.15494735 -43.93787959 34.59974891 -50.5 38 C-58.04996547 41.91248632 -65.54706745 45.90568512 -73 50 C-81.40589148 54.6178288 -89.8794162 59.0873088 -98.39453125 63.5 C-104.97527199 66.91949181 -111.50019692 70.42929273 -118 74 C-126.40732617 78.61861695 -134.88225974 83.08893752 -143.39892578 87.50219727 C-149.93707704 90.89940696 -156.41850348 94.38782443 -162.875 97.9375 C-171.74036981 102.81026441 -180.69115413 107.49920911 -189.67871094 112.14208984 C-197.45743589 116.1710026 -205.15581951 120.33052631 -212.83203125 124.55078125 C-219.34385631 128.12147897 -225.90626629 131.5831865 -232.5 135 C-240.04995632 138.91250477 -247.54706693 142.90568484 -255 147 C-263.40589148 151.6178288 -271.8794162 156.0873088 -280.39453125 160.5 C-286.975277 163.91949441 -293.500094 167.4294734 -300 171 C-307.70654127 175.2310832 -315.45423943 179.37300048 -323.25 183.4375 C-324.6421875 184.16356445 -324.6421875 184.16356445 -326.0625 184.90429688 C-332.01255101 187.99539996 -337.99410356 191.01892971 -344 194 C-343.02254511 189.42034501 -341.12430649 188.17249818 -337.375 185.5078125 C-334.19660183 183.48994787 -330.90727882 181.83793033 -327.5078125 180.2265625 C-325.06742332 179.03297651 -322.77022435 177.70238106 -320.4375 176.3125 C-316.08372546 173.84999277 -311.8860499 172.85949635 -307 172 C-305.66412792 171.67699121 -304.32992619 171.34667739 -303 171 C-303 170.34 -303 169.68 -303 169 C-302.443125 168.773125 -301.88625 168.54625 -301.3125 168.3125 C-298.83058079 167.05257515 -298.83058079 167.05257515 -296.75 164.625 C-293.44603725 161.47121738 -290.11679545 159.87052809 -286 158 C-281.6349626 155.86391787 -277.39473179 153.5610498 -273.15625 151.1875 C-270.47627387 149.71157112 -267.73636303 148.36818152 -265 147 C-263.49692767 146.17222104 -261.99716654 145.33841326 -260.5 144.5 C-257.04442277 142.56487675 -253.54264349 140.77132174 -250 139 C-248.49692767 138.17222104 -246.99716654 137.33841326 -245.5 136.5 C-242.04442277 134.56487675 -238.54264349 132.77132174 -235 131 C-233.49692767 130.17222104 -231.99716654 129.33841326 -230.5 128.5 C-227.04442277 126.56487675 -223.54264349 124.77132174 -220 123 C-218.49692767 122.17222104 -216.99716654 121.33841326 -215.5 120.5 C-212.04442277 118.56487675 -208.54264349 116.77132174 -205 115 C-203.49692767 114.17222104 -201.99716654 113.33841326 -200.5 112.5 C-197.04442277 110.56487675 -193.54264349 108.77132174 -190 107 C-188.49692767 106.17222104 -186.99716654 105.33841326 -185.5 104.5 C-182.04442277 102.56487675 -178.54264349 100.77132174 -175 99 C-173.5387509 98.19275565 -172.08067008 97.37976187 -170.625 96.5625 C-167.09752614 94.58569418 -163.52572601 92.74981379 -159.8984375 90.96484375 C-157.47194042 89.73162404 -155.13324513 88.36843353 -152.78125 87 C-150.22620889 85.56559095 -147.59696058 84.29388828 -144.96875 83 C-143.10761265 82.05466039 -141.30396979 81.04958242 -139.5 80 C-136.38776882 78.18924731 -133.19817394 76.58987025 -129.96875 75 C-128.10761265 74.05466039 -126.30396979 73.04958242 -124.5 72 C-121.38776882 70.18924731 -118.19817394 68.58987025 -114.96875 67 C-113.10761265 66.05466039 -111.30396979 65.04958242 -109.5 64 C-106.38776882 62.18924731 -103.19817394 60.58987025 -99.96875 59 C-98.10761265 58.05466039 -96.30396979 57.04958242 -94.5 56 C-91.38776882 54.18924731 -88.19817394 52.58987025 -84.96875 51 C-83.10761265 50.05466039 -81.30396979 49.04958242 -79.5 48 C-76.38776882 46.18924731 -73.19817394 44.58987025 -69.96875 43 C-68.10761265 42.05466039 -66.30396979 41.04958242 -64.5 40 C-61.38776882 38.18924731 -58.19817394 36.58987025 -54.96875 35 C-53.10761265 34.05466039 -51.30396979 33.04958242 -49.5 32 C-46.38776882 30.18924731 -43.19817394 28.58987025 -39.96875 27 C-38.10761265 26.05466039 -36.30396979 25.04958242 -34.5 24 C-31.3856399 22.18800867 -28.19505852 20.58608234 -24.9609375 19 C-23.14317137 18.0730117 -21.38041238 17.04024438 -19.625 16 C-15.30048894 13.48067475 -10.66275596 11.78414135 -6 10 C-4.33237399 9.33573671 -2.66543761 8.66973114 -1 8 C-0.67 5.36 -0.34 2.72 0 0 Z " fill="#B0151F" transform="translate(1890,1246)"/>
<path d="M0 0 C3.67834747 1.44957153 7.20464185 3.04404457 10.73828125 4.8203125 C11.80498047 5.35527344 12.87167969 5.89023438 13.97070312 6.44140625 C15.07349609 6.99699219 16.17628906 7.55257813 17.3125 8.125 C18.43462891 8.68832031 19.55675781 9.25164062 20.71289062 9.83203125 C23.47617262 11.21955157 26.23850182 12.60893378 29 14 C24.87276194 15.26791328 22.84227973 14.41770185 18.875 12.6875 C17.82054687 12.23761719 16.76609375 11.78773437 15.6796875 11.32421875 C13 10 13 10 11 8 C8.39719432 8.32041397 8.39719432 8.32041397 6 9 C4.31797384 13.40303073 3.75350012 17.02538505 3.76622009 21.72885132 C3.76471517 22.70777121 3.76471517 22.70777121 3.76317984 23.70646727 C3.76223126 25.8830485 3.77554651 28.05930244 3.78881836 30.23583984 C3.79102221 31.80461022 3.79232561 33.37338208 3.7928009 34.94215393 C3.79573627 38.32887232 3.80499678 41.71549419 3.81910515 45.1021843 C3.84163408 50.54123521 3.84951257 55.98025144 3.85560608 61.41934204 C3.8683129 71.10769702 3.89330936 80.79599173 3.92095947 90.48431396 C3.96695713 106.64024945 4.0001488 122.79621436 4.02324343 138.95219827 C4.0259814 140.83607133 4.02887822 142.71994417 4.03193235 144.60381675 C4.0796972 174.34996342 3.83841792 204.0813071 3.36106873 233.823349 C3.31544967 236.67226836 3.27004044 239.52119094 3.22485352 242.37011719 C3.20852342 243.39575891 3.20852342 243.39575891 3.19186342 244.44212067 C2.99434764 256.98138708 2.91546054 269.51789537 2.9375 282.05859375 C2.93894579 282.90824959 2.94039158 283.75790543 2.94188118 284.63330841 C2.95339749 290.23474317 2.97572373 295.83610856 3 301.4375 C3.02403521 307.30449437 3.04388744 313.17146808 3.05593872 319.03849983 C3.06231717 321.30609689 3.07473146 323.57360349 3.08764648 325.84117126 C3.09126454 327.18374561 3.09461797 328.5263207 3.09765625 329.86889648 C3.10289307 331.03517075 3.10812988 332.20144501 3.11352539 333.40306091 C3 336 3 336 2 337 C1.89969443 339.12439621 1.8691854 341.25214428 1.8671875 343.37890625 C1.86589844 344.69310547 1.86460938 346.00730469 1.86328125 347.36132812 C1.86537598 348.05170166 1.8674707 348.7420752 1.86962891 349.45336914 C1.87491605 351.52953621 1.86971742 353.60548088 1.86328125 355.68164062 C1.80582663 365.39152686 1.80582663 365.39152686 3 375 C3.66 375.66 4.32 376.32 5 377 C3.02 377.66 1.04 378.32 -1 379 C-1.0559861 314.4500256 -1.03818683 249.901109 -0.78125 185.3515625 C-0.77851342 184.6627189 -0.77577683 183.9738753 -0.77295732 183.26415765 C-0.70396068 165.92374579 -0.63024525 148.58335525 -0.55461788 131.24297118 C-0.51094902 121.21927738 -0.46867519 111.1955783 -0.42724609 101.171875 C-0.4242591 100.44926828 -0.4212721 99.72666156 -0.41819459 98.98215766 C-0.40319264 95.35128765 -0.3882122 91.72041754 -0.37324238 88.0895474 C-0.252153 58.72635059 -0.12740907 29.3631701 0 0 Z " fill="#B0111B" transform="translate(1540,1064)"/>
<path d="M0 0 C3.67834747 1.44957153 7.20464185 3.04404457 10.73828125 4.8203125 C11.80498047 5.35527344 12.87167969 5.89023438 13.97070312 6.44140625 C15.07349609 6.99699219 16.17628906 7.55257813 17.3125 8.125 C18.43462891 8.68832031 19.55675781 9.25164062 20.71289062 9.83203125 C23.47617262 11.21955157 26.23850182 12.60893378 29 14 C24.87276194 15.26791328 22.84227973 14.41770185 18.875 12.6875 C17.82054687 12.23761719 16.76609375 11.78773437 15.6796875 11.32421875 C13 10 13 10 11 8 C8.45286596 8.00922702 8.45286596 8.00922702 6 9 C3.21644424 12.72020817 3.66582464 17.21558031 3.62109375 21.65625 C3.6044165 22.55485748 3.58773926 23.45346497 3.57055664 24.37930298 C3.51678203 27.41945712 3.47711823 30.45963076 3.4375 33.5 C3.4024937 35.65609904 3.36674666 37.81218617 3.33032227 39.96826172 C3.21716071 46.90420318 3.12278266 53.84035916 3.0300293 60.77659607 C2.97585658 64.78760704 2.91937994 68.79858591 2.86328125 72.80957031 C2.55582815 94.8728035 2.27038416 116.9362831 2 139 C0.02615361 135.69421905 -0.24761798 133.21847339 -0.24050903 129.39385986 C-0.24325836 128.25245041 -0.24600769 127.11104095 -0.24884033 125.93504333 C-0.24164978 124.68707474 -0.23445923 123.43910614 -0.22705078 122.15332031 C-0.22734283 120.83600418 -0.22763489 119.51868805 -0.22793579 118.16145325 C-0.2285096 114.55224648 -0.21675074 110.94317265 -0.20278788 107.33399677 C-0.19028524 103.56102993 -0.18911039 99.78806004 -0.18673706 96.01507568 C-0.18052092 88.8717789 -0.16410829 81.72854333 -0.14403808 74.5852735 C-0.12168326 66.45233322 -0.1106867 58.31939 -0.10064721 50.18642664 C-0.07974218 33.45758192 -0.04456359 16.72879877 0 0 Z " fill="#B43139" transform="translate(1540,1064)"/>
<path d="M0 0 C2.18915589 4.37831177 2.32798267 7.66815447 2.37890625 12.421875 C2.39590073 13.24069153 2.4128952 14.05950806 2.43040466 14.90313721 C2.48343419 17.51867977 2.52373508 20.13421029 2.5625 22.75 C2.60667782 25.35142176 2.65366872 27.95273153 2.70530701 30.55401611 C2.73681319 32.17010053 2.76383492 33.78628106 2.78553772 35.40252686 C2.47954816 44.41687969 2.47954816 44.41687969 6 52 C4.02 52.66 2.04 53.32 0 54 C0 36.18 0 18.36 0 0 Z " fill="#A70C17" transform="translate(1539,1389)"/>
<path d="M0 0 C3.64061352 0.91015338 6.31669511 2.04301083 9.640625 3.72265625 C11.24550781 4.52993164 11.24550781 4.52993164 12.8828125 5.35351562 C13.99398438 5.91748047 15.10515625 6.48144531 16.25 7.0625 C17.37664062 7.63033203 18.50328125 8.19816406 19.6640625 8.78320312 C22.44454032 10.18522372 25.22308197 11.59094541 28 13 C23.87276194 14.26791328 21.84227973 13.41770185 17.875 11.6875 C16.82054687 11.23761719 15.76609375 10.78773437 14.6796875 10.32421875 C12 9 12 9 10 7 C5.07329218 6.46448828 4.17568185 6.86823861 0 10 C0 6.7 0 3.4 0 0 Z " fill="#9E0F19" transform="translate(1541,1065)"/>
<path d="M0 0 C1.65 0 3.3 0 5 0 C1.79881458 2.55262351 -1.55488972 4.47229866 -5.1640625 6.3984375 C-5.75617523 6.71527496 -6.34828796 7.03211243 -6.95834351 7.35855103 C-8.20983415 8.02738988 -9.46218253 8.69462596 -10.71533203 9.36035156 C-12.59990858 10.36166838 -14.48181012 11.36786248 -16.36328125 12.375 C-23.19052457 16.021653 -30.05120218 19.58913872 -37 23 C-36.505 21.515 -36.505 21.515 -36 20 C-32.9375 18.8125 -32.9375 18.8125 -30 18 C-30 17.34 -30 16.68 -30 16 C-25.0778687 13.36634013 -20.42096702 11.35524176 -15 10 C-15 9.34 -15 8.68 -15 8 C-10.0778687 5.36634013 -5.42096702 3.35524176 0 2 C0 1.34 0 0.68 0 0 Z " fill="#AC1A24" transform="translate(1602,1407)"/>
<path d="M0 0 C0 0.99 0 1.98 0 3 C-7.59 6.96 -15.18 10.92 -23 15 C-23.33 14.34 -23.66 13.68 -24 13 C-17.25 9 -17.25 9 -15 9 C-14.77183594 8.39671875 -14.54367187 7.7934375 -14.30859375 7.171875 C-12.62542007 4.37830914 -10.98670238 3.64125047 -8.0625 2.25 C-7.18722656 1.82203125 -6.31195312 1.3940625 -5.41015625 0.953125 C-3 0 -3 0 0 0 Z " fill="#AF1923" transform="translate(1737,1336)"/>
<path d="M0 0 C0.99 0.33 1.98 0.66 3 1 C-0.34721659 3.81367929 -3.63320032 6.01818117 -7.51953125 8.015625 C-8.54111328 8.54414062 -9.56269531 9.07265625 -10.61523438 9.6171875 C-11.67033203 10.15601563 -12.72542969 10.69484375 -13.8125 11.25 C-14.88693359 11.80429688 -15.96136719 12.35859375 -17.06835938 12.9296875 C-19.70972017 14.29145573 -22.3536137 15.64803142 -25 17 C-25.33 16.34 -25.66 15.68 -26 15 C-24.54462432 14.16151196 -23.08559627 13.32936066 -21.625 12.5 C-20.81289062 12.0359375 -20.00078125 11.571875 -19.1640625 11.09375 C-17 10 -17 10 -15 10 C-15 9.34 -15 8.68 -15 8 C-14.360625 7.71125 -13.72125 7.4225 -13.0625 7.125 C-10.84793921 6.17176549 -10.84793921 6.17176549 -10 4 C-6.54670274 2.27335137 -3.84169158 1.78047477 0 2 C0 1.34 0 0.68 0 0 Z " fill="#AE1B25" transform="translate(1784,1310)"/>
<path d="M0 0 C0 3 0 3 -1.1875 4.5 C-6.625 9 -6.625 9 -10 9 C-10 9.66 -10 10.32 -10 11 C-11.32 10.67 -12.64 10.34 -14 10 C-14 10.66 -14 11.32 -14 12 C-16.31 12.33 -18.62 12.66 -21 13 C-18.81109368 10.55640961 -16.91542494 9.38078506 -13.875 8.1875 C-8.81751292 6.05322384 -4.46509898 3.16673687 0 0 Z " fill="#B60D18" transform="translate(1798,1300)"/>
<path d="M0 0 C0 0.66 0 1.32 0 2 C-9.405 6.95 -9.405 6.95 -19 12 C-19 11.01 -19 10.02 -19 9 C-18.071875 8.87625 -18.071875 8.87625 -17.125 8.75 C-14.83330129 8.20673909 -14.83330129 8.20673909 -13.9375 6.0625 C-13.628125 5.381875 -13.31875 4.70125 -13 4 C-10.34531286 2.23020858 -8.92500069 1.57859829 -5.9375 0.875 C-5.24527344 0.70742187 -4.55304688 0.53984375 -3.83984375 0.3671875 C-2 0 -2 0 0 0 Z " fill="#AF1B25" transform="translate(1872,1265)"/>
<path d="M0 0 C4.35970831 1.34849837 8.31341438 3.04907846 12.375 5.125 C13.43460938 5.66382813 14.49421875 6.20265625 15.5859375 6.7578125 C16.38257813 7.16773438 17.17921875 7.57765625 18 8 C14.07962103 9.54353085 11.64917791 8.39357453 7.875 6.8125 C6.82054687 6.38582031 5.76609375 5.95914062 4.6796875 5.51953125 C1.84692101 3.91319573 1.04811008 3.02140374 0 0 Z " fill="#AE1C26" transform="translate(1551,1070)"/>
<path d="M0 0 C4.75 0.875 4.75 0.875 7 2 C7 2.66 7 3.32 7 4 C5.73581754 4.69965443 4.46334598 5.38434763 3.1875 6.0625 C2.47980469 6.44535156 1.77210937 6.82820313 1.04296875 7.22265625 C-1 8 -1 8 -4 7 C-3.525625 6.5875 -3.05125 6.175 -2.5625 5.75 C-0.83733482 3.817815 -0.43415125 2.51807725 0 0 Z " fill="#9F131C" transform="translate(1893,1248)"/>
<path d="M0 0 C0.54140625 0.23589844 1.0828125 0.47179688 1.640625 0.71484375 C-0.009375 1.37484375 -1.659375 2.03484375 -3.359375 2.71484375 C-3.359375 3.37484375 -3.359375 4.03484375 -3.359375 4.71484375 C-9.984375 7.83984375 -9.984375 7.83984375 -13.359375 6.71484375 C-11.61979359 5.51213316 -9.86727755 4.32811365 -8.109375 3.15234375 C-6.64757813 2.16041016 -6.64757813 2.16041016 -5.15625 1.1484375 C-2.359375 -0.28515625 -2.359375 -0.28515625 0 0 Z " fill="#B70D19" transform="translate(1575.359375,1420.28515625)"/>
<path d="M0 0 C0.54140625 0.23589844 1.0828125 0.47179688 1.640625 0.71484375 C-0.009375 1.37484375 -1.659375 2.03484375 -3.359375 2.71484375 C-3.359375 3.37484375 -3.359375 4.03484375 -3.359375 4.71484375 C-9.984375 7.83984375 -9.984375 7.83984375 -13.359375 6.71484375 C-11.61979359 5.51213316 -9.86727755 4.32811365 -8.109375 3.15234375 C-6.64757813 2.16041016 -6.64757813 2.16041016 -5.15625 1.1484375 C-2.359375 -0.28515625 -2.359375 -0.28515625 0 0 Z " fill="#B70D19" transform="translate(1590.359375,1412.28515625)"/>
<path d="M0 0 C0.54140625 0.23589844 1.0828125 0.47179688 1.640625 0.71484375 C-0.009375 1.37484375 -1.659375 2.03484375 -3.359375 2.71484375 C-3.359375 3.37484375 -3.359375 4.03484375 -3.359375 4.71484375 C-9.984375 7.83984375 -9.984375 7.83984375 -13.359375 6.71484375 C-11.61979359 5.51213316 -9.86727755 4.32811365 -8.109375 3.15234375 C-6.64757813 2.16041016 -6.64757813 2.16041016 -5.15625 1.1484375 C-2.359375 -0.28515625 -2.359375 -0.28515625 0 0 Z " fill="#B70D19" transform="translate(1605.359375,1404.28515625)"/>
<path d="M0 0 C0.66 0.33 1.32 0.66 2 1 C1.34 1.66 0.68 2.32 0 3 C-0.99 3 -1.98 3 -3 3 C-3 3.66 -3 4.32 -3 5 C-9.625 8.125 -9.625 8.125 -13 7 C-11.39805929 6.01719585 -9.79336258 5.03888283 -8.1875 4.0625 C-7.29417969 3.51722656 -6.40085937 2.97195313 -5.48046875 2.41015625 C-3 1 -3 1 0 0 Z " fill="#B60D18" transform="translate(1877,1259)"/>
<path d="M0 0 C0.556875 0.226875 1.11375 0.45375 1.6875 0.6875 C0.6975 1.0175 -0.2925 1.3475 -1.3125 1.6875 C-1.3125 2.3475 -1.3125 3.0075 -1.3125 3.6875 C-4.2825 4.3475 -7.2525 5.0075 -10.3125 5.6875 C-4.07440476 -0.55059524 -4.07440476 -0.55059524 0 0 Z M-11.3125 5.6875 C-11.3125 6.6775 -11.3125 7.6675 -11.3125 8.6875 C-11.9725 8.0275 -12.6325 7.3675 -13.3125 6.6875 C-12.6525 6.3575 -11.9925 6.0275 -11.3125 5.6875 Z M-13.3125 8.6875 C-12.9825 9.3475 -12.6525 10.0075 -12.3125 10.6875 C-12.9725 10.3575 -13.6325 10.0275 -14.3125 9.6875 C-13.9825 9.3575 -13.6525 9.0275 -13.3125 8.6875 Z " fill="#B60D19" transform="translate(1650.3125,1380.3125)"/>
<path d="M0 0 C0.556875 0.226875 1.11375 0.45375 1.6875 0.6875 C0.6975 1.0175 -0.2925 1.3475 -1.3125 1.6875 C-1.3125 2.3475 -1.3125 3.0075 -1.3125 3.6875 C-4.2825 4.3475 -7.2525 5.0075 -10.3125 5.6875 C-4.07440476 -0.55059524 -4.07440476 -0.55059524 0 0 Z M-11.3125 5.6875 C-11.3125 6.6775 -11.3125 7.6675 -11.3125 8.6875 C-11.9725 8.0275 -12.6325 7.3675 -13.3125 6.6875 C-12.6525 6.3575 -11.9925 6.0275 -11.3125 5.6875 Z M-13.3125 8.6875 C-12.9825 9.3475 -12.6525 10.0075 -12.3125 10.6875 C-12.9725 10.3575 -13.6325 10.0275 -14.3125 9.6875 C-13.9825 9.3575 -13.6525 9.0275 -13.3125 8.6875 Z " fill="#B60D19" transform="translate(1665.3125,1372.3125)"/>
<path d="M0 0 C0.556875 0.226875 1.11375 0.45375 1.6875 0.6875 C0.6975 1.0175 -0.2925 1.3475 -1.3125 1.6875 C-1.3125 2.3475 -1.3125 3.0075 -1.3125 3.6875 C-4.2825 4.3475 -7.2525 5.0075 -10.3125 5.6875 C-4.07440476 -0.55059524 -4.07440476 -0.55059524 0 0 Z M-11.3125 5.6875 C-11.3125 6.6775 -11.3125 7.6675 -11.3125 8.6875 C-11.9725 8.0275 -12.6325 7.3675 -13.3125 6.6875 C-12.6525 6.3575 -11.9925 6.0275 -11.3125 5.6875 Z M-13.3125 8.6875 C-12.9825 9.3475 -12.6525 10.0075 -12.3125 10.6875 C-12.9725 10.3575 -13.6325 10.0275 -14.3125 9.6875 C-13.9825 9.3575 -13.6525 9.0275 -13.3125 8.6875 Z " fill="#B60D19" transform="translate(1680.3125,1364.3125)"/>
<path d="M0 0 C0.8971875 0.309375 0.8971875 0.309375 1.8125 0.625 C0.1625 1.285 -1.4875 1.945 -3.1875 2.625 C-3.1875 3.285 -3.1875 3.945 -3.1875 4.625 C-5.15216413 5.69275224 -7.15605359 6.69053465 -9.1875 7.625 C-9.8475 7.295 -10.5075 6.965 -11.1875 6.625 C-2.778125 -0.47625 -2.778125 -0.47625 0 0 Z " fill="#B60D18" transform="translate(1560.1875,1428.375)"/>
<path d="M0 0 C0.66 0.33 1.32 0.66 2 1 C1.34 1.66 0.68 2.32 0 3 C-0.99 3 -1.98 3 -3 3 C-3 3.66 -3 4.32 -3 5 C-5.31 5.33 -7.62 5.66 -10 6 C-7.31100548 2.67830089 -3.94687492 1.43522725 0 0 Z " fill="#B70D19" transform="translate(1772,1315)"/>
<path d="M0 0 C0.99 0.495 0.99 0.495 2 1 C2.38063221 3.3260857 2.71269945 5.66055264 3 8 C3.33 8.66 3.66 9.32 4 10 C2.68 10.33 1.36 10.66 0 11 C0 7.37 0 3.74 0 0 Z " fill="#970C16" transform="translate(1539,1432)"/>
<path d="M0 0 C0 3 0 3 -1.125 4.625 C-3.64613093 6.47382935 -5.93350175 6.65927797 -9 7 C-6.24479785 4.04070881 -3.53372712 1.96318174 0 0 Z " fill="#B70D19" transform="translate(1813,1292)"/>
<path d="M0 0 C0 3 0 3 -1.125 4.625 C-3.64613093 6.47382935 -5.93350175 6.65927797 -9 7 C-6.24479785 4.04070881 -3.53372712 1.96318174 0 0 Z " fill="#B70D19" transform="translate(1828,1284)"/>
<path d="M0 0 C0 3 0 3 -1.125 4.625 C-3.64613093 6.47382935 -5.93350175 6.65927797 -9 7 C-6.24479785 4.04070881 -3.53372712 1.96318174 0 0 Z " fill="#B70D19" transform="translate(1843,1276)"/>
<path d="M0 0 C0 3 0 3 -1.125 4.625 C-3.64613093 6.47382935 -5.93350175 6.65927797 -9 7 C-6.24479785 4.04070881 -3.53372712 1.96318174 0 0 Z " fill="#B70D19" transform="translate(1858,1268)"/>
<path d="M0 0 C4.23429756 1.31061591 8.07407404 2.94356259 12 5 C8.35839192 6.21386936 7.66834531 5.6674695 4.3125 4.0625 C3.10013672 3.49208984 3.10013672 3.49208984 1.86328125 2.91015625 C1.24839844 2.60980469 0.63351562 2.30945312 0 2 C0 1.34 0 0.68 0 0 Z " fill="#AF262F" transform="translate(1738,1167)"/>
<path d="M0 0 C0 0.66 0 1.32 0 2 C-2.97 3.32 -5.94 4.64 -9 6 C-8.67 4.68 -8.34 3.36 -8 2 C-5.25822503 0.83328724 -2.99432393 0 0 0 Z " fill="#AC1F28" transform="translate(1555,1434)"/>
<path d="M0 0 C3.91211733 1.15585285 6.8745041 2.35534962 10 5 C3.375 4.25 3.375 4.25 0 2 C0 1.34 0 0.68 0 0 Z " fill="#AF242D" transform="translate(1867,1234)"/>
<path d="M0 0 C3.91211733 1.15585285 6.8745041 2.35534962 10 5 C3.375 4.25 3.375 4.25 0 2 C0 1.34 0 0.68 0 0 Z " fill="#AF232D" transform="translate(1815,1207)"/>
<path d="M0 0 C3.91211733 1.15585285 6.8745041 2.35534962 10 5 C3.375 4.25 3.375 4.25 0 2 C0 1.34 0 0.68 0 0 Z " fill="#AF242D" transform="translate(1790,1194)"/>
<path d="M0 0 C3.91211733 1.15585285 6.8745041 2.35534962 10 5 C3.375 4.25 3.375 4.25 0 2 C0 1.34 0 0.68 0 0 Z " fill="#AF242D" transform="translate(1713,1154)"/>
<path d="M0 0 C3.91211733 1.15585285 6.8745041 2.35534962 10 5 C3.375 4.25 3.375 4.25 0 2 C0 1.34 0 0.68 0 0 Z " fill="#AF242D" transform="translate(1636,1114)"/>
<path d="M0 0 C3.91211733 1.15585285 6.8745041 2.35534962 10 5 C8.51793505 4.745504 7.03931385 4.47088238 5.5625 4.1875 C4.73878906 4.03667969 3.91507813 3.88585938 3.06640625 3.73046875 C2.38449219 3.48941406 1.70257812 3.24835938 1 3 C0.67 2.01 0.34 1.02 0 0 Z " fill="#B02730" transform="translate(1842,1221)"/>
<path d="M0 0 C3.91211733 1.15585285 6.8745041 2.35534962 10 5 C8.51793505 4.745504 7.03931385 4.47088238 5.5625 4.1875 C4.73878906 4.03667969 3.91507813 3.88585938 3.06640625 3.73046875 C2.38449219 3.48941406 1.70257812 3.24835938 1 3 C0.67 2.01 0.34 1.02 0 0 Z " fill="#B02730" transform="translate(1765,1181)"/>
<path d="M0 0 C3.91211733 1.15585285 6.8745041 2.35534962 10 5 C8.51793505 4.745504 7.03931385 4.47088238 5.5625 4.1875 C4.73878906 4.03667969 3.91507813 3.88585938 3.06640625 3.73046875 C2.38449219 3.48941406 1.70257812 3.24835938 1 3 C0.67 2.01 0.34 1.02 0 0 Z " fill="#B0262F" transform="translate(1688,1141)"/>
<path d="M0 0 C3.91211733 1.15585285 6.8745041 2.35534962 10 5 C8.51793505 4.745504 7.03931385 4.47088238 5.5625 4.1875 C4.73878906 4.03667969 3.91507813 3.88585938 3.06640625 3.73046875 C2.38449219 3.48941406 1.70257812 3.24835938 1 3 C0.67 2.01 0.34 1.02 0 0 Z " fill="#B0262F" transform="translate(1611,1101)"/>
<path d="M0 0 C0.99 0.33 1.98 0.66 3 1 C2.4225 1.2475 1.845 1.495 1.25 1.75 C-1.3002997 3.16683317 -3.01785701 4.87627537 -5 7 C-5 4 -5 4 -3.625 2.375 C-2 1 -2 1 0 0 Z " fill="#AF141E" transform="translate(1614,1400)"/>
<path d="M0 0 C3.91211733 1.15585285 6.8745041 2.35534962 10 5 C8.51793505 4.745504 7.03931385 4.47088238 5.5625 4.1875 C4.73878906 4.03667969 3.91507813 3.88585938 3.06640625 3.73046875 C2.38449219 3.48941406 1.70257812 3.24835938 1 3 C0.67 2.01 0.34 1.02 0 0 Z " fill="#B02932" transform="translate(1663,1128)"/>
<path d="M0 0 C3.91211733 1.15585285 6.8745041 2.35534962 10 5 C8.51793505 4.745504 7.03931385 4.47088238 5.5625 4.1875 C4.73878906 4.03667969 3.91507813 3.88585938 3.06640625 3.73046875 C2.38449219 3.48941406 1.70257812 3.24835938 1 3 C0.67 2.01 0.34 1.02 0 0 Z " fill="#B02932" transform="translate(1586,1088)"/>
<path d="M0 0 C2.475 0.495 2.475 0.495 5 1 C5 1.66 5 2.32 5 3 C3.35 3.66 1.7 4.32 0 5 C0 3.35 0 1.7 0 0 Z " fill="#97252C" transform="translate(1895,1249)"/>
</svg>
